<svg width="290" height="259" viewBox="0 0 290 259" fill="none" xmlns="http://www.w3.org/2000/svg">
<path d="M105.984 24.1771L50.6147 100.318C28.0417 82.0729 17.349 94.4167 17.349 94.4167C26.4584 63.7865 9.33342 61.6927 2.97925 57.6615C29.1459 54.5938 24.8334 34.1406 18.7449 24.5C41.6824 36.2031 47.349 15.9323 49.6407 3.73438C59.3334 17.224 72.1251 15.2292 78.7397 4.98958C80.0261 16.1042 84.5626 21.4792 105.984 24.1771Z" fill="#FFD766"/>
<path d="M282.937 233.995C275.771 252.302 222.87 242.359 208.229 248.276C208.229 248.276 216.536 237.526 224.354 219.703L97.3801 244.849C87.2291 248.208 75.4895 251.589 64.7447 252.776C51.1197 254.271 29.828 256.286 17.7395 251.75C21.9739 245.234 26.7499 240.609 27.2291 232.687C28.3489 215.443 21.4166 176.734 21.4166 176.734C16.2864 137.365 28.3333 109.375 50.4843 69.151C93.4635 -9.0469 148.094 15.5 148.094 15.5C162.646 7.9531 177.75 11.4427 193.474 13.1406C212.667 15.2187 230.099 19.8906 243.865 34.2083C261.057 52.125 269.823 75.4791 276.229 98.9427C283.099 124.141 290.349 156.422 284.328 184.104H284.365C279.323 211.375 287.005 223.63 282.937 233.995Z" fill="#DE4D86"/>
<path d="M233.052 139.182C249.057 124.99 254.568 141.547 253.062 159.536C252.312 168.818 250.057 182.021 236.146 182.359C236.146 182.359 234.391 248.063 159.281 254.776C139.463 256.552 110.307 249.979 97.4635 239.141C84.8749 228.526 77.3854 214.604 71.3229 199.286C62.7395 177.656 65.5312 151.198 65.2239 128.703C65.2239 128.703 65.9062 92.3333 103.203 77.2083C151.766 57.5208 160.719 63.3073 160.719 63.3073C173.724 47.6771 205.698 75.8854 213.323 86.9479C231.396 113.141 233.052 139.182 233.052 139.182Z" fill="#E6B48C"/>
<path d="M185.068 161.646C164.406 158.578 164.24 128.375 193.839 128.922C213.995 129.297 214.604 147.385 210.625 153.661C207.318 158.896 198.885 163.698 185.068 161.646ZM106.182 161.646C126.844 158.578 127.01 128.375 97.4219 128.922C77.2604 129.297 76.6458 147.385 80.625 153.661C83.9271 158.896 92.375 163.698 106.182 161.646Z" fill="white"/>
<path d="M211.448 188.807C208.979 191.172 206.531 193.552 204.156 196.005C203.703 196.453 203.156 196.74 202.526 196.865C201.896 196.99 201.287 196.927 200.688 196.682C200.099 196.437 199.62 196.047 199.255 195.516C198.901 194.99 198.719 194.396 198.714 193.76C198.714 193.354 198.714 192.943 198.714 192.536C197.208 193.458 195.703 194.417 194.115 195.276C193.266 195.76 192.38 195.833 191.458 195.5C191.458 195.583 191.458 195.599 191.458 195.5C191.375 196.245 191.078 196.891 190.573 197.443C190.276 197.734 189.932 197.964 189.542 198.12C189.151 198.281 188.745 198.359 188.323 198.359C187.906 198.359 187.495 198.281 187.109 198.12C186.714 197.964 186.37 197.734 186.068 197.443C185.448 196.818 185.141 196.068 185.141 195.187C185.354 193.203 185.896 191.297 186.76 189.495C187.557 187.906 188.526 186.432 189.662 185.073C190.281 184.448 191.031 184.13 191.917 184.13C192.484 184.156 193.021 184.297 193.531 184.568C194.135 184.917 194.573 185.417 194.833 186.068C195.005 186.458 195.078 186.865 195.063 187.286C196.557 186.354 198.089 185.5 199.667 184.729C200.589 184.219 201.542 184.167 202.521 184.568C203.469 184.953 204.089 185.641 204.359 186.635C204.359 186.672 204.359 186.724 204.359 186.76C205.203 185.943 206.042 185.115 206.891 184.302C207.198 184.052 207.542 183.854 207.922 183.734C208.297 183.604 208.688 183.547 209.089 183.568C209.484 183.589 209.87 183.672 210.229 183.839C210.599 183.995 210.922 184.219 211.198 184.5C211.484 184.781 211.708 185.104 211.87 185.469C212.026 185.833 212.12 186.219 212.141 186.609C212.151 187.01 212.104 187.401 211.974 187.776C211.844 188.156 211.656 188.495 211.396 188.802L211.448 188.807ZM111.578 191.26C112.021 192.036 112.13 192.859 111.906 193.724C111.635 194.536 111.135 195.177 110.401 195.63C109.76 196.078 109.094 196.464 108.385 196.797C108.104 196.943 107.766 197.229 107.458 197.359C107.297 197.521 106.771 198.182 107.313 197.448C107.172 197.682 107.005 197.896 106.807 198.083C106.604 198.276 106.391 198.443 106.151 198.578C105.912 198.714 105.662 198.818 105.396 198.885C105.135 198.958 104.865 198.995 104.589 198.995C104.313 199 104.042 198.964 103.776 198.896C103.51 198.833 103.255 198.729 103.016 198.599C102.776 198.464 102.552 198.307 102.354 198.12C102.156 197.932 101.979 197.724 101.839 197.49C100.484 198.406 99.0782 199.203 97.599 199.885C97.3855 200.005 97.1615 200.104 96.922 200.177C96.6928 200.245 96.4532 200.297 96.2032 200.307C95.9584 200.323 95.7136 200.312 95.4688 200.276C95.2292 200.234 94.9897 200.172 94.7605 200.073C94.5365 199.979 94.323 199.865 94.1251 199.724C93.922 199.578 93.7397 199.417 93.5782 199.234C93.4115 199.047 93.2709 198.849 93.1563 198.63C93.0365 198.411 92.948 198.182 92.8855 197.948C92.5886 198.229 92.3022 198.51 92.0313 198.818C90.8542 200.151 88.7188 199.927 87.5261 198.818C87.2345 198.516 87.0105 198.172 86.8542 197.776C86.7032 197.391 86.6199 196.99 86.6199 196.568C86.6199 196.151 86.7032 195.745 86.8542 195.359C87.0105 194.969 87.2345 194.625 87.5261 194.318C89.3022 192.318 91.6928 190.995 93.5313 189.073C93.9897 188.625 94.5365 188.344 95.1615 188.219C95.797 188.099 96.4063 188.156 97.0001 188.401C97.5938 188.646 98.073 189.036 98.4324 189.562C98.797 190.099 98.9792 190.677 98.9897 191.323C98.9897 191.448 98.9897 191.573 98.9897 191.703C100.219 190.885 101.432 190.047 102.688 189.281C103.047 189.089 103.422 188.974 103.818 188.917C104.219 188.865 104.62 188.875 105.01 188.964C105.401 189.047 105.766 189.198 106.109 189.422C106.448 189.635 106.734 189.906 106.974 190.224L107.167 190.104C107.938 189.625 108.76 189.521 109.625 189.776C110.49 190.005 111.135 190.495 111.589 191.26H111.578ZM107.547 192.547C107.557 192.687 107.557 192.823 107.547 192.964C107.583 192.526 107.547 192.458 107.547 192.547ZM146.849 183.141C133.531 182.385 129.766 211.099 143.76 214.464C151.63 216.359 157.75 211.167 157.417 198.198C157.01 182.74 146.849 183.141 146.849 183.141Z" fill="#DE4D86"/>
<path d="M121.146 34.1302C121.271 34.3542 121.292 34.5886 121.224 34.8334C121.151 35.0886 121.005 35.2709 120.776 35.3959C104.26 44.3906 89.8854 57.5886 77.9844 74.6094C74.1354 80.0938 69.9167 85.5886 65.8385 90.8906C56.776 102.688 47.4062 114.875 41.1979 128.229C32.7239 146.417 35.0364 164.156 37.4427 182.948C38.0781 187.891 38.7448 192.995 39.2031 198.141C39.3646 199.849 39.5729 201.781 39.8021 203.833C41.2344 216.703 43.1875 234.339 36.2969 243.161C36.1094 243.396 35.8542 243.521 35.5521 243.516C35.3333 243.516 35.1458 243.448 34.9792 243.313C34.776 243.161 34.651 242.948 34.625 242.698C34.5937 242.443 34.651 242.214 34.8125 242.01C41.2239 233.766 39.2448 215.885 37.9323 204.042C37.7031 201.979 37.4844 200.031 37.3281 198.307C36.8698 193.198 36.2135 188.109 35.5729 183.188C33.0937 164.135 30.7604 146.135 39.4531 127.458C45.7552 113.927 55.1875 101.646 64.3073 89.7761C68.375 84.4792 72.5677 79 76.3906 73.5521C88.4792 56.3125 103.094 42.8906 119.833 33.7604C120.068 33.6198 120.312 33.5886 120.568 33.6563C120.828 33.7292 121.026 33.8906 121.146 34.1302ZM47.2708 158.927C47.2604 158.682 47.1614 158.474 46.9896 158.307C46.8125 158.135 46.5989 158.047 46.3646 158.042C46.1146 158.031 45.901 158.109 45.7187 158.271C45.5312 158.427 45.4271 158.63 45.3958 158.87C45.0781 169.859 46.6406 180.609 48.151 190.984C50.75 208.859 53.2083 225.755 46.6458 243.458C46.5573 243.698 46.5625 243.938 46.6667 244.172C46.7812 244.406 46.9531 244.563 47.1979 244.656C47.3021 244.698 47.4114 244.719 47.5208 244.719C47.9583 244.719 48.2448 244.516 48.3958 244.109C55.1562 225.979 52.6302 208.88 49.9948 190.729C48.5 180.406 46.9583 169.755 47.2708 158.927ZM58.1458 175.906C57.8854 175.938 57.6771 176.057 57.526 176.26C57.3646 176.469 57.3073 176.698 57.3437 176.953C58.0937 182.641 59.276 188.391 60.3489 193.958C62.4062 204.271 64.5417 214.943 64.4583 225.625C64.4583 230.177 63.6406 238.708 62 243.427C61.9219 243.667 61.9323 243.906 62.0417 244.141C62.1614 244.375 62.3385 244.531 62.5781 244.62C62.6823 244.651 62.7812 244.661 62.8854 244.661C63.3333 244.661 63.625 244.458 63.776 244.042C65.5677 238.844 66.2865 229.99 66.3281 225.641C66.4062 214.755 64.2604 204 62.1823 193.594C61.0781 188.052 59.9323 182.349 59.1771 176.698C59.1458 176.443 59.0208 176.24 58.8281 176.089C58.625 175.938 58.3958 175.875 58.1458 175.906ZM232.187 91.8594C231.505 76.3177 230.792 60.2552 222.365 49.25C205.526 27.2865 179.464 27.4583 154.25 27.6354C152.099 27.6354 149.943 27.6354 147.818 27.6354C147.562 27.6354 147.339 27.7292 147.156 27.9063C146.974 28.0938 146.885 28.3125 146.885 28.5625C146.885 28.8229 146.974 29.0417 147.156 29.2292C147.339 29.4063 147.562 29.4948 147.818 29.4948H154.266C179.047 29.3229 204.615 29.1406 220.88 50.3698C228.953 60.9115 229.651 76.6823 230.323 91.9271C230.937 105.891 231.521 119.063 237.766 127.161C237.958 127.406 238.208 127.531 238.516 127.531C238.729 127.531 238.922 127.469 239.089 127.333C239.297 127.177 239.411 126.979 239.448 126.719C239.479 126.464 239.417 126.234 239.26 126.031C233.328 118.401 232.755 105.505 232.187 91.8594ZM266.26 134.448C257.38 114.755 252.797 101.286 250.797 78.0261C249.078 58 246.167 40.6667 228.01 31.3542C215.51 24.9375 203.984 23.8594 191.76 22.6302C184.589 21.9323 177.177 21.2136 169.516 19.3229C169.276 19.2865 169.057 19.3333 168.854 19.4688C168.651 19.6042 168.516 19.7917 168.458 20.0313C168.406 20.2604 168.427 20.4896 168.552 20.7031C168.667 20.9115 168.839 21.0625 169.073 21.1406C176.865 23.0521 184.344 23.7865 191.594 24.4896C203.609 25.6563 214.99 26.7344 227.177 33.0104C244.479 41.8854 247.271 58.724 248.948 78.1823C250.974 101.724 255.599 115.323 264.573 135.214C268.833 144.667 271.328 157.792 271.557 172.161C271.776 188.87 269.24 205.146 263.943 220.995C263.854 221.24 263.875 221.479 263.984 221.714C264.099 221.948 264.281 222.099 264.526 222.182C264.625 222.214 264.729 222.229 264.828 222.229C265.281 222.229 265.573 222.016 265.714 221.594C271.089 205.536 273.656 189.042 273.417 172.12C273.125 157.516 270.583 144.115 266.224 134.448H266.26ZM280.859 229.516C280.771 230.042 280.859 229.75 280.859 229.516V229.516ZM277.052 236.604C276.76 236.813 276.901 236.724 277.052 236.604V236.604ZM287.484 184.531C287.474 184.667 287.458 184.802 287.432 184.938C286.089 192.255 285.557 199.635 285.844 207.078C286.052 212.188 286.75 217.24 287.177 222.339C287.474 225.979 287.531 229.714 286.547 233.26C286.057 235.016 285.286 236.641 284.24 238.135C283.193 239.625 281.927 240.901 280.448 241.964C274.078 246.688 265.25 247.74 257.589 248.432C248.266 249.266 238.88 249.109 229.521 249.229C225.432 249.276 221.328 249.349 217.255 249.703C216.505 249.776 215.714 249.859 214.937 249.953L214.01 250.089L213.042 250.245C211.687 250.484 210.365 250.849 209.073 251.344C206.583 252.333 203.818 248.792 205.464 246.656C207.328 244.24 208.99 241.646 210.594 239.052L210.708 238.875C208.312 240.833 205.807 242.635 203.198 244.286C196.146 248.656 188.625 251.953 180.63 254.167C171.193 256.891 161.573 258.255 151.745 258.245C141.125 258.104 130.714 256.547 120.505 253.583C114.562 251.979 108.87 249.745 103.422 246.891L102.156 247.135L98.9427 247.776C96.6354 248.354 94.3698 249.057 92.1354 249.87C85.0677 252.115 77.8854 253.865 70.5781 255.12C64.4635 256.12 58.2448 256.656 52.0677 257.125C45.8906 257.641 39.6979 257.786 33.5 257.568C27.9323 257.307 22.1719 256.719 16.9167 254.776C15.0937 254.099 13.7812 251.938 15 250.094C16.9583 247.094 19.1875 244.307 21.0417 241.266C22.8333 238.49 23.8542 235.464 24.0937 232.177C24.2239 229.813 24.1979 227.438 24.0937 225.078C23.9062 219.422 23.3906 213.76 22.7604 208.135C22.4479 205.245 22.0989 202.37 21.7083 199.505C21.7083 199.37 21.5937 198.604 21.5937 198.615L21.4792 197.792C21.3906 197.115 21.2969 196.443 21.2031 195.766C21.0208 194.479 20.8333 193.188 20.6354 191.906C20.0573 188.026 19.4427 184.141 18.7864 180.234C16.9271 169.292 16.5469 158.302 17.6406 147.25C19.1458 132.672 23.25 118.656 28.9062 105.182C30.4844 101.422 32.1614 97.6979 33.9219 94.0156C24.2656 91.1979 19.6927 95.9792 19.4271 96.2604C18.9948 96.7656 18.4479 97.0625 17.7969 97.1823C17.1458 97.2969 16.5364 97.1927 15.9583 96.875C15.3802 96.5573 14.9687 96.0886 14.7187 95.474C14.4739 94.8646 14.4479 94.2448 14.6354 93.6094C17.7917 82.9688 17.9271 74.9531 15.0625 69.7656C12.7083 65.5104 8.67707 63.6042 5.12499 61.9271C3.85936 61.3594 2.64061 60.724 1.45311 60.0104C0.963529 59.6927 0.614572 59.2552 0.401029 58.7084C0.18228 58.1719 0.140613 57.6094 0.276029 57.0417C0.411447 56.474 0.692696 55.9896 1.1302 55.6042C1.5677 55.2136 2.07291 54.9792 2.65103 54.9063C11.2864 53.9011 16.8594 50.8698 19.2344 45.9115C22.1146 39.875 19.875 31.5833 16.3646 26.0417C16.026 25.5104 15.8854 24.9271 15.9375 24.3021C15.9948 23.6667 16.2344 23.1198 16.6562 22.6563C17.0885 22.1875 17.6094 21.9011 18.2292 21.7917C18.8542 21.6823 19.4427 21.7656 20.0104 22.0521C26.6458 25.4375 32.0729 26.1406 36.1458 24.1354C42.901 20.8333 45.4948 10.6406 46.8802 3.26043C46.9844 2.70835 47.2344 2.23439 47.6198 1.82814C48.0156 1.4271 48.4792 1.16668 49.0312 1.04689C49.5781 0.921891 50.1146 0.958349 50.6406 1.16147C51.1614 1.3646 51.5885 1.68752 51.9167 2.14585C55.875 7.65106 60.6458 10.625 65.3646 10.5052C69.5625 10.4011 73.5781 7.85418 76.3802 3.50522C76.6979 3.01564 77.1354 2.65106 77.6823 2.43231C78.2292 2.20835 78.7865 2.16668 79.3646 2.29689C79.9427 2.43231 80.4271 2.71356 80.8177 3.15106C81.2187 3.59377 81.4531 4.09897 81.526 4.68231C82.276 10.8125 83.5573 15.3281 92.125 18.3958C96.1979 16.0469 100.453 14.0886 104.885 12.5261C112.141 9.97918 119.604 8.69272 127.286 8.66147C132.688 8.63543 138.005 9.28127 143.245 10.5938C144.823 10.9844 146.375 11.4636 147.896 12.0208C149.604 11.2136 151.359 10.5052 153.151 9.91668C161.802 7.10939 171.042 7.37502 179.974 8.33856C188.693 9.28648 197.531 10.1563 206.146 11.7865C214 13.1927 221.51 15.6458 228.672 19.1458C236.146 22.9583 242.646 28 248.198 34.2761C259.943 47.3646 267.823 63.2709 273.589 79.7552C276.411 87.8177 278.729 96.0365 280.88 104.292C283.135 112.839 285.104 121.448 286.635 130.151C289.823 148.047 291.214 166.604 287.443 184.531H287.484ZM36.4167 88.9219C37.4167 86.875 38.4479 84.8281 39.5156 82.7917C43.526 75.0365 47.5885 67.2709 52.1562 59.8177C59.3646 48.0573 68 36.9167 78.5729 27.9219C81.0573 25.8073 83.651 23.8281 86.3437 21.9844C84.1146 20.9115 82.2031 19.4323 80.599 17.5521C79 15.6667 77.849 13.5365 77.1562 11.1667C75.5781 12.6667 73.7812 13.8333 71.776 14.6719C69.7656 15.5208 67.6719 15.9792 65.5 16.0677C60.4479 16.1875 55.4896 14.0104 51.1771 9.82293C49.2396 17.3594 45.7812 25.6146 38.6146 29.125C34.5364 31.125 29.7656 31.3698 24.3437 29.7917C26.3906 35.5417 27.0885 42.375 24.2656 48.2813C21.9062 53.224 17.5521 56.7292 11.2708 58.7761C14.9948 60.6875 17.8958 63.4531 19.9896 67.0677C22.9948 72.4479 23.5469 79.5209 21.7083 88.5677C22.8229 88.1927 23.9531 87.9219 25.1094 87.7552C28.9739 87.2604 32.7396 87.6511 36.4167 88.9219ZM205.443 234.964L205.187 235.156C205.281 235.104 205.359 235.036 205.443 234.964ZM207.865 232.969C210.286 230.901 212.552 228.677 214.661 226.297C215.677 225.167 216.641 224 217.578 222.807C217.693 222.672 217.792 222.531 217.901 222.385L218.536 221.531C218.969 220.943 219.385 220.349 219.802 219.745C221.37 217.464 222.797 215.094 224.099 212.646C224.719 211.51 225.297 210.354 225.849 209.177C226.12 208.604 226.391 208.026 226.646 207.438L227.047 206.542C227.047 206.474 227.099 206.411 227.12 206.349C228.797 202.297 230.146 198.135 231.167 193.865C231.568 192.208 231.917 190.536 232.203 188.854C232.323 188.151 232.437 187.448 232.542 186.74C232.542 186.661 232.542 186.589 232.542 186.5C232.578 186.255 232.609 186.01 232.641 185.75C232.771 184.625 232.891 183.5 232.922 182.349C232.937 181.927 233.021 181.526 233.182 181.135C233.349 180.75 233.578 180.406 233.875 180.115C234.177 179.813 234.51 179.578 234.901 179.417C235.292 179.25 235.693 179.161 236.115 179.156C236.562 179.156 237.016 179.156 237.458 179.083H238C238.672 178.969 239.333 178.813 239.984 178.625C240.312 178.526 240.63 178.411 240.953 178.302L241.115 178.25L241.297 178.151C241.87 177.88 242.422 177.568 242.948 177.224L243.365 176.927L243.594 176.75L243.896 176.484C244.339 176.083 244.755 175.646 245.146 175.193L245.281 175.031C245.432 174.771 245.604 174.516 245.792 174.286C246.13 173.781 246.437 173.255 246.724 172.724C246.922 172.188 247.172 171.672 247.474 171.177L247.526 171.078C247.609 170.849 247.698 170.625 247.771 170.401C248.141 169.359 248.448 168.297 248.708 167.224C248.958 166.146 249.177 165.068 249.349 163.984L249.484 163.073V163.026C249.542 162.51 249.609 161.984 249.661 161.453C249.948 158.823 250.083 156.177 250.073 153.526C250.073 152.104 250 150.677 249.88 149.26L249.766 148.115C249.766 148.016 249.693 147.531 249.677 147.432V147.349C249.677 147.193 249.625 147.031 249.594 146.87C249.552 146.594 249.5 146.318 249.453 146.036C249.229 144.844 248.937 143.672 248.568 142.516C248.333 142.042 248.146 141.557 247.995 141.052C248.031 141.266 248.229 141.464 248.078 141.151L247.995 140.974C247.995 140.911 247.943 140.849 247.911 140.802C247.802 140.568 247.682 140.333 247.562 140.109C247.328 139.677 247.062 139.266 246.807 138.865V138.818C246.672 138.677 246.552 138.521 246.417 138.375C246.281 138.234 246.062 138.036 245.885 137.87C245.865 137.844 245.844 137.828 245.818 137.807C245.521 137.63 245.24 137.443 244.932 137.286H244.865L244.255 137.12H243.724C243.469 137.12 243.219 137.12 242.974 137.12C242.495 137.224 242.021 137.328 241.568 137.474L240.99 137.688L240.391 137.974C239.828 138.25 239.281 138.563 238.755 138.891C238.234 139.224 237.557 139.698 236.979 140.125L236.828 140.245L236.328 140.641L235.333 141.5C235.156 141.672 234.964 141.813 234.75 141.938C234.542 142.057 234.323 142.156 234.089 142.229C233.854 142.302 233.615 142.349 233.375 142.365C233.13 142.385 232.891 142.38 232.646 142.339C232.406 142.302 232.172 142.245 231.948 142.156C231.719 142.068 231.505 141.953 231.302 141.813C231.104 141.677 230.922 141.521 230.755 141.339C230.589 141.161 230.448 140.969 230.323 140.75C231.12 147.5 230.422 154.094 228.245 160.526C226.677 165.224 224.208 169.385 220.844 173.026C217.401 176.62 213.276 179.089 208.469 180.417C205.891 181.12 203.271 181.682 200.635 182.099C195.917 182.922 191.177 183.115 186.417 182.677C182.391 182.26 178.526 181.26 174.802 179.677C169.453 177.354 165.036 173.854 161.542 169.188C159.745 166.865 158.354 164.333 157.354 161.578C157.333 161.516 157.318 161.458 157.292 161.406C157.354 161.589 157.396 161.719 157.432 161.818L157.333 161.609C157.151 161.24 156.979 160.859 156.812 160.49C155.953 158.552 155.276 156.552 154.786 154.495C154.37 152.693 154.073 150.865 153.901 149.021C147.74 149.38 141.568 149.495 135.401 149.651C135.104 156.661 133.208 163.693 129.188 169.5C125.995 174.094 121.948 177.745 117.052 180.453C114.76 181.734 112.349 182.734 109.818 183.453C101.312 185.813 92.2031 185.75 83.9635 182.37C79.5833 180.604 75.6615 178.12 72.1979 174.922C70.9583 173.75 69.8021 172.505 68.7396 171.172C68.9375 173.813 69.1979 176.422 69.5469 179.068C69.5469 179.13 69.5469 179.224 69.5469 179.292L69.6406 179.943C69.6875 180.266 69.7344 180.589 69.7865 180.911C69.901 181.62 70.0104 182.313 70.1406 183.01C70.3958 184.458 70.6823 185.885 71 187.318C71.6302 190.109 72.401 192.859 73.3333 195.563C73.8073 196.932 74.3229 198.266 74.8333 199.594C75.1042 200.281 75.3802 200.964 75.6667 201.635L75.8437 202.073V202.182C75.974 202.469 76.099 202.76 76.2187 203.042C77.3281 205.615 78.5052 208.146 79.7552 210.651C82.1875 215.547 85 220.214 88.2031 224.641C88.4427 224.964 88.6823 225.292 88.9531 225.62L89.276 226.026L90.4323 227.49C91.3125 228.557 92.2135 229.594 93.1458 230.609C95.0104 232.635 96.9792 234.552 99.0625 236.349C99.4948 236.724 99.9427 237.104 100.391 237.458L100.458 237.516H100.505L101.031 237.901C101.854 238.495 102.698 239.063 103.557 239.589C105.417 240.729 107.339 241.766 109.323 242.698L110.818 243.391L111.656 243.755L111.839 243.833C112.953 244.281 114.083 244.729 115.208 245.141C117.568 246.005 119.953 246.771 122.359 247.458C127.318 248.859 132.339 249.932 137.427 250.688L138.573 250.854H138.865L140.714 251.078C141.974 251.224 143.245 251.344 144.516 251.448C146.922 251.635 149.339 251.755 151.766 251.766C154.078 251.766 156.391 251.719 158.698 251.521C159.948 251.422 161.198 251.286 162.448 251.146L164.323 250.917L164.635 250.87L165.578 250.734C170.13 250.063 174.62 249.099 179.047 247.849C181.083 247.266 183.125 246.615 185.12 245.885C186.083 245.536 187.042 245.135 187.984 244.786L188.74 244.49L188.833 244.448H188.891L190.104 243.917C193.542 242.38 196.859 240.615 200.036 238.599C201.505 237.667 202.932 236.693 204.318 235.667C204.677 235.406 205.026 235.135 205.375 234.875H205.417L205.859 234.521C206.583 234.068 207.229 233.521 207.865 232.969ZM72.7135 110.859C72.1667 112.198 71.6719 113.547 71.2187 114.922C70.4687 117.172 69.849 119.469 69.3646 121.786C71.375 119.495 73.6458 117.495 76.1823 115.792C83.651 110.776 92.8125 108.984 101.714 109.396C110.031 109.776 118.349 112.115 124.583 117.849C127.432 120.495 129.661 123.599 131.276 127.141C133.151 131.354 134.37 135.745 134.922 140.318C134.922 140.432 134.922 140.547 134.979 140.672C135.089 141.531 135.182 142.401 135.255 143.276C141.422 143.115 147.599 143.005 153.76 142.646C153.76 142.401 153.76 142.156 153.76 141.901C154.339 133.214 157.12 124.505 162.776 117.781C165.542 114.505 168.932 112.068 172.922 110.484C175.062 109.708 177.25 109.172 179.5 108.854C182.286 108.359 185.104 107.979 187.922 107.771C196.703 107.104 206 108.141 213.724 112.625C220.943 116.818 225.818 123.75 228.354 131.604C228.745 132.828 229.083 134.078 229.375 135.349C228.38 129.094 226.849 122.969 224.802 116.974C224.047 114.745 223.229 112.531 222.344 110.349L221.87 109.203C221.87 109.109 221.802 109.052 221.792 109L221.698 108.797C221.443 108.214 221.187 107.62 220.948 107.036C220.448 105.932 219.948 104.839 219.448 103.755C216.88 98.4688 213.937 93.4063 210.609 88.5677C210.375 88.2344 210.135 87.9063 209.896 87.5834L209.948 87.6459C209.807 87.4844 209.677 87.2969 209.542 87.1302C208.964 86.3802 208.365 85.7031 207.75 85.0156C206.245 83.3281 204.693 81.7188 203.078 80.1615C201.464 78.6042 199.776 77.0729 198.052 75.6146C197.146 74.8646 196.229 74.1094 195.297 73.3646L194.594 72.8073C195.25 73.3229 194.516 72.7552 194.344 72.6302C193.896 72.2813 193.443 71.9427 192.99 71.6198C189.208 68.7865 185.172 66.375 180.88 64.3854C180.599 64.2761 180.318 64.1563 180.042 64.0209L179.937 63.9792C179.469 63.7917 178.995 63.6146 178.516 63.4479C177.536 63.0886 176.536 62.7813 175.516 62.5313C175.005 62.4011 174.484 62.2917 173.969 62.1875L173.219 62.0677C172.318 61.9688 171.411 61.9271 170.505 61.9323C170.068 61.9323 169.635 61.9948 169.203 62.0313L168.562 62.1511C168.109 62.2448 167.667 62.3646 167.229 62.5156C167.062 62.5677 166.896 62.6354 166.724 62.6979C166.328 62.8959 165.974 63.0834 165.573 63.3125C165.385 63.4219 165.198 63.5365 165.016 63.6615L164.943 63.7188L165 63.6563L164.927 63.7292L164.745 63.849C164.604 63.9479 164.594 64.0156 164.672 63.9792C164.438 64.1719 164.167 64.3594 163.969 64.5625C163.63 64.8959 163.302 65.2448 162.995 65.6042C162.505 66.099 161.911 66.3959 161.214 66.5C160.521 66.6146 159.865 66.5 159.245 66.1771C159.036 66.1146 158.833 66.0469 158.62 66.0052L158.161 65.9063C156.995 65.9063 155.849 65.7344 154.688 65.7604C153.828 65.7604 152.974 65.8281 152.115 65.9063C151.609 65.9479 151.104 66.0052 150.62 66.0625L149.87 66.1511H149.672C146.854 66.5573 144.062 67.1198 141.292 67.7761C132.375 69.9792 123.63 72.7292 115.062 76.0261C112.151 77.1094 109.255 78.2292 106.37 79.3802L103.953 80.3594L103.63 80.4896L103.5 80.5469L102.708 80.8959C101.542 81.3959 100.385 81.9479 99.2552 82.5417C97.1198 83.6354 95.0521 84.849 93.0521 86.1823C92.1042 86.8125 91.1771 87.4688 90.2604 88.1406L89.9635 88.3698L89.3542 88.849C88.9792 89.1511 88.6042 89.4584 88.2344 89.7761C86.6406 91.125 85.125 92.5573 83.6823 94.0729C82.9844 94.7969 82.3177 95.5417 81.6719 96.3177C81.3385 96.6979 81.0208 97.0625 80.7031 97.474L80.2969 97.9792C80.2292 98.0625 80.1615 98.1459 80.1094 98.2344C79.75 98.6719 80.1562 98.1302 80.2135 98.0938C79.5937 98.75 79.0573 99.4844 78.6146 100.276C78.099 101.021 77.5937 101.771 77.1146 102.526C76.2031 104.021 75.3437 105.521 74.5573 107.021C74.1823 107.771 73.8073 108.521 73.474 109.271C73.3021 109.641 73.1302 110.016 72.9687 110.411C72.9375 110.474 72.9115 110.531 72.8854 110.594C72.8854 110.646 72.8333 110.719 72.7812 110.828V110.891L72.7135 110.859ZM180.167 64.0521L180.042 64.0104C180.208 64.0781 180.63 64.2396 180.167 64.0521ZM223.927 150.776C223.99 150.24 224.047 149.698 224.083 149.146C224.161 148.005 224.198 146.854 224.193 145.703C224.187 144.542 224.135 143.391 224.047 142.245C223.995 141.661 223.927 141.078 223.859 140.5C223.859 140.542 223.859 140.573 223.859 140.635C223.859 140.547 223.859 140.469 223.823 140.385C223.786 140.302 223.823 140.339 223.823 140.318C223.781 140.047 223.745 139.771 223.693 139.5C223.339 137.359 222.823 135.25 222.161 133.182C221.865 132.286 221.531 131.401 221.182 130.526L221.094 130.328C221 130.12 220.901 129.917 220.818 129.714C220.625 129.307 220.422 128.911 220.219 128.516C219.802 127.708 219.344 126.917 218.854 126.141C218.604 125.755 218.339 125.396 218.099 124.974C217.974 124.797 217.854 124.625 217.729 124.464L217.656 124.375C216.573 123.021 215.38 121.771 214.073 120.625C213.781 120.37 213.469 120.13 213.167 119.875L213.068 119.802L212.557 119.438C211.802 118.932 211.089 118.458 210.302 118.026C209.51 117.589 208.724 117.177 207.911 116.802L207.609 116.667L207.219 116.51C206.797 116.344 206.359 116.182 205.927 116.031C204.068 115.38 202.167 114.875 200.234 114.531C199.792 114.448 199.344 114.391 198.901 114.323H198.62L197.87 114.24C196.797 114.135 195.719 114.063 194.646 114.026C192.292 113.938 189.937 114 187.583 114.198C186.359 114.297 185.141 114.448 183.906 114.583C185.042 114.458 183.766 114.583 183.505 114.646L182.589 114.786C181.974 114.885 181.354 114.99 180.745 115.104C178.641 115.422 176.589 115.953 174.583 116.677L174.443 116.745L173.865 117.021C173.458 117.219 173.057 117.438 172.667 117.661C172.281 117.896 171.87 118.156 171.474 118.417L170.896 118.823L170.812 118.891C169.438 120.01 168.182 121.26 167.062 122.635C166.891 122.854 166.312 123.677 166.984 122.719C166.859 122.896 166.724 123.068 166.589 123.255C166.328 123.609 166.078 124 165.839 124.344C165.318 125.13 164.833 125.948 164.375 126.781C163.927 127.615 163.495 128.531 163.094 129.417L163.172 129.245L163.083 129.464C163.031 129.563 162.99 129.667 162.958 129.771L162.776 130.24C162.609 130.682 162.448 131.12 162.302 131.563C161.661 133.432 161.167 135.339 160.797 137.286C160.698 137.797 160.615 138.307 160.531 138.781C160.531 138.964 160.479 139.151 160.453 139.333C160.448 139.385 160.448 139.432 160.453 139.484C160.323 140.484 160.245 141.495 160.188 142.479C160.083 144.453 160.115 146.422 160.286 148.391C160.323 148.87 160.385 149.349 160.438 149.833C160.438 150.052 160.505 150.281 160.547 150.495C160.698 151.422 160.885 152.323 161.104 153.229C161.333 154.13 161.578 154.979 161.859 155.833C162.005 156.271 162.172 156.714 162.344 157.141L162.385 157.26C162.469 157.422 162.536 157.589 162.609 157.75C162.927 158.438 163.292 159.109 163.557 159.823L163.672 160.161C164.193 161.328 164.786 162.448 165.464 163.536C165.922 164.281 166.432 165.031 166.964 165.729L167.047 165.833L167.542 166.438C167.906 166.859 168.292 167.281 168.667 167.688C169.49 168.547 170.354 169.349 171.276 170.104L171.635 170.401L172.224 170.839C172.786 171.234 173.359 171.583 173.943 171.979C175.177 172.719 176.448 173.38 177.771 173.958L178.276 174.161C178.63 174.297 178.99 174.427 179.344 174.547C180.125 174.818 180.911 175.063 181.708 175.297C182.552 175.51 183.401 175.708 184.25 175.865C184.698 175.948 185.146 176.021 185.589 176.089C185.161 176.026 185.474 176.089 185.677 176.089H185.781L186.057 176.135L185.823 176.094L186.339 176.156C188.391 176.385 190.448 176.464 192.505 176.396C193.625 176.396 194.755 176.297 195.854 176.193C196.469 176.146 197.083 176.073 197.703 176H197.948L198.755 175.88C201.458 175.458 204.12 174.885 206.755 174.161C207.312 174.016 207.865 173.844 208.417 173.651L209.167 173.38L209.333 173.318C210.229 172.917 211.104 172.469 211.943 171.964C212.422 171.682 212.875 171.38 213.323 171.068C213.516 170.943 213.693 170.807 213.875 170.672L213.99 170.578C214.823 169.911 215.604 169.193 216.339 168.411C216.714 168.016 217.089 167.604 217.432 167.188C217.568 167.026 217.698 166.859 217.828 166.693L217.729 166.844C217.781 166.776 217.823 166.708 217.88 166.646C217.901 166.609 217.922 166.578 217.953 166.547C218.031 166.443 218.141 166.292 218.083 166.37C218.672 165.542 219.24 164.693 219.745 163.818C220.255 162.938 220.786 161.922 221.25 160.948C221.359 160.698 221.781 159.635 221.359 160.708L221.656 159.958C221.849 159.469 222.031 158.974 222.198 158.458C222.932 156.281 223.479 154.057 223.828 151.776C223.828 151.625 223.885 151.469 223.911 151.318C223.901 151.271 223.901 151.224 223.911 151.182C223.88 151.099 223.927 150.938 223.927 150.776ZM128.75 152.672C128.75 152.521 128.786 152.375 128.797 152.219C128.849 151.766 128.885 151.318 128.927 150.859C129 149.797 129.036 148.729 129.036 147.672C129.031 145.385 128.88 143.109 128.589 140.844C128.589 140.708 128.552 140.573 128.531 140.49C128.49 140.214 128.453 139.938 128.396 139.667C128.318 139.151 128.224 138.641 128.12 138.167C127.927 137.177 127.693 136.203 127.432 135.234C127.167 134.266 126.88 133.349 126.547 132.427C126.37 131.922 126.187 131.427 125.99 130.927C125.896 130.74 125.823 130.547 125.734 130.365C124.979 128.708 124.073 127.135 123.01 125.656L122.656 125.167C122.385 124.839 122.104 124.505 121.823 124.177C121.266 123.552 120.672 122.958 120.057 122.385C119.729 122.089 119.391 121.786 119.047 121.505L118.719 121.245L118.677 121.208C117.984 120.698 117.266 120.224 116.521 119.786C115.766 119.339 114.995 118.927 114.203 118.557L113.562 118.266L112.349 117.797C110.599 117.182 108.818 116.714 106.995 116.38C106.49 116.286 105.984 116.203 105.49 116.13C105.943 116.198 105.661 116.13 105.49 116.13H105.391L105.089 116.083L105.359 116.13L104.724 116.057C103.672 115.938 102.62 115.859 101.573 115.818C99.3802 115.714 97.1927 115.755 95.0104 115.938C94.4427 115.99 93.8854 116.063 93.3125 116.125C94.4687 116 93.4792 116.125 93.2083 116.125L92.5833 116.219C91.5469 116.401 90.526 116.609 89.5156 116.87C88.5 117.135 87.5417 117.411 86.5781 117.745C86.1042 117.901 85.6354 118.078 85.1667 118.266L84.474 118.542C85.5469 118.115 84.6458 118.474 84.4219 118.542C82.6667 119.328 80.9844 120.26 79.3906 121.333C78.9792 121.615 78.5677 121.906 78.1667 122.208L78.1042 122.25L77.6875 122.583C76.9375 123.188 76.25 123.813 75.5781 124.479C74.901 125.146 74.2604 125.828 73.6458 126.547L73.151 127.151L72.9375 127.427C72.6354 127.797 73.1823 127.115 73.1771 127.12C72.849 127.464 72.5677 127.849 72.3385 128.266C71.2708 129.792 70.349 131.406 69.5781 133.109C69.4479 133.37 69.3385 133.641 69.2292 133.906C69.6875 132.859 69.3073 133.703 69.2292 133.948C69.0677 134.359 68.9062 134.771 68.7656 135.182C68.625 135.599 68.5312 135.885 68.4219 136.24C68.4219 138.74 68.4219 141.229 68.4219 143.734C68.3594 148.042 68.3021 152.339 68.3177 156.635C68.5521 157.443 68.7969 158.234 69.0677 159.016L69.3646 159.771C69.3646 159.87 69.4948 160.089 69.5521 160.229C69.7187 160.589 69.8802 160.974 70.0521 161.307C70.9687 163.198 72.0521 164.984 73.3125 166.672L73.5937 167.047L73.4844 166.891L73.9219 167.432C74.2448 167.813 74.5677 168.177 74.901 168.547C75.6042 169.297 76.3437 170.052 77.1094 170.745C77.4896 171.099 77.8594 171.438 78.276 171.76L78.8594 172.229L78.9167 172.271C79.7187 172.885 80.5573 173.458 81.4219 173.984C82.2969 174.526 83.2083 175.031 84.1302 175.479C84.5573 175.688 84.9948 175.891 85.4323 176.089C85.3698 176.089 85.5156 176.146 85.6406 176.193L85.776 176.25L85.9687 176.328L85.849 176.276L86.3698 176.484C88.3177 177.24 90.3177 177.823 92.375 178.224C92.8125 178.307 93.25 178.375 93.6875 178.448L93.9219 178.49L94.2344 178.536H94.0625L94.7396 178.609C95.7812 178.708 96.8333 178.766 97.875 178.781C98.9219 178.797 100.062 178.781 101.146 178.677C101.687 178.63 102.229 178.573 102.776 178.51H102.937L103.766 178.385C105.479 178.083 107.167 177.672 108.823 177.156C109.297 177.005 109.771 176.839 110.24 176.656L110.995 176.354L111.474 176.146C113.245 175.328 114.932 174.375 116.542 173.276C116.984 172.979 117.411 172.667 117.839 172.354L118.078 172.161L118.714 171.625C119.698 170.786 120.63 169.891 121.51 168.938C121.969 168.438 122.417 167.911 122.839 167.38L122.891 167.333C122.828 167.396 122.781 167.464 122.734 167.526C122.844 167.417 122.937 167.302 123.01 167.167C123.13 167.026 123.073 167.089 123.01 167.167L123.062 167.109C123.266 166.828 123.469 166.552 123.661 166.271C124.505 165.031 125.255 163.745 125.917 162.396C126.099 162.021 126.281 161.646 126.458 161.255C126.464 161.219 126.474 161.198 126.495 161.167L126.63 160.823C126.943 160.031 127.219 159.234 127.474 158.411C128.005 156.677 128.401 154.906 128.667 153.115C128.667 153.115 128.667 153.078 128.667 153.063C128.667 153.047 128.667 153.203 128.667 153.313C128.667 153.214 128.667 153.115 128.703 153.016C128.75 152.917 128.703 152.943 128.703 152.911C128.75 152.703 128.76 152.583 128.75 152.672ZM245.354 174.927L245.448 174.818C245.76 174.448 245.453 174.786 245.354 174.927ZM279.917 128.583C277.672 116.714 274.661 104.938 271.281 93.3542C267.958 82.1094 263.984 70.9584 258.516 60.5209C253.125 50.2188 246.297 40.2813 237.49 32.5781C229.323 25.4948 219.365 21.3281 208.958 18.875C203.604 17.6771 198.203 16.8021 192.75 16.25C186.427 15.5417 180.13 14.5573 173.776 14.1771C167.771 13.8177 161.766 14.0208 156.021 15.7136C154.615 16.1354 153.245 16.6302 151.901 17.2188C150.094 17.9688 148.635 19.0781 146.646 18.349C146.891 18.4531 147.156 18.5677 146.927 18.4844C145.234 17.8386 143.505 17.2865 141.755 16.8177C140.167 16.4115 138.557 16.0729 136.938 15.7969L135.469 15.5677H135.432L134.776 15.4948C133.719 15.3646 132.672 15.2761 131.615 15.1979C129.214 15.0469 126.818 15.0261 124.417 15.1406C123.125 15.1979 121.823 15.3021 120.521 15.4479L119.406 15.5729H119.141C118.443 15.6771 117.75 15.7969 117.062 15.9115C114.094 16.4375 111.167 17.1615 108.302 18.0886C106.75 18.5886 105.214 19.1406 103.698 19.7552L102.995 20.0365H102.917L102.823 20.0781L101.755 20.5469C101.005 20.8906 100.26 21.2448 99.5104 21.6146C92.3698 25.1458 85.8906 29.6458 80.0885 35.1042C72.474 42.2344 65.8646 50.1927 60.2448 58.9792C53.1354 69.9011 47.1042 81.6042 41.3698 93.2709C31.5104 113.318 23.8906 134.5 23.4583 156.911C23.3646 162.786 23.651 168.641 24.3333 174.469C24.3802 174.922 24.4427 175.37 24.5 175.823V175.984C24.5 176.151 24.5469 176.307 24.5781 176.474L24.9635 178.719C26.151 185.63 27.1979 192.589 28.1146 199.583C29.3646 208.266 30.1667 216.984 30.5104 225.745C30.6302 230.083 30.6979 234.635 29.2812 238.786C27.8646 242.938 25.3489 246.438 22.8646 249.958C23.8594 250.177 24.8594 250.38 25.875 250.547C28.526 250.948 31.1979 251.198 33.8802 251.297C37.0521 251.422 40.2239 251.411 43.3906 251.297C49.3958 251.104 55.3333 250.604 61.2812 249.99C67.9167 249.307 74.4635 248.135 80.9219 246.474C84.4948 245.547 88.0469 244.516 91.5677 243.406C93.0104 242.958 94.4427 242.417 95.9062 241.995C95.5833 241.74 95.2812 241.49 94.974 241.245C86.276 233.844 79.5937 224.359 74.4635 214.224C71.7865 208.99 69.4479 203.609 67.4479 198.083C65.4948 192.5 64.1354 186.776 63.3698 180.917C62.3542 173.146 61.8594 165.339 61.8646 157.495C59.9427 150.354 59.9062 143.198 61.75 136.042C61.8021 135.786 61.8906 135.547 61.9583 135.292C61.9583 133.073 61.9583 130.865 62.0052 128.651C62.0052 127.906 62.0989 127.156 62.1719 126.406C62.4323 123.828 62.8489 121.281 63.4271 118.76C63.9948 116.24 64.724 113.76 65.6094 111.328C66.4896 108.901 67.5208 106.531 68.6979 104.224C69.8698 101.917 71.1927 99.6979 72.6406 97.5573C74.0937 95.4167 75.6823 93.3698 77.3854 91.4271C79.0937 89.4792 80.9115 87.6459 82.849 85.9271C84.7865 84.2084 86.8177 82.6146 88.9531 81.1459C91.0833 79.6823 93.3021 78.349 95.6042 77.1563C101.016 74.3438 106.823 72.2448 112.526 70.1042C117.536 68.2188 122.589 66.4479 127.703 64.8594C134.323 62.6667 141.083 61.0313 147.974 59.9375C151.365 59.4531 154.865 59.0209 158.297 59.4531C158.755 59.5 159.245 59.5625 159.74 59.6459C161.339 58.2292 163.146 57.1615 165.151 56.4479C167.167 55.7344 169.234 55.4219 171.37 55.5052C176.089 55.6094 180.63 57.1979 184.885 59.1875C189.323 61.3438 193.5 63.9271 197.401 66.9375C204.323 72.1823 211.182 78.1823 216.172 85.3334C217.99 87.9844 219.698 90.7031 221.292 93.4896C218.057 81.1094 211.354 65.6563 201.141 55.8334C188.63 43.7917 175.182 43.8386 158.141 43.8386H155.016C154.776 43.8125 154.573 43.7136 154.406 43.5365C154.245 43.3594 154.161 43.1406 154.161 42.9063C154.161 42.6563 154.245 42.4479 154.406 42.2709C154.573 42.0938 154.776 41.9896 155.016 41.9688H158.135C174.901 41.9323 189.391 41.8959 202.432 54.4584C213.911 65.5104 221.078 83.4271 223.953 96.5052C224.052 96.9479 223.896 97.2865 223.49 97.5C224.323 99.0781 225.104 100.677 225.865 102.297C229.698 110.495 232.599 119.01 234.557 127.854C234.943 129.651 235.307 131.479 235.62 133.318C239.687 130.797 244.448 129.354 248.786 132.026C253.25 134.771 255.089 140.333 255.88 145.219C256.771 151.167 256.802 157.109 255.964 163.063C255.323 168.099 254.24 173.339 251.318 177.604C249.792 179.938 247.812 181.797 245.385 183.188C243.448 184.245 241.385 184.932 239.193 185.245C239.005 186.979 238.75 188.724 238.443 190.438C237.786 194.219 236.87 197.943 235.698 201.599C234.109 206.578 232.083 211.37 229.615 215.979C228.943 217.224 228.229 218.448 227.495 219.667C227.51 220.229 227.396 220.771 227.161 221.286C224 228.536 220.344 235.536 216.177 242.276L215.432 243.495C216.302 243.406 217.172 243.339 218.026 243.271C222.646 242.901 227.281 242.859 231.906 242.823C241.062 242.74 250.26 242.823 259.38 241.875L261.068 241.688L261.693 241.604L262.005 241.557C263.026 241.411 264.047 241.25 265.068 241.063C266.969 240.714 268.844 240.255 270.682 239.688C271.531 239.422 272.365 239.115 273.193 238.797L273.74 238.547C274.135 238.365 274.49 238.172 274.891 237.969C275.578 237.599 276.245 237.188 276.885 236.74C277.031 236.651 277.156 236.547 277.292 236.448L277.083 236.599C277.141 236.557 277.198 236.516 277.245 236.464C277.542 236.214 277.823 235.969 278.094 235.714C278.365 235.458 278.604 235.167 278.849 234.885L278.771 234.995L278.875 234.849V234.885C279.104 234.547 279.104 234.557 279.031 234.672L279.068 234.62C279.255 234.339 279.438 234.057 279.604 233.766C279.698 233.594 279.974 232.953 279.979 232.969C280.208 232.365 280.401 231.745 280.568 231.12C280.656 230.755 280.729 230.365 280.797 230.01C280.839 229.807 280.865 229.599 280.906 229.396V229.563C280.906 229.505 280.906 229.458 280.906 229.406C281.115 225.766 280.969 222.13 280.469 218.521C279.953 213.651 279.479 208.776 279.432 203.875C279.401 197.188 279.99 190.552 281.188 183.969C281.193 183.74 281.219 183.51 281.26 183.286C282.448 177.516 283.109 171.688 283.245 165.807C283.682 153.323 282.234 140.844 279.917 128.583ZM24.5417 176.172C24.5417 176.411 24.5417 176.323 24.5417 176.172V176.172ZM209.844 87.5521C209.672 87.3334 209.234 86.8594 209.844 87.5521V87.5521ZM164.917 63.6719C164.839 63.7604 164.755 63.8386 164.667 63.9167C164.766 63.849 164.849 63.7656 164.917 63.6719ZM248.016 141.016V140.938V141.016ZM72.8437 110.589C72.8437 110.661 72.776 110.75 72.7396 110.823C72.8854 110.578 72.9167 110.443 72.8437 110.589ZM123.031 167.125L122.901 167.297C122.937 167.234 122.984 167.177 123.031 167.125ZM73.4167 166.88C73.0104 166.302 73.2812 166.719 73.4167 166.88V166.88ZM85.5417 176.188L85.7083 176.255H85.7812L85.3646 176.068L85.5417 176.188ZM128.729 152.859C128.734 152.797 128.734 152.734 128.729 152.672C128.729 152.719 128.729 152.823 128.729 153.01V152.859ZM105.385 116.073H105.292H105.427H105.385ZM93.8906 178.495H94.0312C93.8073 178.458 93.6875 178.438 93.6354 178.438L93.8906 178.495ZM217.839 166.677C217.88 166.615 217.922 166.557 217.958 166.51L218.042 166.401C218.042 166.438 217.932 166.542 217.792 166.724L217.839 166.677ZM157.417 161.792C157.521 162.12 157.505 162.036 157.417 161.792V161.792ZM223.849 140.5C223.849 140.5 223.849 140.453 223.849 140.438C223.849 140.422 223.849 140.438 223.849 140.385V140.318C223.786 140.078 223.724 139.786 223.849 140.5ZM185.635 176.135H185.792H185.557H185.635ZM163.115 129.417L163.062 129.526L162.979 129.755C162.979 129.714 163.047 129.589 163.125 129.375L163.115 129.417ZM152.833 207.193C152.578 207.708 152.714 207.453 152.833 207.193V207.193ZM160.245 204.729C159.568 209.089 157.635 213.255 154.021 215.891C150.823 218.234 146.646 218.505 142.885 217.615C141.974 217.37 141.083 217.047 140.224 216.635C133.88 213.714 131.5 205.984 131.635 199.521C131.781 192.932 134.177 185.516 139.896 181.734C140.849 181.146 141.87 180.688 142.943 180.38C144.016 180.057 145.115 179.885 146.24 179.859C147.365 179.844 148.469 179.969 149.562 180.245C150.651 180.516 151.682 180.927 152.656 181.479C160.651 185.865 161.474 196.797 160.245 204.729ZM138.286 197.552C138.286 197.552 138.328 197.292 138.349 197.094C138.307 197.245 138.286 197.396 138.286 197.552ZM154.146 199.797C154.172 198.547 154.13 197.302 154.021 196.052C154.021 195.87 154.021 195.693 153.958 195.516C153.958 195.479 153.958 195.438 153.958 195.396C153.958 195.25 153.917 195.083 153.901 195.016C153.823 194.521 153.724 194.026 153.609 193.521C153.411 192.667 153.161 191.833 152.854 191.016L152.583 190.474C152.422 190.167 152.25 189.865 152.068 189.573C151.979 189.438 151.896 189.323 151.802 189.193C151.802 189.24 151.474 188.74 151.297 188.557C151.089 188.323 150.865 188.104 150.63 187.896L150.422 187.714C150.062 187.464 149.698 187.229 149.318 187.016L148.844 186.839H148.755C148.396 186.708 148.031 186.604 147.661 186.526L147.417 186.479L146.859 186.438C146.536 186.438 146.208 186.438 145.88 186.438H145.677C145.182 186.542 144.698 186.677 144.224 186.844C144.115 186.906 143.995 186.964 143.88 187.026C143.641 187.161 143.401 187.307 143.135 187.464L142.932 187.604C142.729 187.776 142.526 187.948 142.328 188.135C142.13 188.323 141.875 188.599 141.667 188.839C141.583 188.932 141.505 189.021 141.432 189.12C141.073 189.609 140.74 190.12 140.438 190.656C140.193 191.073 139.99 191.5 139.786 191.932C139.786 191.88 139.516 192.552 139.432 192.792C139.339 193.031 139.193 193.49 139.078 193.839C138.87 194.521 138.698 195.214 138.552 195.901C138.474 196.271 138.406 196.651 138.349 197.021C138.349 197.042 138.349 197.068 138.349 197.094V197.276C138.177 198.74 138.146 200.219 138.245 201.698C138.245 202.031 138.302 202.37 138.339 202.708C138.339 202.823 138.339 202.932 138.391 203.042C138.521 203.76 138.688 204.464 138.891 205.167C138.995 205.505 139.099 205.839 139.229 206.177C139.229 206.276 139.302 206.38 139.339 206.479C139.589 207.036 139.875 207.578 140.193 208.099C140.349 208.349 140.516 208.589 140.688 208.849L140.943 209.13C141.161 209.38 141.396 209.615 141.635 209.833C141.766 209.953 142.01 210.135 142.156 210.24C142.542 210.505 142.943 210.74 143.354 210.953L143.432 210.99L143.672 211.073C143.984 211.188 144.312 211.281 144.635 211.354C145 211.448 145.391 211.51 145.714 211.568L146.208 211.609C146.594 211.63 146.984 211.63 147.375 211.609H147.755C148.089 211.547 148.427 211.474 148.745 211.38L149.198 211.234L149.042 211.313L149.219 211.224C149.422 211.146 149.719 210.984 149.615 211.021L150.005 210.818C150.146 210.729 150.417 210.526 150.573 210.406C150.984 210.047 151.365 209.651 151.729 209.24L151.776 209.172C151.891 209.016 151.979 208.854 152.078 208.698C152.302 208.349 152.495 208 152.672 207.63C152.781 207.432 152.859 207.229 152.958 207.026L152.844 207.266L152.943 207.031C153.094 206.62 153.24 206.208 153.354 205.792C153.479 205.37 153.62 204.792 153.729 204.286C153.786 204.026 153.833 203.755 153.885 203.5C153.885 203.401 153.953 203.068 153.964 202.932C153.964 202.792 153.964 202.635 154.021 202.5L154.089 201.688C154.099 201 154.135 200.396 154.146 199.797ZM149.198 211.146L149.599 210.948C149.547 210.948 149.417 211.031 149.177 211.156L149.198 211.146ZM212.766 136.323C216.302 142.875 215.401 150.844 212.766 155.016C209.635 159.974 202.5 164.646 191.323 164.646C189.109 164.641 186.901 164.469 184.708 164.141C172.818 162.375 167.307 152.896 168.01 144.505C168.234 141.958 168.964 139.573 170.203 137.333C171.443 135.099 173.083 133.214 175.12 131.672C179.755 128.089 186.224 126.266 193.849 126.417C194.974 126.417 196.005 126.521 197.005 126.641C197.208 126.063 197.391 125.484 197.557 124.891C197.74 124.13 197.969 123.38 198.234 122.646C198.349 122.245 198.547 121.901 198.833 121.609L199.307 121.245C199.88 120.917 200.479 120.833 201.115 121.005C201.719 121.188 202.182 121.542 202.505 122.078C202.839 122.646 202.917 123.245 202.74 123.88C202.422 124.714 202.224 125.589 201.99 126.443C201.885 126.823 201.75 127.193 201.63 127.568C202.901 127.953 204.115 128.448 205.286 129.068C206.167 127.828 206.917 126.505 207.859 125.318C208.312 124.854 208.865 124.625 209.51 124.641C209.823 124.641 210.12 124.693 210.406 124.813C210.693 124.932 210.948 125.099 211.161 125.318C211.385 125.536 211.552 125.792 211.672 126.073C211.786 126.365 211.849 126.656 211.849 126.969C211.859 127.286 211.786 127.583 211.651 127.87C211.573 128.068 211.469 128.255 211.328 128.411C210.854 129.068 210.443 129.755 210.01 130.432C209.719 130.875 209.411 131.302 209.104 131.729C210.583 133.052 211.802 134.583 212.766 136.323ZM208.323 138.714C205.828 134.089 200.812 131.578 193.792 131.443H193.036C179.13 131.443 173.568 138.661 173.052 144.938C172.385 152.964 178.781 158.172 185.453 159.177C198.078 161.057 205.635 156.875 208.505 152.349C210.052 149.865 211.083 143.823 208.323 138.714ZM192.625 137.531C186.531 137.135 180.568 143.526 185.406 150.458C188.755 155.276 196.448 151.964 196.448 151.964C203.38 147.313 200.219 138.026 192.625 137.531ZM123.245 144.505C123.948 152.927 118.443 162.375 106.552 164.141C104.333 164.474 102.104 164.646 99.8646 164.651C95.9948 164.693 92.2396 164.063 88.6042 162.74C86.5521 162.026 84.6615 161.005 82.9427 159.688C81.2187 158.37 79.7448 156.807 78.5208 155.016C75.875 150.844 74.974 142.875 78.5208 136.323C79.4687 134.563 80.6823 133.016 82.1719 131.672C81.8594 131.24 81.5573 130.813 81.2656 130.37C80.7969 129.62 80.3542 128.875 79.8177 128.177C79.6823 127.984 79.5781 127.76 79.5104 127.531C79.5104 127.323 79.4479 127.12 79.4323 126.911C79.4271 126.266 79.651 125.714 80.1146 125.26C80.5677 124.813 81.1198 124.583 81.7656 124.578C82.4115 124.578 82.9583 124.807 83.4167 125.26C84.3594 126.448 85.1094 127.776 85.9896 129.005C87.1615 128.385 88.3854 127.891 89.6458 127.505C89.5208 127.13 89.3854 126.755 89.2812 126.38C89.0417 125.531 88.8385 124.651 88.5312 123.818C88.349 123.188 88.4271 122.589 88.7656 122.021C88.9167 121.755 89.1198 121.521 89.3646 121.339C89.6094 121.146 89.8854 121.021 90.1875 120.938C90.4896 120.859 90.7917 120.839 91.099 120.885C91.4062 120.927 91.6927 121.031 91.9635 121.193C92.4896 121.516 92.8542 121.984 93.0312 122.583C93.3021 123.318 93.5312 124.068 93.7187 124.828C93.8854 125.427 94.0625 126 94.2656 126.578C95.2656 126.469 96.3125 126.38 97.4219 126.365C105.047 126.229 111.521 128.036 116.156 131.609C118.198 133.156 119.839 135.057 121.073 137.302C122.312 139.547 123.036 141.953 123.245 144.505ZM118.219 144.932C117.687 138.656 112.125 131.438 98.2344 131.438H97.4792C90.4635 131.573 85.4687 134.083 82.9427 138.708C80.1875 143.818 81.2083 149.849 82.7708 152.318C85.6406 156.818 93.1979 161.026 105.828 159.146C112.484 158.167 118.885 152.953 118.219 144.932ZM99.3437 137.432C91.7396 137.927 88.5885 147.214 95.5156 151.859C95.5156 151.859 103.203 155.177 106.562 150.354C111.401 143.396 105.427 137.021 99.3437 137.406V137.432Z" fill="black"/>
</svg>
