<svg width="320" height="299" viewBox="0 0 320 299" fill="none" xmlns="http://www.w3.org/2000/svg">
<path d="M296.37 275.276C287.614 295.333 232.818 296.5 208.198 283.255C208.198 283.255 211.911 270.714 221.354 251.208L93.4114 273.5C83.5155 280.437 73.5884 285.062 61.7187 286.99C41.2603 290.255 16.3072 288.172 3.04156 282.615C12.0884 276.115 13.2186 262.13 13.2499 253.302C13.328 228.365 6.63011 226.531 3.59365 195.734C-0.625102 152.578 14.1561 121.141 40.4426 77.3541C91.5416 -7.75004 150.177 21.875 150.177 21.875C166.672 14.0989 184.359 18.6354 201.771 21.1979C223.016 24.3177 242.198 30.2448 256.875 46.7656C275.234 67.4218 283.974 93.7656 290.088 120.135C296.661 148.448 301.224 182.437 295.516 215.167C289.802 247.896 282.245 263.38 296.37 275.276Z" fill="#DE4D86"/>
<path d="M240.354 168.422C259.651 154.5 263.906 173.479 260.25 193.182C258.354 203.375 254.422 217.74 238.995 216.563C238.995 216.563 226.724 287.318 142.844 286.391C120.714 286.156 92.2135 277.411 79.1979 263.99C66.4427 250.828 59.6927 234.589 54.6979 216.964C47.6094 192.052 53.6406 163.078 55.8021 138.13C55.8021 138.13 60.5885 97.9583 103.542 85.3646C159.479 68.974 168.745 76.375 168.745 76.375C184.87 60.5208 217.125 95.3073 224.349 108.422C241.411 139.417 240.354 168.422 240.354 168.422ZM258.052 123.729C273.495 120.135 279.109 110.708 276.974 100.635C328.182 90.8177 316.417 37.875 307.13 23.099C294.458 2.94792 267.104 -2.76562 244.792 4.00522C221.984 10.9271 207.625 32.8698 210.656 60.6458C213.339 85.5469 236.141 108.589 259.818 103.656C259.818 103.615 266.406 113.891 258.052 123.703V123.729Z" fill="#E6B48C"/>
<path d="M211.198 215.698C210.495 215 209.651 214.661 208.662 214.661C207.698 214.714 206.854 215.057 206.13 215.698L203.297 217.932L203.224 217.406C203.094 216.958 202.885 216.547 202.599 216.172C202.307 215.807 201.958 215.505 201.547 215.271C201.135 215.036 200.698 214.896 200.229 214.833C199.766 214.776 199.302 214.807 198.849 214.932C196.828 215.667 194.859 216.51 192.938 217.464C193.005 216.771 192.88 216.115 192.568 215.5C192.255 214.88 191.797 214.391 191.203 214.036C190.865 213.849 190.5 213.719 190.115 213.646C189.729 213.568 189.344 213.557 188.958 213.609C188.568 213.656 188.198 213.766 187.844 213.938C187.495 214.104 187.177 214.323 186.896 214.589C184.234 217.359 181.969 220.672 181.135 224.469C181.021 224.922 180.99 225.385 181.057 225.844C181.115 226.313 181.266 226.745 181.495 227.151C181.724 227.563 182.026 227.906 182.396 228.198C182.76 228.495 183.167 228.703 183.62 228.833C185.417 229.24 187.573 228.297 187.995 226.359L188.042 226.172C189.162 226.63 190.245 226.573 191.313 226.01C193.005 225.292 194.651 224.484 196.297 223.682L196.417 223.63L196.365 224.135C196.365 224.224 196.365 224.328 196.323 224.427C196.229 224.802 196.193 225.182 196.224 225.573C196.25 225.964 196.339 226.333 196.484 226.693C196.63 227.052 196.828 227.38 197.083 227.677C197.328 227.974 197.625 228.229 197.948 228.432C198.297 228.615 198.662 228.745 199.042 228.818C199.422 228.891 199.807 228.901 200.198 228.849C200.583 228.802 200.953 228.693 201.302 228.526C201.662 228.359 201.979 228.141 202.26 227.875C205.156 225.422 208.172 223.063 211.12 220.724C211.818 220.026 212.167 219.182 212.162 218.198C212.172 217.234 211.854 216.401 211.198 215.698ZM78.6927 217.891L78.6302 217.948L78.6927 217.891ZM99.974 212.24C100.208 212.646 100.354 213.083 100.411 213.547C100.474 214.016 100.448 214.474 100.328 214.927C100.208 215.38 100.005 215.797 99.7292 216.172C99.448 216.547 99.1042 216.859 98.7032 217.099C97.7344 217.646 96.7292 218.099 95.6771 218.448C95.4688 218.547 95.2552 218.656 95.0625 218.776C94.9167 218.948 94.5469 219.234 94.4584 219.323C94.1771 219.594 93.8646 219.818 93.5105 219.99C93.1563 220.161 92.7865 220.271 92.3959 220.318C92.0105 220.37 91.625 220.354 91.2396 220.281C90.8542 220.203 90.4948 220.073 90.1511 219.88C89.5052 219.526 89.0365 219.005 88.75 218.323C86.9792 219.255 85.1511 220.057 83.2605 220.708C82.6407 220.88 82.0261 220.88 81.4063 220.719C80.7865 220.557 80.25 220.25 79.7969 219.797C79.2448 219.255 78.9167 218.609 78.8177 217.839L78.7344 217.901V217.859L78.6823 217.911L78.6146 217.958C78.224 218.234 78.4532 218.125 78.6146 217.958C78.4219 218.161 78.1302 218.344 77.9375 218.526C77.599 218.849 77.2084 219.104 76.7709 219.281C76.3334 219.464 75.875 219.552 75.4011 219.552C74.9323 219.552 74.474 219.464 74.0365 219.281C73.599 219.104 73.2136 218.849 72.8698 218.526C72.5313 218.188 72.2761 217.802 72.0886 217.365C71.9115 216.922 71.8177 216.464 71.8177 215.995C71.8177 215.521 71.9115 215.063 72.0886 214.625C72.2761 214.182 72.5313 213.797 72.8698 213.464C74.1302 212.349 75.4792 211.359 76.9167 210.495C77.5677 210.083 78.2136 209.651 78.849 209.266C79.1719 209.052 79.4844 208.844 79.7969 208.615L80.0521 208.432L80.1407 208.354C80.4271 208.089 80.7448 207.875 81.099 207.714C81.4532 207.542 81.823 207.438 82.2084 207.391C82.5938 207.339 82.9792 207.349 83.3594 207.422C83.7396 207.49 84.1094 207.615 84.4532 207.797C84.7709 207.99 85.0625 208.229 85.3125 208.51C85.5625 208.792 85.7605 209.104 85.9167 209.453C86.0677 209.802 86.1615 210.156 86.198 210.536C86.2344 210.911 86.2188 211.281 86.1407 211.651C87.5 210.938 88.8386 210.208 90.2292 209.542C90.8542 209.198 91.5313 209.047 92.2448 209.094C92.9584 209.151 93.6042 209.391 94.1719 209.818C94.5677 210.12 94.8855 210.49 95.1198 210.927C95.5313 210.698 95.9688 210.557 96.4375 210.505C96.9011 210.448 97.3646 210.479 97.8125 210.604C98.2657 210.729 98.6823 210.932 99.0521 211.214C99.4323 211.495 99.7344 211.839 99.974 212.24ZM141.203 216.563C147.057 222.182 147.287 249.938 135.807 251.036C122.818 252.286 125.276 231.443 125.276 231.443C126.688 217.318 133.037 208.74 141.203 216.563Z" fill="#DE4D86"/>
<path d="M263.036 103.557H274.464V120.698H263.036V103.557Z" fill="white"/>
<path d="M315.417 55.9479C315.417 57.6302 315.333 59.3073 315.167 60.9844C314.995 62.6615 314.745 64.3229 314.411 65.9792C314.078 67.6302 313.661 69.2604 313.161 70.8698C312.661 72.4844 312.089 74.0677 311.432 75.625C310.776 77.1771 310.042 78.6979 309.234 80.1875C308.422 81.6719 307.542 83.1146 306.589 84.5156C305.635 85.9115 304.615 87.2656 303.526 88.5677C302.438 89.8698 301.286 91.1146 300.078 92.3073C298.865 93.4948 297.594 94.625 296.266 95.6927C294.943 96.7604 293.563 97.7656 292.141 98.6979C290.714 99.6354 289.24 100.5 287.729 101.297C286.219 102.089 284.667 102.807 283.083 103.453C281.5 104.094 279.885 104.661 278.245 105.151C276.599 105.641 274.938 106.047 273.255 106.38C271.573 106.708 269.88 106.953 268.172 107.12C266.464 107.281 264.755 107.365 263.036 107.365C261.323 107.365 259.609 107.281 257.901 107.12C256.198 106.953 254.5 106.708 252.818 106.38C251.135 106.047 249.474 105.641 247.833 105.151C246.193 104.661 244.578 104.094 242.995 103.453C241.406 102.807 239.859 102.089 238.344 101.297C236.833 100.5 235.365 99.6354 233.938 98.6979C232.51 97.7656 231.135 96.7604 229.807 95.6927C228.484 94.625 227.214 93.4948 226 92.3073C224.786 91.1146 223.635 89.8698 222.547 88.5677C221.458 87.2656 220.438 85.9115 219.484 84.5156C218.531 83.1146 217.651 81.6719 216.844 80.1875C216.036 78.6979 215.302 77.1771 214.646 75.625C213.99 74.0677 213.411 72.4844 212.911 70.8698C212.417 69.2604 212 67.6302 211.667 65.9792C211.328 64.3229 211.078 62.6615 210.911 60.9844C210.74 59.3073 210.656 57.6302 210.656 55.9479C210.656 54.2604 210.74 52.5834 210.911 50.9063C211.078 49.2292 211.328 47.5677 211.667 45.9115C212 44.2604 212.417 42.6302 212.911 41.0209C213.411 39.4063 213.99 37.8229 214.646 36.2656C215.302 34.7136 216.036 33.1927 216.844 31.7084C217.651 30.2188 218.531 28.7761 219.484 27.3802C220.438 25.9792 221.458 24.625 222.547 23.3229C223.635 22.0209 224.786 20.7761 226 19.5834C227.214 18.3959 228.484 17.2656 229.807 16.1979C231.135 15.1302 232.51 14.125 233.938 13.1927C235.365 12.2552 236.833 11.3906 238.344 10.599C239.859 9.8021 241.406 9.08335 242.995 8.43752C244.578 7.7969 246.193 7.22919 247.833 6.7396C249.474 6.25002 251.135 5.84377 252.818 5.51565C254.5 5.18231 256.198 4.93752 257.901 4.77085C259.609 4.6094 261.323 4.52606 263.036 4.52606C264.755 4.52606 266.464 4.6094 268.172 4.77085C269.88 4.93752 271.573 5.18231 273.255 5.51565C274.938 5.84377 276.599 6.25002 278.245 6.7396C279.885 7.22919 281.5 7.7969 283.083 8.43752C284.667 9.08335 286.219 9.8021 287.729 10.599C289.24 11.3906 290.714 12.2552 292.141 13.1927C293.563 14.125 294.943 15.1302 296.266 16.1979C297.594 17.2656 298.865 18.3959 300.078 19.5834C301.286 20.7761 302.438 22.0209 303.526 23.3229C304.615 24.625 305.635 25.9792 306.589 27.3802C307.542 28.7761 308.422 30.2188 309.234 31.7084C310.042 33.1927 310.776 34.7136 311.432 36.2656C312.089 37.8229 312.661 39.4063 313.161 41.0209C313.661 42.6302 314.078 44.2604 314.411 45.9115C314.745 47.5677 314.995 49.2292 315.167 50.9063C315.333 52.5834 315.417 54.2604 315.417 55.9479Z" fill="white"/>
<path d="M34.349 214.844C36.6771 235.083 38.8855 254.208 30.823 274.156C30.6407 274.583 30.323 274.797 29.8542 274.807C29.7188 274.807 29.5886 274.776 29.4584 274.724C29.1928 274.615 29.0053 274.427 28.8959 274.167C28.7813 273.901 28.7761 273.635 28.8855 273.37C36.7605 253.917 34.5886 235.047 32.2657 215.083C30.9323 203.484 29.5417 191.469 30.2709 179.276C30.2865 178.984 30.4063 178.75 30.6198 178.562C30.8386 178.365 31.0834 178.281 31.3698 178.297C31.6615 178.318 31.8959 178.432 32.0886 178.651C32.2813 178.865 32.3646 179.115 32.349 179.396C31.6198 191.432 33.0261 203.333 34.349 214.844ZM41.5469 197.422C41.5157 197.141 41.3855 196.906 41.1615 196.729C40.9375 196.542 40.6823 196.469 40.4011 196.505C40.1094 196.531 39.8803 196.661 39.698 196.885C39.5209 197.109 39.448 197.365 39.4792 197.651C40.1719 203.995 41.25 210.437 42.3073 216.651C44.2917 228.193 46.2657 240.094 45.823 252.01C45.6303 257.068 44.4792 266.531 42.5053 271.724C42.4063 271.99 42.4115 272.26 42.5313 272.526C42.6511 272.786 42.849 272.964 43.1198 273.062C43.2292 273.115 43.3542 273.135 43.4792 273.135C43.698 273.135 43.8959 273.073 44.073 272.948C44.2553 272.833 44.3803 272.667 44.4636 272.469C46.625 266.75 47.7188 256.927 47.9011 252.083C48.3542 239.995 46.3178 227.948 44.3594 216.312C43.3125 210.115 42.2292 203.714 41.5469 197.422ZM248.885 170.943L248.693 171.026L248.885 170.943ZM187.401 278.042L187.604 277.964L187.401 278.042ZM187.641 277.948H187.604H187.641ZM164.583 81.4583H164.339L164.823 81.5364L164.583 81.4583ZM249.662 213.411H249.594H249.662ZM246.823 215.026C246.662 215.026 246.714 215.026 246.823 215.026V215.026ZM112.568 193.443L112.766 193.302L112.432 193.552L112.568 193.443ZM114.974 137.13C115.297 137.406 115.167 137.286 114.974 137.13V137.13ZM69.5521 192.943C69.6146 193 69.6875 193.047 69.7709 193.104L69.4636 192.87L69.5521 192.943ZM59.0157 179.312V179.406L58.8594 179.031L59.0157 179.312ZM219.38 147.63L219.328 147.594C219.578 147.792 219.677 147.87 219.688 147.875L219.38 147.63ZM199.047 139.74H198.901H199.125H199.047ZM181.583 139.781H181.38L181.776 139.724L181.583 139.781ZM228.755 188.964C228.776 188.917 228.797 188.87 228.818 188.823C228.818 188.76 228.854 188.703 228.88 188.635C228.88 188.714 228.797 188.833 228.724 189.042C228.74 189.01 228.755 188.974 228.755 188.943V188.964ZM66.8178 162.443C66.9323 160.682 67.2448 158.953 67.7553 157.271C68.2605 155.578 68.9532 153.969 69.8334 152.437C70.7136 150.906 71.7553 149.495 72.9532 148.203C74.1563 146.906 75.4948 145.771 76.9584 144.781C83.2396 140.568 91.3646 139.578 99.25 142.052C107.26 144.583 113.162 150.172 115.016 157.036C116.755 163.464 114.891 170.156 109.755 175.943C109.797 176.318 109.755 176.693 109.641 177.047C108.245 181.089 104.474 184.49 99.3073 186.391C96.3073 187.49 93.2084 188.026 90.0157 188.016C85.2448 188.047 80.7917 186.875 76.6511 184.5C68.9323 179.984 66.1615 170.167 66.8178 162.443ZM79.1355 180.219C80.5209 180.995 81.974 181.62 83.5 182.089C85.0157 182.552 86.5678 182.844 88.1563 182.979C89.7448 183.109 91.3282 183.062 92.8959 182.854C94.474 182.641 96.0157 182.266 97.5053 181.719C98.5313 181.349 99.5105 180.88 100.448 180.323C97.5521 180.719 94.6719 180.625 91.8178 180.021C88.9532 179.427 86.2813 178.365 83.7917 176.844C80.6094 174.734 73.8542 168.703 78.9271 157.531C81.0886 152.771 86.7969 149.849 92.8073 150.427C98.2865 150.953 102.391 154.255 103.521 159.036C103.833 160.51 103.823 161.984 103.5 163.458C103.167 164.932 102.547 166.266 101.63 167.464C100.953 168.464 100.099 169.271 99.0625 169.891C98.0313 170.51 96.9167 170.88 95.7136 171.01C91.099 171.292 88.1146 168.38 87.474 165.344C86.9896 162.932 87.948 159.589 92.2396 158.12C92.5313 158.078 92.823 158.083 93.1146 158.135C93.4115 158.198 93.6875 158.302 93.9375 158.453C94.198 158.609 94.4167 158.802 94.6042 159.031C94.7917 159.26 94.9375 159.521 95.0313 159.797C95.1303 160.078 95.1771 160.375 95.1719 160.672C95.1667 160.969 95.1042 161.255 95 161.531C94.8907 161.812 94.7396 162.062 94.5469 162.286C94.349 162.51 94.1198 162.693 93.8594 162.839C93.224 163.047 92.1667 163.536 92.3646 164.37C92.5573 165.208 93.5625 166.151 95.4011 166.057C96.3438 165.854 97.073 165.339 97.5886 164.526C98.0678 163.911 98.3959 163.229 98.5782 162.474C98.7553 161.724 98.7813 160.969 98.6355 160.203C97.6928 156.229 93.573 155.526 92.3021 155.406C88.9844 155.083 84.875 156.432 83.4323 159.625C80.9011 165.266 81.9063 169.661 86.5 172.687C92.7605 176.792 102.635 176.297 105.724 172.917C109.87 168.37 111.432 163.208 110.125 158.375C108.714 153.156 104.063 148.839 97.6771 146.833C95.3907 146.109 93.0417 145.745 90.6407 145.74C88.6928 145.714 86.7761 145.979 84.9063 146.526C83.0365 147.078 81.2865 147.885 79.6615 148.958C78.5157 149.74 77.4688 150.641 76.5261 151.667C75.5886 152.687 74.7761 153.802 74.0886 155.01C73.4063 156.224 72.8646 157.495 72.474 158.823C72.0782 160.151 71.8438 161.51 71.7605 162.896C71.0678 171.432 74.9532 177.745 79.1355 180.219ZM219.354 166.198C221.094 172.615 219.229 179.307 214.089 185.094C214.135 185.469 214.094 185.833 213.974 186.198C212.583 190.234 208.813 193.641 203.646 195.552C200.641 196.635 197.542 197.177 194.354 197.167C189.583 197.198 185.13 196.026 180.99 193.651C173.328 189.135 170.557 179.312 171.214 171.599C171.323 169.839 171.625 168.109 172.13 166.411C172.635 164.724 173.323 163.104 174.203 161.573C175.073 160.036 176.115 158.625 177.318 157.323C178.516 156.031 179.844 154.885 181.307 153.891C187.594 149.677 195.719 148.687 203.599 151.161C211.542 153.703 217.453 159.312 219.328 166.187L219.354 166.198ZM214.542 167.495C213.13 162.271 208.464 157.953 202.089 155.953C199.802 155.224 197.453 154.859 195.052 154.854C193.104 154.828 191.193 155.099 189.318 155.641C187.448 156.193 185.698 157 184.073 158.073C182.927 158.854 181.88 159.76 180.943 160.781C180 161.807 179.188 162.917 178.5 164.125C177.818 165.339 177.281 166.609 176.885 167.937C176.49 169.271 176.255 170.63 176.177 172.016C175.448 180.578 179.333 186.896 183.516 189.359C184.901 190.146 186.359 190.771 187.88 191.234C189.401 191.703 190.958 192.005 192.547 192.135C194.135 192.26 195.719 192.224 197.302 192.01C198.875 191.797 200.417 191.417 201.912 190.87C202.938 190.5 203.922 190.036 204.859 189.474C201.958 189.875 199.078 189.766 196.208 189.161C193.344 188.557 190.662 187.495 188.167 185.958C185.021 183.885 178.229 177.865 183.302 166.682C185.464 161.922 191.177 159 197.193 159.583C202.662 160.104 206.771 163.406 207.901 168.182C208.214 169.661 208.208 171.135 207.875 172.609C207.542 174.083 206.922 175.417 206.01 176.615C205.328 177.615 204.479 178.422 203.448 179.042C202.412 179.661 201.292 180.031 200.099 180.156C195.464 180.443 192.448 177.526 191.854 174.505C191.37 172.083 192.323 168.74 196.615 167.271C196.906 167.229 197.208 167.234 197.5 167.286C197.792 167.349 198.063 167.453 198.318 167.604C198.573 167.76 198.797 167.953 198.984 168.182C199.172 168.411 199.313 168.672 199.412 168.948C199.505 169.229 199.552 169.526 199.547 169.823C199.542 170.12 199.49 170.406 199.38 170.682C199.271 170.964 199.12 171.208 198.922 171.437C198.729 171.661 198.5 171.844 198.24 171.99C197.604 172.198 196.547 172.687 196.745 173.521C196.938 174.359 197.943 175.292 199.787 175.208C200.724 174.995 201.453 174.479 201.974 173.667C202.443 173.052 202.771 172.37 202.953 171.615C203.141 170.87 203.156 170.109 203.021 169.349C202.073 165.37 197.948 164.667 196.688 164.547C193.37 164.229 189.26 165.573 187.813 168.766C185.281 174.406 186.281 178.802 190.88 181.828C197.141 185.932 207.01 185.448 210.109 182.057C214.26 177.479 215.823 172.318 214.516 167.484L214.542 167.495ZM144.333 217.187C148.891 221.547 151.182 236.276 147.37 247.234C145.328 253.135 141.677 256.562 137.083 257C136.625 257.052 136.172 257.068 135.714 257.068C134.208 257.104 132.76 256.844 131.365 256.276C129.969 255.708 128.745 254.891 127.688 253.823C121.719 247.74 122.984 235.339 123.151 233.943C124.229 223.177 127.927 215.844 133.287 213.875C135.766 212.937 139.745 212.771 144.313 217.182L144.333 217.187ZM142.854 231.172C142.396 226.052 141.104 222.74 140.021 221.682C138.938 220.63 137.484 219.583 136.198 219.583C135.932 219.578 135.682 219.625 135.438 219.719C133.135 220.562 130.26 225.62 129.349 234.615C129.021 237.443 128.854 246.125 132.151 249.469C132.823 250.156 134.01 251.047 136.484 250.802C138.958 250.557 140.583 247.604 141.432 245.151C142.839 240.583 143.297 235.917 142.828 231.161L142.854 231.172ZM119.198 44.1927C100.287 53.7864 83.599 68.1979 69.6355 86.9948C65.2136 92.8958 60.3386 98.8802 55.6615 104.635C45.0782 117.536 34.1563 130.885 26.7396 145.719C16.4584 166.198 18.4584 186.297 20.5834 207.573C21.1303 213.062 21.6928 218.745 22.0417 224.443C22.1615 226.365 22.3282 228.536 22.5209 230.844C23.5886 244.057 25.2136 264.026 17.8021 272.953C17.6198 273.177 17.5417 273.432 17.573 273.719C17.599 274 17.7188 274.24 17.9375 274.422C18.1563 274.604 18.4167 274.682 18.7032 274.656C18.9844 274.625 19.224 274.5 19.4063 274.276C27.349 264.703 25.7553 245.031 24.5938 230.677C24.4063 228.38 24.2292 226.219 24.1198 224.318C23.7709 218.578 23.198 212.88 22.6511 207.365C20.5625 186.401 18.5886 166.599 28.5625 146.646C35.9115 132.005 46.7344 118.76 57.1875 105.943C61.9011 100.167 66.7761 94.2031 71.2292 88.2344C85.0417 69.6771 101.484 55.4948 120.109 46.0677C120.375 45.9375 120.547 45.7344 120.635 45.4635C120.729 45.1875 120.708 44.9219 120.578 44.6614C120.443 44.4062 120.24 44.2344 119.964 44.1458C119.688 44.0573 119.422 44.0833 119.167 44.2187L119.198 44.1927ZM312.229 65.8021C312.229 65.8021 312.229 65.8021 312.229 65.75C312.229 65.5885 312.271 65.4271 312.287 65.2708C312.297 65.2708 312.276 65.4114 312.229 65.8021ZM232.495 17.5052L232.448 17.5417H232.401C232.318 17.6042 232.255 17.6719 232.177 17.7344L232.547 17.4271L232.495 17.5052ZM318.656 70.1354C317.87 74.3906 316.5 78.4531 314.537 82.3125C312.563 86.1614 310.089 89.6666 307.104 92.8021C302.12 97.776 296.313 101.458 289.682 103.849C294.698 120.74 298.302 137.917 300.505 155.391C303.224 176.474 303.505 197.937 299.88 218.948C298.771 225.281 297.469 231.604 296.162 237.865C295.245 242.26 294.313 246.656 293.625 251.089C293.537 251.651 293.453 252.219 293.37 252.776C293.365 252.823 293.365 252.875 293.37 252.917C293.37 253.167 293.302 253.401 293.276 253.641C293.167 254.531 293.073 255.422 292.995 256.318C292.859 257.974 292.813 259.63 292.859 261.286C292.859 262.13 292.964 262.901 293.037 263.719C293.037 263.885 293.083 264.042 293.109 264.203C293.167 264.536 293.229 264.875 293.313 265.214C293.469 265.958 293.662 266.687 293.901 267.406C294.021 267.771 294.162 268.115 294.276 268.474V268.557L294.391 268.776C294.729 269.458 295.078 270.125 295.474 270.771C295.656 271.062 295.844 271.354 296.037 271.615C296.135 271.75 296.245 271.891 296.339 272.036C297.385 273.312 298.542 274.484 299.802 275.552C301.078 276.641 300.958 278.495 300.365 279.854C297.953 285.245 292.828 289.089 287.63 291.578C275.313 297.479 260.797 298.729 247.313 298.255C233.833 297.781 219.438 295.557 207.323 289.109C206.995 288.906 206.693 288.656 206.443 288.365C206.182 288.068 205.979 287.74 205.839 287.375C205.688 287.016 205.599 286.641 205.573 286.25C205.547 285.859 205.589 285.479 205.688 285.099C206.912 280.995 208.354 276.937 209.912 272.927C205.068 276.656 199.891 279.849 194.38 282.49C186.031 286.458 177.302 289.224 168.193 290.797C157.26 292.776 146.26 293.266 135.198 292.255C123.146 291.125 111.521 288.25 100.339 283.63C98.1823 282.74 96.0625 281.771 93.9844 280.74C92.7396 281.578 91.4792 282.385 90.198 283.151C87.2969 284.906 84.2917 286.474 81.1875 287.849C68.1198 293.583 53.7396 295.057 39.573 294.854C32.7761 294.792 26.0209 294.245 19.3021 293.219C13.7188 292.432 8.29692 291 3.04171 288.937C0.130252 287.729 -0.406207 284.375 2.20317 282.453C1.98963 282.604 2.69275 282.047 2.83338 281.922C3.12504 281.667 3.40109 281.406 3.67713 281.141C4.10942 280.708 4.79692 279.937 5.02088 279.646C5.90629 278.432 6.67192 277.141 7.31254 275.781C7.91671 274.453 8.41671 273.089 8.81254 271.687C9.27609 270.057 9.64588 268.417 9.91671 266.75C10.1563 265.38 10.3282 264.005 10.4219 262.625C10.5417 261.115 10.625 259.599 10.6563 258.073C10.7344 254.745 10.6563 251.391 10.4375 248.062C10.3334 246.604 10.1928 245.135 10.0157 243.682C10.0157 243.526 9.974 243.37 9.95317 243.214V243.172C9.90629 242.802 9.85421 242.437 9.79692 242.078C9.69275 241.469 9.59379 240.859 9.48442 240.25C8.64067 235.422 7.18754 230.714 5.9115 225.984C4.20838 219.708 2.91671 213.349 2.02088 206.906C-0.203082 190.687 -0.286416 174.417 2.86463 158.302C5.88025 142.766 11.7553 127.943 18.724 113.776C22.6407 105.823 26.9167 98.0625 31.3438 90.401C36.0313 82.2864 40.7605 74.1823 46.125 66.5C54.7032 54.2083 64.7084 42.8854 76.6667 33.8542C85.2969 27.2135 94.8334 22.3281 105.271 19.1979C113.125 16.8958 121.146 15.9167 129.328 16.2656C135.073 16.5 140.703 17.4375 146.219 19.0729C147.896 19.5781 149.542 20.1614 151.162 20.8333C153.063 20.0156 155.005 19.3229 156.99 18.7604C167.078 15.9531 177.578 16.7031 187.807 18.1354C192.875 18.8437 197.849 19.7344 202.875 20.4948C207.234 21.1458 211.578 21.875 215.88 22.8281L217.5 23.2031C218.464 21.7917 219.505 20.4062 220.625 19.0833C228.438 9.86978 239.417 4.10415 251.135 1.84373C257.49 0.572902 263.88 0.249984 270.323 0.874984C276.766 1.49998 282.984 3.04165 288.964 5.5104C298.823 9.72915 307.771 17.1302 312.62 26.776C315.531 32.7187 317.526 38.9479 318.599 45.4739C320.135 53.6875 320.162 61.9114 318.677 70.1354H318.656ZM209.354 264.37C211.854 262.187 214.214 259.865 216.443 257.406C217.505 256.224 218.537 255.021 219.531 253.786C219.787 253.474 220.037 253.167 220.287 252.844L220.458 252.625C220.917 252.016 221.37 251.422 221.813 250.802C223.5 248.51 225.057 246.141 226.484 243.682C227.792 241.479 229.005 239.224 230.125 236.937C230.635 235.88 231.13 234.818 231.604 233.734L231.958 232.932C232.162 232.443 232.365 231.953 232.557 231.464C233.776 228.411 234.813 225.297 235.672 222.12C235.995 220.932 236.307 219.734 236.521 218.521C236.62 218.146 236.781 217.802 237 217.479C237.219 217.156 237.484 216.87 237.792 216.641C238.104 216.401 238.438 216.224 238.813 216.099C239.177 215.974 239.563 215.917 239.948 215.917C240.87 215.984 241.792 216 242.719 215.958C243.115 215.969 243.505 215.943 243.891 215.875H244.047L244.542 215.781C245.271 215.63 245.979 215.427 246.677 215.182C246.849 215.12 247.422 215.062 246.927 215.109H246.823C246.896 215.094 246.969 215.068 247.037 215.036C247.349 214.891 247.662 214.745 247.964 214.578C248.13 214.484 249.297 213.651 249.604 213.505C249.453 213.594 249.172 213.891 249.662 213.505L249.917 213.286C250.172 213.062 250.417 212.833 250.651 212.609C251.125 212.135 251.563 211.63 251.99 211.125L252.255 210.771C252.448 210.495 252.635 210.208 252.813 209.927C253.49 208.87 254.078 207.76 254.594 206.615C254.667 206.479 254.724 206.333 254.781 206.193V206.135C254.875 205.896 254.984 205.583 255 205.547C255.219 204.979 255.422 204.396 255.615 203.802C256.365 201.49 256.969 199.135 257.432 196.745C257.708 195.339 257.964 193.922 258.177 192.531L258.276 191.87C258.276 191.531 258.365 191.193 258.406 190.844C258.49 190.068 258.563 189.281 258.625 188.51C258.87 185.562 258.854 182.615 258.583 179.672C258.583 179.469 258.537 179.26 258.516 179.057C258.438 178.38 258.516 179.214 258.516 179.266C258.521 178.937 258.464 178.62 258.365 178.312C258.25 177.708 258.135 177.109 257.995 176.505C257.849 175.906 257.672 175.312 257.479 174.719L257.224 174.036C257.224 174.01 257.224 173.99 257.224 173.964C256.969 173.479 256.745 172.979 256.458 172.521C256.339 172.318 256.193 172.12 256.063 171.922C255.75 171.583 255.432 171.281 255.099 170.969C254.917 170.859 254.729 170.729 254.537 170.63C254.375 170.63 254.104 170.453 254.005 170.427C253.901 170.401 253.573 170.318 253.359 170.266C252.818 170.266 252.297 170.266 251.76 170.266H251.677L250.932 170.427C250.234 170.609 249.552 170.828 248.875 171.089L249.005 171.026L248.839 171.099L248.609 171.203L247.625 171.677C246.047 172.51 244.542 173.453 243.099 174.505C241.531 175.63 239.427 174.87 238.385 173.422C238.385 174.266 238.385 175.109 238.385 175.953C238.385 181.182 237.443 186.25 235.563 191.13C233.714 195.917 230.865 200.016 227.016 203.417C222.781 206.974 217.974 209.401 212.599 210.703C209.74 211.411 206.865 212 203.958 212.437C194.766 213.807 184.969 213.906 176.214 210.385C172.833 209.042 169.714 207.234 166.865 204.969C164.662 203.177 162.729 201.141 161.057 198.844C158.823 195.87 157.167 192.599 156.089 189.042C155.797 188.078 155.495 187.177 155.172 186.224C153.839 182.109 153.156 177.896 153.12 173.573C146.078 173.286 139.042 172.729 132.005 172.167C131.51 175.969 130.537 179.641 129.094 183.198C127.51 187.021 125.391 190.516 122.74 193.698C118.875 198.151 114.224 201.531 108.787 203.828C106.078 205.068 103.26 205.969 100.339 206.531C95.8386 207.396 91.3125 207.594 86.75 207.135C81.3803 206.531 76.2865 205.005 71.474 202.547C68.3125 200.906 65.4063 198.885 62.7657 196.484C60.125 194.089 57.8386 191.391 55.9063 188.401C55.9063 189.318 55.8438 190.245 55.8386 191.161C55.8386 194.458 55.8386 197.771 56.0938 201.057C56.198 202.745 56.349 204.401 56.5313 206.021L56.6823 207.307C56.6823 207.354 56.6823 207.557 56.6823 207.641L56.7344 207.995C56.8438 208.786 56.974 209.568 57.0938 210.349C58.2657 216.604 59.9271 222.729 62.0782 228.719C63.0625 231.583 64.1303 234.422 65.2917 237.24C65.2917 237.333 65.349 237.385 65.3594 237.422V237.495L65.5625 237.964L65.9636 238.901L66.9584 240.937C67.6042 242.318 68.2709 243.693 68.9792 245.042C70.3594 247.703 71.8542 250.297 73.4844 252.807C74.3178 254.094 75.1928 255.354 76.0938 256.599L76.9428 257.693L77.3021 258.156C77.7344 258.714 78.1459 259.26 78.625 259.844C80.3907 262.016 82.2917 264.057 84.3334 265.974C85.1771 266.776 86.125 267.51 87.0365 268.26L87.3646 268.505L88.0313 268.984C88.5209 269.339 89.0105 269.687 89.5157 270.026C91.6928 271.479 93.9428 272.818 96.2761 274.026C97.448 274.641 98.6303 275.224 99.8386 275.781C100.495 276.083 101.156 276.385 101.823 276.672L102.396 276.927L102.526 276.979L103.151 277.24C108.521 279.417 114.031 281.182 119.662 282.536C122.521 283.224 125.391 283.818 128.287 284.307L130.516 284.661L131.474 284.802H131.573L131.953 284.859C133.302 285.031 134.667 285.187 136.026 285.302C141.51 285.781 146.995 285.854 152.49 285.536C155.13 285.401 157.766 285.187 160.396 284.896L162.542 284.63L163.5 284.49C164.724 284.307 165.938 284.104 167.141 283.885C171.662 283.057 176.104 281.932 180.474 280.51C182.474 279.865 184.469 279.146 186.427 278.354L187.276 278H187.349H187.281C187.75 277.833 188.208 277.635 188.651 277.406C189.578 276.99 190.5 276.562 191.412 276.12C194.87 274.458 198.203 272.568 201.406 270.448C202.891 269.464 204.333 268.422 205.76 267.339L205.854 267.271L206.323 266.901L207.318 266.099C208.031 265.51 208.693 264.953 209.354 264.37ZM64.0834 128.187C63.5782 129.427 63.1146 130.677 62.6719 131.932C62.4688 132.536 62.2761 133.146 62.0782 133.75C64.4219 131.552 67.0053 129.682 69.8282 128.146C74.0469 125.865 78.5209 124.365 83.2553 123.646C88.6719 122.87 94.0834 122.896 99.4896 123.729C108.318 124.984 117.234 128.458 123.281 135.203C129.802 142.464 132.281 152.073 132.568 161.635C132.568 162.729 132.568 163.812 132.568 164.911C139.531 165.437 146.5 166.016 153.474 166.297C153.88 162.573 154.724 158.948 156.005 155.432C157.292 151.917 158.984 148.604 161.083 145.5C163.776 141.5 167.203 138.286 171.37 135.854C173.417 134.703 175.583 133.844 177.859 133.271C180.677 132.667 183.526 132.318 186.401 132.229C197.063 131.609 208.12 133.172 217.656 138.13C219.833 139.25 221.885 140.573 223.802 142.094C225.724 143.615 227.484 145.307 229.078 147.167C230.667 149.026 232.068 151.021 233.271 153.146C234.474 155.281 235.464 157.505 236.24 159.828C236.792 161.521 237.224 163.245 237.542 164.995C237.396 162.802 237.182 160.615 236.917 158.427C236.917 158.115 236.839 157.812 236.807 157.505C236.74 157.021 236.672 156.521 236.594 156.031C236.453 155.083 236.297 154.125 236.13 153.172C235.714 150.797 235.234 148.432 234.698 146.073C232.078 134.479 227.906 123.474 222.177 113.057C221.208 111.339 220.135 109.677 218.974 108.078C218.646 107.63 218.307 107.161 217.958 106.708L217.453 106.005L217.354 105.885C216.563 104.875 215.745 103.88 214.917 102.896C211.568 98.9114 207.953 95.1719 204.089 91.6719C203.115 90.8281 202.104 89.9271 201.094 89.0833C200.583 88.6666 200.068 88.2396 199.557 87.8437L199.047 87.4479L198.537 87.0573C196.484 85.5052 194.339 84.0885 192.109 82.7917C191.083 82.1927 190.021 81.625 188.938 81.1042C188.651 80.9635 188.349 80.8281 188.047 80.6927L187.807 80.5833C187.318 80.4323 186.833 80.1875 186.344 80.0208C185.328 79.651 184.297 79.3437 183.245 79.0989C182.724 78.9792 182.198 78.8906 181.667 78.7917L180.99 78.7239C180.021 78.6562 179.052 78.6562 178.083 78.7239H178.005L177.318 78.8646C176.885 78.9635 176.458 79.0833 176.042 79.2239C175.828 79.2917 175.583 79.4271 175.359 79.4792H175.323C174.912 79.6719 174.51 79.8906 174.12 80.1302C173.88 80.2708 173.656 80.4219 173.427 80.5833H173.375C173.26 80.8698 172.448 81.375 172.224 81.5937C171.943 81.8698 171.625 82.0885 171.276 82.2552C170.917 82.4271 170.547 82.5312 170.156 82.5729C169.771 82.6198 169.385 82.5989 169 82.5156C168.62 82.4271 168.26 82.2812 167.932 82.0781H167.87L167.62 82.1406C167.969 82.4219 167.776 82.276 167.427 82.0677H167.37C166.984 81.9323 166.594 81.8177 166.188 81.7292C165.724 81.6198 165.26 81.5364 164.787 81.4583C165.135 81.5104 164.729 81.4583 164.448 81.3958L164.037 81.3333L164.307 81.3854L163.208 81.276C158.083 80.9739 152.979 81.1979 147.901 81.9479L147.182 82.0417L145.833 82.2344C144.818 82.3802 143.813 82.5364 142.797 82.7083C140.583 83.0729 138.38 83.4739 136.188 83.9114C130.719 84.9948 125.307 86.2656 119.917 87.6458C113.557 89.2812 107.104 90.8854 100.917 93.1146C100.302 93.3281 99.6928 93.5677 99.0782 93.8073L98.1042 94.1823L97.7084 94.3541C96.5678 94.8437 95.4375 95.3594 94.3334 95.9062C92.1146 96.9896 89.9688 98.1927 87.8907 99.5156C86.9428 100.12 86.0053 100.745 85.0834 101.406L83.6459 102.458L83.5053 102.562L82.9167 103.021C81.2292 104.385 79.6198 105.828 78.0782 107.354C76.6511 108.771 75.2969 110.245 74 111.776C73.6719 112.161 73.3386 112.557 73.0261 112.964L72.5938 113.495C72.0365 114.255 71.4688 115.026 70.9115 115.797C68.9428 118.635 67.1928 121.599 65.6823 124.693C65.3386 125.396 65 126.104 64.6823 126.823C64.5313 127.161 64.3855 127.495 64.2448 127.833C64.1719 127.932 64.125 128.078 64.0834 128.187ZM167.135 81.7448L167.479 82.0156L167.62 82.0833C167.474 81.9739 167.307 81.875 167.151 81.7448H167.135ZM231.094 179.229C231.208 177.99 231.26 176.703 231.281 175.495C231.297 174.292 231.281 172.906 231.188 171.615C231.188 170.896 231.094 170.193 231.031 169.484L230.969 168.495C230.969 168.401 230.969 168.224 230.912 168.068C230.583 165.865 230.078 163.708 229.385 161.589C229.203 161.026 229 160.469 228.781 159.901C228.672 159.641 228.245 158.672 228.781 159.854C228.677 159.609 228.568 159.359 228.458 159.12C228 158.104 227.495 157.12 226.932 156.156C226.391 155.24 225.802 154.339 225.177 153.479C225.01 153.24 224.828 153.016 224.662 152.786C225.412 153.807 224.828 153.016 224.662 152.786C224.339 152.38 224 151.984 223.656 151.594C222.927 150.75 222.162 150.01 221.354 149.281C220.938 148.891 220.516 148.51 220.057 148.141L219.724 147.87L219.422 147.625L219.208 147.453L219.375 147.583C217.63 146.281 215.792 145.141 213.859 144.151C213.328 143.88 212.787 143.62 212.234 143.365L211.469 143.031H211.396C210.339 142.589 209.245 142.187 208.151 141.839C205.839 141.083 203.479 140.5 201.083 140.078L199.125 139.74C199.495 139.802 199.271 139.74 199.047 139.74L198.682 139.687H198.922L198 139.589C196.75 139.443 195.464 139.349 194.25 139.286C191.51 139.151 188.776 139.172 186.042 139.344C184.646 139.432 183.26 139.557 181.885 139.724H181.807L182.052 139.682L181.75 139.724H181.412L180.99 139.802C180.49 139.891 179.995 140 179.505 140.13C178.594 140.37 177.708 140.667 176.833 141.01L176.427 141.177L175.771 141.5C175.339 141.729 174.927 141.958 174.484 142.214C173.75 142.651 173.042 143.13 172.354 143.646C172.224 143.745 172.057 143.865 171.974 143.937L171.406 144.417C171.037 144.74 170.682 145.078 170.328 145.427C169.583 146.161 168.875 146.932 168.208 147.74C168.005 147.995 167.365 148.896 168.109 147.849L167.656 148.458C167.37 148.849 167.094 149.245 166.818 149.651C165.625 151.453 164.599 153.333 163.724 155.307C163.682 155.396 163.646 155.484 163.604 155.578L163.354 156.208C163.162 156.703 162.974 157.203 162.792 157.698C162.448 158.708 162.13 159.724 161.849 160.755C161.568 161.781 161.292 162.937 161.073 164.042C160.953 164.62 160.854 165.198 160.76 165.781L160.63 166.573C160.365 168.734 160.245 170.901 160.266 173.073C160.266 174.172 160.339 175.26 160.438 176.349C160.479 176.844 160.542 177.333 160.599 177.823C160.599 177.891 160.599 177.948 160.599 177.99C160.599 178.245 160.672 178.49 160.714 178.745C161.057 180.734 161.563 182.677 162.234 184.578C162.422 185.01 162.578 185.458 162.708 185.911C162.932 186.797 163.214 187.667 163.557 188.521C163.604 188.656 163.667 188.802 163.714 188.943C163.849 189.234 163.979 189.531 164.109 189.781C164.5 190.625 164.953 191.411 165.396 192.193C165.943 193.109 166.537 194.005 167.177 194.859V194.906C167.344 195.13 167.526 195.339 167.703 195.552C168.089 196 168.484 196.453 168.901 196.88C169.818 197.839 170.781 198.729 171.818 199.552L171.865 199.599L171.958 199.661L172.802 200.26C173.412 200.682 174.037 201.104 174.672 201.453C175.302 201.802 176.031 202.224 176.724 202.557C177.089 202.734 177.458 202.911 177.823 203.068L178.083 203.177H178.172C179.813 203.833 181.484 204.359 183.193 204.766C184.141 204.995 185.094 205.187 186.052 205.349L186.833 205.464L188.156 205.609C190.427 205.823 192.703 205.891 194.984 205.823C196.219 205.776 197.443 205.703 198.672 205.594C199.333 205.536 199.995 205.464 200.651 205.391L201.615 205.271C200.375 205.401 201.557 205.271 201.854 205.271C204.823 204.839 207.766 204.234 210.698 203.51C211.896 203.208 213.089 202.854 214.255 202.432L215.099 202.12L215.594 201.917C216 201.745 216.443 201.547 216.792 201.354C217.849 200.833 218.87 200.25 219.859 199.599C220.359 199.276 220.844 198.927 221.323 198.578L221.38 198.526L221.995 198.01C222.823 197.302 223.604 196.542 224.339 195.734C224.719 195.328 225.073 194.891 225.422 194.479C225.578 194.266 225.734 194.057 225.885 193.833C226.521 192.922 227.099 191.979 227.63 191.005C227.912 190.49 228.172 189.958 228.422 189.427C228.495 189.255 228.568 189.099 228.641 188.932L228.578 189.089C228.578 189.016 228.651 188.932 228.672 188.854L228.75 188.693C228.818 188.536 228.891 188.307 228.797 188.526C229.609 186.422 230.224 184.26 230.63 182.042C230.693 181.703 230.75 181.359 230.802 181.01C230.802 180.885 230.859 180.615 230.875 180.443C231.021 180.104 231.068 179.672 231.115 179.229H231.094ZM221.047 198.937C221.13 198.891 221.208 198.828 221.281 198.76L221.047 198.937ZM160.542 177.792C160.469 177.177 160.542 177.479 160.542 177.792V177.792ZM56.9636 172.234C57.3594 174.307 57.9167 176.333 58.6511 178.312C58.7448 178.552 58.8386 178.802 58.9428 179.047C58.9584 179.135 58.9948 179.219 59.0313 179.297C59.0313 179.406 59.125 179.51 59.1667 179.62C59.1667 179.526 59.099 179.458 59.073 179.396C59.3021 179.891 59.5209 180.385 59.7709 180.885C60.2761 181.911 60.8282 182.922 61.4532 183.901C62.0782 184.885 62.698 185.818 63.3803 186.729L63.5573 186.958L64.0625 187.562C64.4219 187.984 64.7813 188.406 65.1563 188.812C65.9375 189.656 66.7657 190.5 67.6303 191.266C68.0625 191.651 68.474 192.036 68.948 192.396L69.4688 192.818L69.323 192.708L69.5573 192.896L69.625 192.943C69.7448 193.036 69.9167 193.161 69.8178 193.078C71.6198 194.432 73.5261 195.615 75.5469 196.63C76.0678 196.891 76.599 197.141 77.1355 197.38L77.3386 197.469L77.9948 197.734C79.073 198.146 80.1667 198.516 81.2709 198.839C82.375 199.156 83.5886 199.453 84.7657 199.682C85.3542 199.792 85.9428 199.891 86.5417 199.984H86.6771L87.5209 200.068C89.9636 200.312 92.3959 200.333 94.8386 200.141C95.4375 200.083 96.0365 200.021 96.6355 199.948H96.9167L97.875 199.802L98.5209 199.682L99.3646 199.526C100.703 199.229 102.026 198.859 103.318 198.406C103.755 198.266 104.162 198.104 104.609 197.948L105.302 197.661C106.37 197.203 107.417 196.687 108.427 196.13C109.568 195.505 110.677 194.818 111.74 194.073C111.995 193.906 112.234 193.724 112.474 193.552L112.776 193.328L112.995 193.156L112.787 193.302C113.339 192.88 113.88 192.464 114.391 191.953C115.557 190.906 116.646 189.781 117.667 188.583C117.896 188.307 118.125 188.016 118.354 187.74L118.63 187.354C119.141 186.661 119.625 185.943 120.078 185.203C120.552 184.437 120.995 183.646 121.417 182.849C121.62 182.437 121.833 182.005 122.031 181.594C122.13 181.38 122.234 181.161 122.328 180.948L122.391 180.792L122.583 180.323L122.859 179.62C123.005 179.198 123.162 178.776 123.302 178.339C123.641 177.344 123.927 176.333 124.193 175.312C124.453 174.292 124.672 173.203 124.865 172.13C124.953 171.651 125.021 171.161 125.094 170.672C125.094 170.536 125.094 170.375 125.146 170.292C125.146 170.026 125.203 169.745 125.229 169.448C125.484 166.849 125.573 164.24 125.484 161.635C125.484 160.417 125.375 159.193 125.26 157.99C125.214 157.458 125.146 156.937 125.083 156.411V156.26C125.083 156 125.01 155.745 124.969 155.484C124.609 153.297 124.078 151.161 123.365 149.062C123.198 148.568 123.016 148.078 122.823 147.594C122.703 147.307 122.297 146.391 122.823 147.594L122.547 146.958C122.141 146.068 121.703 145.198 121.208 144.354C120.724 143.5 120.193 142.677 119.625 141.885C119.51 141.719 119.396 141.573 119.276 141.417L119.208 141.333C118.922 140.979 118.625 140.625 118.365 140.286C117.74 139.589 117.078 138.922 116.385 138.286C116.01 137.953 115.635 137.625 115.24 137.302L114.734 136.891C114.865 137 114.964 137.083 115.047 137.141L114.75 136.927C113.177 135.771 111.51 134.776 109.75 133.943L108.906 133.552L108.563 133.406L107.568 133.016C106.552 132.635 105.521 132.297 104.474 132.005C102.297 131.396 100.089 130.922 97.8542 130.604H97.5261L96.6771 130.51C96.0886 130.448 95.4896 130.385 94.8959 130.344C93.6563 130.245 92.4115 130.187 91.1719 130.177C89.9323 130.172 88.8907 130.177 87.7448 130.281C87.125 130.318 86.5105 130.38 85.8959 130.448L85.1146 130.542C86.4115 130.401 85.3334 130.542 85.0209 130.542C82.8125 130.885 80.6459 131.406 78.5261 132.109C77.9792 132.281 77.4375 132.484 76.8959 132.687L76.2344 132.964C75.2396 133.391 74.2657 133.859 73.323 134.385C72.3803 134.906 71.5261 135.422 70.6563 136C70.1875 136.312 69.7292 136.63 69.2865 136.953L69.1355 137.073L68.75 137.38C67.1042 138.719 65.5938 140.198 64.2188 141.812L63.7136 142.422L63.375 142.865C63.1875 143.12 63.0053 143.365 62.823 143.62C62.2084 144.505 61.625 145.406 61.1355 146.344C60.6459 147.281 60.0886 148.255 59.6303 149.255C59.6303 149.339 59.5678 149.411 59.5209 149.495C59.4688 149.995 59.4219 150.495 59.3646 151C58.6303 157.599 57.8073 164.203 57.1563 170.823L56.9636 172.234ZM118.125 188.036C118.125 188.036 118.177 187.958 118.208 187.927L118.125 188.036ZM104.922 197.802L105.146 197.708L104.922 197.802ZM254.703 206.302C254.75 206.219 254.781 206.135 254.813 206.052L254.703 206.302ZM289.526 282.26L289.323 282.401L289.526 282.26ZM282.927 106.005L281.828 106.271C281.912 107.786 281.849 109.302 281.635 110.807C281.271 113.052 280.547 115.182 279.464 117.187C278.37 119.187 276.974 120.948 275.287 122.479C272.891 124.625 270.208 126.328 267.25 127.583C269.781 138.552 273.484 148.724 278.604 161.021C283.135 171.927 285.516 186.896 285.297 203.187C284.995 222.016 281.594 240.271 275.094 257.948C275.021 258.151 274.896 258.312 274.719 258.437C274.542 258.562 274.344 258.62 274.125 258.62C274 258.62 273.88 258.604 273.76 258.562C273.495 258.458 273.302 258.281 273.182 258.021C273.057 257.766 273.047 257.495 273.146 257.229C279.563 239.776 282.922 221.75 283.219 203.161C283.432 187.141 281.115 172.495 276.677 161.839C271.563 149.547 267.849 139.396 265.292 128.406C263.693 129.005 262.068 129.5 260.412 129.906C260.047 130.047 259.672 130.115 259.271 130.125H258.828C258.219 130.094 257.651 129.917 257.141 129.583C256.901 129.458 256.682 129.312 256.484 129.135C256.094 128.74 255.813 128.286 255.641 127.755C255.641 127.693 255.583 127.63 255.557 127.562C255.537 127.484 255.526 127.411 255.516 127.333C255.516 127.333 255.516 127.271 255.516 127.25C255.474 127.052 255.448 126.849 255.448 126.646V126.583C255.448 126.38 255.469 126.182 255.51 125.984C255.521 125.927 255.537 125.87 255.547 125.812C255.594 125.635 255.646 125.474 255.724 125.307C255.729 125.281 255.74 125.245 255.76 125.219C255.922 124.849 256.135 124.516 256.401 124.214C256.401 124.214 256.458 124.141 256.479 124.115C256.505 124.089 256.708 123.839 256.818 123.703C256.927 123.562 257.146 123.25 257.297 123.026C257.646 122.5 257.964 121.974 258.26 121.422C258.396 121.161 258.537 120.891 258.646 120.578C258.667 120.552 258.682 120.521 258.693 120.49C258.87 119.99 259.063 119.49 259.208 118.974C259.354 118.464 259.438 118.094 259.521 117.646C259.521 117.646 259.563 117.224 259.604 117.062C259.672 116.281 259.688 115.5 259.656 114.719C259.656 114.375 259.594 114.036 259.563 113.698C259.563 113.557 259.521 113.401 259.495 113.26C259.365 112.63 259.219 111.995 259.031 111.38C258.938 111.052 258.813 110.729 258.693 110.401C256.552 110.693 254.396 110.776 252.24 110.656C251.193 110.583 250.162 110.469 249.141 110.318L249.49 113.328C251.182 128.229 252.792 142.307 259.115 151.052C259.281 151.286 259.344 151.547 259.297 151.833C259.255 152.115 259.115 152.339 258.875 152.505C258.698 152.635 258.495 152.703 258.271 152.703C257.912 152.703 257.635 152.557 257.422 152.271C250.787 143.078 249.151 128.74 247.422 113.557C247.292 112.359 247.135 111.151 247 109.943C243.078 109.125 239.354 107.755 235.828 105.849C236.333 107.885 236.797 109.964 237.198 112.073C237.25 112.354 237.198 112.62 237.026 112.854C236.865 113.094 236.635 113.24 236.354 113.286H236.151C235.906 113.281 235.688 113.203 235.495 113.047C235.302 112.885 235.182 112.687 235.13 112.443C234.62 109.682 233.984 106.984 233.276 104.344C227.74 100.818 223.005 96.4375 219.063 91.1979C215 85.8333 211.99 79.9323 210.037 73.4948C209.005 70.0625 208.323 66.5625 207.974 63C193.406 52.6667 173.818 52.0364 157.682 51.5937C157.396 51.5937 157.151 51.4948 156.948 51.2917C156.745 51.0885 156.646 50.8489 156.646 50.5573C156.646 50.2708 156.745 50.0312 156.948 49.8229C157.151 49.625 157.396 49.5208 157.682 49.5208C173.615 49.9948 192.844 50.5833 207.719 60.3437C207.583 58.0781 207.563 55.8125 207.656 53.5469C207.74 51.7135 207.901 49.8958 208.135 48.0885C203.896 46.4583 199.563 45.1562 195.13 44.1667C181.688 41.2864 168.135 40.5885 154.464 42.0833C154.177 42.1354 153.912 42.0677 153.677 41.8906C153.443 41.7135 153.302 41.4792 153.271 41.1875C153.234 40.8958 153.307 40.6354 153.49 40.4062C153.682 40.1771 153.917 40.0573 154.208 40.026C168.125 38.5 181.917 39.2031 195.604 42.1406C199.979 43.1146 204.266 44.3958 208.458 45.9844C208.984 42.7552 209.781 39.5937 210.844 36.5052C198.974 33.0989 186.865 31.5521 174.516 31.8594C174.234 31.8489 173.995 31.7448 173.802 31.5417C173.609 31.3385 173.521 31.0937 173.531 30.8125C173.516 30.5208 173.609 30.276 173.807 30.0677C174.005 29.8542 174.245 29.7448 174.531 29.7396C187.135 29.4271 199.495 31.0156 211.609 34.5052C212.24 32.8177 212.958 31.2239 213.75 29.6406C210.365 28.8958 206.99 28.2812 203.609 27.7552C196.99 26.7396 190.354 25.5156 183.667 24.7135C176.979 23.9114 170.276 23.4531 163.724 24.5469C160.339 25.0833 157.063 26.0104 153.901 27.3333C152.276 28.0364 151.037 28.5677 149.297 27.7864L149.198 27.7292C149.01 27.6562 148.823 27.5625 148.646 27.4792C148.984 27.6302 149.162 27.75 148.359 27.3646H148.443L148.563 27.4114L148.198 27.25L148.359 27.3281C147.302 26.9114 146.229 26.526 145.141 26.1719C143.526 25.6562 141.891 25.2135 140.24 24.8281C139.26 24.6094 138.281 24.4062 137.292 24.2344C136.714 24.125 136.146 24.0312 135.604 23.9375L134.844 23.8281H134.672C129.328 23.1719 123.979 23.1302 118.625 23.6927L117.354 23.8437L116.896 23.901C116.167 24.0104 115.448 24.1302 114.734 24.2604C113.078 24.5573 111.427 24.9114 109.787 25.3229C106.333 26.2135 102.953 27.3385 99.6563 28.6927L99.224 28.8698L98.75 29.0729L97.5313 29.6198C96.6146 30.0364 95.6928 30.4635 94.7865 30.9323C92.948 31.8489 91.1303 32.8333 89.3542 33.8906C87.5834 34.9427 85.6303 36.1823 83.8334 37.4323C81.7969 38.8281 80.1303 40.0781 78.5053 41.3854C58.6563 57.3489 45.5573 79.3958 33.3282 101.318C21.5625 122.401 11.0782 145.172 8.30734 169.198C6.95317 181.661 7.21879 194.094 9.10942 206.49C10.4115 215.401 12.8959 223.922 15.0938 232.63C17.3073 241.568 18.1875 250.63 17.7396 259.828C17.3803 268.26 15.7448 277.333 10.5209 284.021C11.0782 284.187 11.6459 284.354 12.2084 284.5C24.625 287.786 37.8073 288.406 50.6407 287.62C57.375 287.323 63.9844 286.266 70.4792 284.458C76.349 282.667 81.9011 280.146 87.1198 276.911C86.5834 276.573 86.0625 276.229 85.5365 275.875C80.9271 272.682 76.8646 268.901 73.3386 264.547C65.1719 254.604 59.5469 243.052 55.375 230.932C53.1719 224.844 51.4844 218.615 50.3073 212.245C49.1719 205.396 48.6511 198.495 48.7448 191.552C48.7448 185.203 49.2188 178.901 49.8073 172.557C49.3803 169.833 49.1928 167.083 49.25 164.323C49.2917 159.214 50.1615 154.25 51.8542 149.427C52.0573 148.875 52.2761 148.318 52.4948 147.74C52.7448 143.818 53.2709 139.932 54.073 136.083C55.3438 130.859 57.1823 125.839 59.5782 121.026C63.0209 114 67.5261 107.74 73.099 102.24C80.5 95.0833 89.0573 89.7812 98.7657 86.3333C104.922 84.0989 111.349 82.5 117.693 80.8646C123.245 79.4271 128.818 78.1198 134.438 77.0104C141.901 75.4114 149.443 74.4219 157.068 74.0364C160.787 73.8177 164.469 74.1042 168.115 74.8802C168.427 74.9583 168.729 75.0469 169.026 75.1354C170.875 73.7708 172.917 72.7969 175.135 72.2187C177.365 71.6302 179.615 71.4844 181.901 71.7604C192.734 73.0625 202.229 80.3594 210.021 87.5208C213.932 91.125 217.573 94.9791 220.943 99.0833C223.719 102.323 226.177 105.792 228.328 109.474C232.563 117.198 236.01 125.25 238.672 133.641C241.339 142.031 243.167 150.599 244.156 159.349C244.37 161.245 244.578 163.151 244.703 165.073C249.344 162.812 254.656 161.75 259.063 164.885C263.964 168.385 265.375 174.729 265.823 180.385C266.339 186.979 265.422 193.703 264.005 200.13C262.766 205.755 260.823 211.318 257.177 215.865C256.307 216.937 255.328 217.901 254.25 218.76C253.167 219.625 252.01 220.359 250.771 220.974C249.531 221.589 248.24 222.062 246.901 222.406C245.563 222.745 244.203 222.943 242.818 222.995C242.385 224.745 241.859 226.474 241.302 228.193C239.896 232.448 238.203 236.589 236.234 240.615C233.813 245.599 230.964 250.323 227.682 254.792C226.281 256.714 224.802 258.578 223.255 260.38C219.49 268.146 216.229 276.109 213.484 284.292L214.208 284.63L214.797 284.885C216.313 285.51 217.859 286.078 219.432 286.573C222.844 287.677 226.318 288.578 229.844 289.255C236.422 290.536 243.057 291.208 249.755 291.266C253.214 291.312 256.662 291.266 260.099 290.979C261.792 290.859 263.484 290.698 265.219 290.484L265.906 290.401H266L267.188 290.229C267.922 290.12 268.651 289.99 269.375 289.865C272.417 289.339 275.406 288.615 278.354 287.703C279.745 287.276 281.115 286.776 282.464 286.245L282.703 286.151L282.943 286.036L283.844 285.62C284.432 285.354 285.005 285.068 285.578 284.776C286.667 284.203 287.714 283.562 288.729 282.865L289.297 282.464L289.708 282.141C290.141 281.776 290.552 281.406 290.969 281.021C291.38 280.63 291.813 280.177 292.182 279.755L292.625 279.224C292.635 279.193 292.656 279.167 292.677 279.141C292.75 279.031 292.807 278.917 292.88 278.818C290.604 276.495 288.849 273.839 287.604 270.844C284.755 263.896 285.662 256.062 286.828 248.859C288.568 238.203 291.188 227.703 293.057 217.073C294.224 210.224 294.964 203.333 295.281 196.396C296.63 168.844 292.266 141.203 285.344 114.594C284.578 111.714 283.771 108.839 282.927 106.005ZM312.422 52.4583C312.339 51.5469 312.25 50.6406 312.13 49.7239C312.13 49.8229 312.13 49.9271 312.177 50.0625L312.13 49.7187C312.13 49.4844 312.026 49.0417 312.078 49.3906C312.078 49.3177 312.078 49.25 312.078 49.1771C312.01 48.7292 311.943 48.2812 311.865 47.8385C311.578 46.151 311.24 44.4635 310.833 42.776C310.109 39.7083 309.172 36.7083 308.031 33.7708C307.912 33.4479 307.776 33.1302 307.651 32.8177L307.557 32.5937C307.297 32 307.016 31.4114 306.714 30.8281C306.219 29.8125 305.682 28.8229 305.089 27.8698C304.74 27.2969 304.365 26.7396 303.984 26.1771L303.323 25.2604C303.156 25.026 302.302 23.9948 303.099 24.9427C302.156 23.8281 301.255 22.7083 300.245 21.6614C299.245 20.6302 298.198 19.6458 297.109 18.7187C296.787 18.4427 296.458 18.1667 296.125 17.875C296.016 17.7917 295.917 17.7083 295.813 17.6302C295.281 17.2344 294.755 16.8489 294.214 16.4687C291.839 14.8437 289.349 13.4375 286.729 12.2448L285.552 11.7344C286.703 12.2448 285.49 11.7344 285.203 11.6042C284.578 11.3594 283.948 11.1198 283.302 10.8958C281.912 10.3906 280.495 9.96352 279.083 9.5729C277.672 9.18748 276.245 8.8854 274.807 8.61457C274.042 8.47394 273.271 8.34373 272.5 8.22394H271.958H272.068L271.229 8.12498C268.229 7.79165 265.219 7.67707 262.203 7.78123C260.771 7.8229 259.328 7.91144 257.891 8.05728L256.578 8.1979L256.167 8.24998L254.172 8.56248C251.234 9.06769 248.354 9.78123 245.521 10.7135C244.849 10.9323 244.177 11.1719 243.516 11.4219L242.521 11.8125L242.339 11.8854C241.073 12.4479 239.802 13.026 238.625 13.6875C237.438 14.3385 236.214 15.0417 235.057 15.7969C234.484 16.1823 233.917 16.5677 233.365 16.9739L232.594 17.5364L232.708 17.4427L232.49 17.625C232.396 17.6875 232.302 17.7604 232.219 17.8437C230.151 19.4948 228.245 21.3021 226.484 23.2812C226.031 23.7917 225.578 24.3177 225.151 24.8489L224.505 25.6927C225.302 24.6979 224.505 25.6927 224.339 25.9375C223.547 27.0104 222.802 28.1094 222.104 29.2344C221.417 30.3594 220.708 31.5469 219.99 32.7969C219.677 33.4219 219.375 34.0625 219.078 34.7083C218.932 35.026 218.797 35.3542 218.646 35.6875C219.172 34.5208 218.646 35.6875 218.526 35.9896C217.469 38.6562 216.62 41.3854 215.995 44.1875C215.672 45.6458 215.406 47.1146 215.198 48.5833V48.6667C215.198 48.8594 215.146 49.0417 215.13 49.2344C215.13 49.5573 215.052 49.875 215.026 50.1979C214.953 50.9739 214.896 51.75 214.844 52.5312C214.667 55.7031 214.708 58.8646 214.99 62.0312C215.037 62.6823 215.115 63.3229 215.193 63.9687C215.193 64.0625 215.281 64.7083 215.318 64.9062C215.375 65.2969 215.443 65.6823 215.521 66.0781C215.802 67.6042 216.156 69.1198 216.578 70.6042C216.995 72.0937 217.49 73.5729 218.042 75.0364C218.203 75.4583 218.37 75.8802 218.557 76.3021C218.62 76.4479 218.677 76.6042 218.755 76.7604C219.052 77.4323 219.354 78.0833 219.677 78.7344C221.052 81.526 222.656 84.1771 224.49 86.6875C224.76 87.0573 225.047 87.4219 225.333 87.7916C224.641 86.8229 225.453 87.9271 225.63 88.151C226.089 88.7135 226.547 89.2604 227.026 89.8437C228.047 91.0052 229.13 92.125 230.25 93.2187C231.375 94.3021 232.474 95.2135 233.63 96.1406L234.078 96.4687C234.385 96.6979 234.698 96.9166 235.005 97.1354C235.573 97.5312 236.151 97.9114 236.74 98.2864C238.005 99.0833 239.302 99.8125 240.646 100.469C241.042 100.661 241.427 100.849 241.823 101.021C242.094 101.141 243.13 101.531 241.99 101.104C242.688 101.359 243.359 101.646 244.063 101.885C245.391 102.349 246.734 102.734 248.109 103.031C248.865 103.198 249.63 103.333 250.401 103.453H250.583L251.677 103.552C253.151 103.672 254.625 103.693 256.099 103.604C256.854 103.604 257.589 103.469 258.328 103.396C257.026 103.526 258.38 103.396 258.693 103.323L259.813 103.104C260.198 103.016 260.578 102.984 260.964 103.01C261.349 103.042 261.729 103.13 262.083 103.276C262.448 103.422 262.776 103.62 263.073 103.87C263.37 104.125 263.625 104.417 263.828 104.745C264.12 105.214 264.37 105.703 264.594 106.208C266.037 109.245 266.766 112.437 266.776 115.797C266.75 117.318 266.552 118.812 266.167 120.286C267.109 119.781 268.01 119.214 268.885 118.599L269.302 118.302L269.365 118.25L269.625 118.026C269.99 117.714 270.349 117.396 270.698 117.057C271.042 116.719 271.422 116.312 271.755 115.927C271.875 115.797 271.979 115.661 272.089 115.531C272.089 115.589 272.01 115.63 271.969 115.698L272.13 115.479C272.172 115.432 272.214 115.385 272.25 115.339C272.37 115.193 272.5 114.964 272.25 115.276C272.771 114.542 273.224 113.771 273.63 112.964C273.729 112.75 273.823 112.531 273.922 112.318C273.839 112.5 273.771 112.635 273.729 112.74C273.787 112.615 273.844 112.469 273.88 112.375C274.031 111.979 274.156 111.531 274.276 111.161C274.396 110.786 274.516 110.25 274.599 109.786L274.672 109.344C274.766 108.417 274.781 107.479 274.734 106.547C274.734 106.286 274.734 106.016 274.672 105.703C274.672 105.646 274.672 105.583 274.672 105.526C274.672 105.401 274.63 105.25 274.625 105.182C274.578 104.937 274.531 104.682 274.479 104.437C274.255 103.484 274.375 102.573 274.833 101.708C275.323 100.88 276.031 100.333 276.964 100.073C279.703 99.5573 282.401 98.8646 285.057 98.0104C286.323 97.5885 287.589 97.1719 288.823 96.6302H288.901L288.714 96.7135L289.01 96.5885L289.854 96.2031C290.391 95.9531 290.932 95.6979 291.474 95.4219C293.573 94.3802 295.578 93.1771 297.479 91.8125L298.24 91.25C298.662 90.9219 299.083 90.5833 299.49 90.2291C300.276 89.5573 301.026 88.8594 301.755 88.125C302.479 87.3906 303.203 86.6094 303.885 85.8125L304.448 85.1146L304.5 85.0521L304.37 85.2239L304.5 85.0521C304.677 84.8229 304.948 84.4427 304.667 84.8125C304.87 84.5469 305.083 84.2708 305.276 83.9739C306.417 82.3646 307.417 80.6771 308.297 78.9114C308.537 78.4323 308.766 77.9531 308.984 77.4583L309.162 77.0625C309.162 77.1302 309.115 77.2031 309.068 77.2917C309.115 77.1823 309.162 77.0729 309.208 76.9531V76.8958C309.297 76.6875 309.443 76.3021 309.208 76.8385C309.557 75.9948 309.885 75.0833 310.182 74.1927C310.781 72.3646 311.266 70.5208 311.646 68.6406C311.828 67.7135 311.995 66.776 312.13 65.8333C312.13 65.9167 312.13 66.0052 312.13 66.1146C312.13 66.026 312.13 65.9479 312.13 65.8646V65.7656C312.13 65.5885 312.177 65.2969 312.177 65.2969C312.182 65.25 312.182 65.1927 312.177 65.1406C312.24 64.6614 312.276 64.1771 312.323 63.6979C312.688 59.9531 312.724 56.2083 312.422 52.4583ZM309.255 76.9167C309.255 76.9167 309.255 76.8385 309.297 76.8073C309.339 76.7708 309.234 76.9375 309.208 77.0312L309.255 76.9167ZM272.151 115.422L272.208 115.339C272.234 115.302 272.26 115.255 272.292 115.219C272.24 115.276 272.182 115.37 272.104 115.469L272.151 115.422ZM272.307 8.18748H272.042C272.813 8.28123 272.573 8.22394 272.307 8.18748ZM304.552 84.9948L304.719 84.7552L304.552 84.9948ZM312.151 49.6927L312.104 49.3646C312.104 49.4375 312.104 49.5573 312.151 49.7239V49.6927ZM298.13 52.1979C303.635 59.4427 302.854 64.8958 301.198 68.2187C298.854 72.9271 293.729 75.625 289.609 76.5521C290.823 78.7344 291.99 80.7656 293.193 82.7656C293.432 83.1719 293.521 83.6146 293.469 84.0885C293.412 84.5573 293.208 84.9583 292.88 85.2969C287.255 90.8125 282.135 92.5469 277.906 92.5469C275.719 92.5416 273.615 92.0937 271.609 91.2083C268.927 89.9896 266.578 88.3021 264.568 86.151C256.083 89.8125 245.474 91.875 238.563 84.125C235.287 80.4479 233.542 75.3646 232.797 70.0729C232.297 70.0729 231.813 70 231.349 69.9323C227.734 69.4271 223.021 67.5781 220.635 63.9375C219.922 62.8542 219.474 61.6667 219.292 60.3854C219.104 59.0989 219.203 57.8385 219.583 56.5989C219.875 55.4635 220.385 54.4323 221.109 53.5104C221.833 52.5833 222.714 51.8437 223.75 51.2812C225.354 50.4479 227.068 49.9687 228.875 49.8489C230.125 41.3177 238.656 29.7031 241.594 26.5937C246.662 21.2656 255.109 12.3489 265.828 16.0729C273.12 18.5989 276.969 24.151 276.813 31.8125C285.547 30.3281 294.802 31.2083 300.135 39.6823C300.214 39.8177 300.281 39.9583 300.333 40.1042C301.703 44.0208 300.927 48.1875 298.104 52.1979H298.13ZM232.568 58.4583C231.135 57.8385 230.089 56.8177 229.422 55.4114C229.203 54.9583 229.037 54.4844 228.927 53.9896C227.802 54.0833 226.74 54.3958 225.745 54.9114C224.594 55.5208 223.865 56.4531 223.557 57.7135C223.344 58.375 223.281 59.0573 223.375 59.7448C223.464 60.4375 223.708 61.0729 224.094 61.6614C225.615 63.9844 229.109 65.4167 231.896 65.8073L232.375 65.8646C232.266 63.3958 232.318 60.9271 232.542 58.4583H232.568ZM276.339 36.0885C275.156 41.0729 271.958 46.5104 267.292 51.7344C268.198 52.7135 268.995 53.7708 269.688 54.9062L269.87 54.4583C270.12 53.8021 270.594 53.3906 271.271 53.2187C271.443 53.1667 271.62 53.1406 271.802 53.1458C272.287 53.1458 272.724 53.2969 273.104 53.6042C274.797 54.9844 276.359 56.4948 277.792 58.151C281.365 56.2031 283.901 56.5573 285.589 57.4844C289.01 55.6562 291.943 53.25 294.391 50.2396C296.646 47.2604 297.349 44.3906 296.5 41.6823C292.099 34.9323 284.073 34.5573 276.313 36.0885H276.339ZM284.781 62.5729C283.891 62.9948 282.979 63.4167 282.057 63.7656C283.276 65.5729 284.422 67.4427 285.526 69.3437C285.87 67.0208 285.62 64.7656 284.781 62.5729ZM272.208 61.4062C272.25 61.75 272.203 62.0781 272.078 62.401L272.354 62.3594C272.896 61.8021 273.422 61.3021 273.922 60.875L274.339 60.526C273.771 59.9167 273.208 59.3229 272.646 58.7552C272.375 59.4323 272.208 60.125 272.13 60.8489C272.156 61.0417 272.188 61.2292 272.208 61.4062ZM257.063 55.6719C258.406 54.5989 259.672 53.4844 260.87 52.3489C260.026 52.1562 259.266 52.3229 258.583 52.8542C257.396 53.6667 256.912 54.5677 257.063 55.6719ZM263.438 48.8594L264.016 49.1458C267.307 45.6614 269.844 41.6927 271.615 37.2396C268.057 38.25 264.74 39.4896 262.068 40.4896L260.698 41.0052C259.932 44.5 257.719 47.5573 255.568 49.8229V49.9114C255.771 49.7396 255.99 49.5833 256.219 49.4219C256.74 49.0521 257.297 48.7604 257.896 48.5417C258.495 48.3229 259.115 48.1875 259.75 48.1406C260.385 48.0885 261.021 48.125 261.646 48.25C262.271 48.375 262.87 48.5729 263.438 48.8594ZM259.688 58.8802C261.938 60.0989 264.307 61.4635 266.656 62.9323C267.24 62.9323 267.839 62.9323 268.438 62.8646C268.297 62.6458 268.193 62.4114 268.135 62.1562C268.063 61.8958 268.016 61.6406 268.005 61.3698C267.328 58.8646 266.13 56.6458 264.391 54.7083C262.948 56.1562 261.375 57.5469 259.688 58.8802ZM235.703 45.7708C238.005 42.1927 244.453 40.5833 252.635 38.8437L255.172 38.3021C256.021 37.3958 257.026 36.7292 258.188 36.2917C258.849 36.0417 259.484 36.1198 260.078 36.5104C260.172 36.5677 260.255 36.6406 260.328 36.7135L260.635 36.6042C264.557 35.0729 268.547 33.7656 272.62 32.6927C273.078 26.2969 270.333 22.0312 264.464 20.0417C256.854 17.4219 250.51 23.2708 244.62 29.4844C240.537 33.8073 234.255 43.8229 233.021 49.9323L234.026 50.0312C234.391 48.5312 234.953 47.1146 235.719 45.7708H235.703ZM252.469 43.1302C247.651 44.1614 240.641 45.776 239.198 48.0208C238.734 48.8489 238.38 49.7239 238.141 50.6458C240.828 51.1927 243.359 51.9062 245.391 52.5C247.12 51.5312 248.745 50.4062 250.255 49.125C250.703 48.7552 251.099 48.375 251.531 47.9948C251.662 46.3385 251.984 44.7187 252.484 43.1302H252.469ZM251.469 53.4844C251.115 53.7604 250.74 54.0156 250.38 54.2812L251.568 54.8073C251.547 54.3646 251.51 53.9271 251.484 53.4844H251.469ZM237.234 54.7031L237.162 55.1406L238.005 55.0885L238.651 55.0156L237.234 54.7031ZM236.568 65.776C241.115 65.1146 246.458 62.9062 251.771 59.4687C249.964 58.5469 248.099 57.7552 246.172 57.0937L245.844 57C243.5 58.2083 241.021 58.9635 238.401 59.2708C237.797 59.3229 237.208 59.3489 236.714 59.3385C236.537 61.4792 236.495 63.6302 236.583 65.776H236.568ZM261.745 82.8385C257.729 77.4114 254.781 70.3802 253.083 63.5729C247.474 67.0469 241.891 69.2344 236.958 69.9062C237.609 74.3177 239.026 78.4739 241.63 81.3854C245.844 86.0989 252.604 86.6094 261.755 82.8385H261.745ZM267.578 68.5104L265.359 67.0469H265.01C262.672 66.9219 259.672 65.4427 257.24 63.2969C258.651 68.8333 260.906 74.0104 263.995 78.8177C264.115 75.4219 265.604 71.75 267.599 68.5208L267.578 68.5104ZM279.771 81.1562C279.396 78.2031 275.766 74.5417 270.984 70.9687C268.594 74.9739 267.141 79.4687 268.906 82.1927C270.104 84.0312 275.469 85.9114 277.391 84.7187C280.057 83.1771 279.865 81.6875 279.792 81.1302L279.771 81.1562ZM288.729 83.5C287.568 81.5521 286.448 79.4583 285.266 77.3385C282.969 73.2031 280.635 68.9948 278.01 65.2239C276.839 65.5833 275.672 65.8906 274.495 66.151C274.12 66.5833 273.745 66.9948 273.365 67.5104C278.964 71.7292 283.365 76.3594 283.917 80.6094C284.193 82.776 283.662 85.8594 279.563 88.3073C282.557 87.8646 285.615 86.2552 288.745 83.4739L288.729 83.5ZM295.318 55.4114C293.224 57.4219 290.917 59.1614 288.412 60.625C289.776 63.3594 290.297 67.4635 289.25 72.3594C292.276 71.5208 295.859 69.4844 297.412 66.3646C298.969 63.2448 298.276 59.625 295.318 55.4114Z" fill="black"/>
</svg>
