<svg width="246" height="235" viewBox="0 0 246 235" fill="none" xmlns="http://www.w3.org/2000/svg">
<path d="M239.901 202.854C233.505 219.224 186.26 210.339 173.182 215.62C173.182 215.62 180.599 206.016 187.573 190.094L74.1822 212.552C65.0989 215.562 54.6301 218.599 45.0312 219.635C32.8697 220.932 13.8801 222.776 3.052 218.719C6.84367 212.896 11.078 208.766 11.5364 201.693C12.5364 186.312 6.34888 151.698 6.34888 151.698C1.802 116.526 12.526 91.5104 32.302 55.5573C70.6874 -14.3177 119.474 7.64063 119.474 7.64063C132.458 0.901043 145.958 4.01563 160.005 5.53125C177.146 7.39063 192.713 11.5521 205.01 24.3594C220.365 40.3646 228.193 61.2708 233.906 82.1979C240.047 104.719 246.521 133.557 241.141 158.292H241.177C236.672 182.641 243.536 193.583 239.901 202.854Z" fill="#DE4D86"/>
<path d="M213.224 136.323C212.531 144.625 210.537 156.396 198.12 156.719C198.12 156.719 196.62 173.964 184.771 190.823C183.224 205.891 174.875 222.865 167.198 231.234L119.057 231.891C118.125 228.922 117.333 225.875 116.662 222.745C114.714 222.776 112.807 222.745 110.885 222.672C110.099 225.042 109.224 227.458 108.214 229.943L63.2032 231.234C52.4532 219.516 40.4063 190.911 47.547 174.312C48.5782 172.417 49.7084 171.625 50.8542 171.635C43.2709 152.349 45.7397 128.833 45.4688 108.755C45.4688 108.755 46.0782 76.2656 79.3855 62.7812C122.755 45.1823 130.75 50.3541 130.75 50.3541C142.37 36.3906 170.922 61.5989 177.734 71.4844C193.865 94.8802 195.354 118.146 195.354 118.146C209.651 105.464 214.568 120.26 213.224 136.323Z" fill="#E6B48C"/>
<path d="M162.646 159.771C163.38 158.99 164.161 158.26 164.948 157.537C164.781 158.974 164.781 160.412 164.948 161.854C165.177 162.76 165.734 163.375 166.604 163.703C167.479 164.078 168.328 164.031 169.151 163.557C171.922 161.948 174.437 160 176.698 157.729C177.401 157.083 178.094 156.385 178.786 155.708C178.448 158.047 178.088 160.396 177.911 162.76C177.917 163.339 178.083 163.859 178.401 164.333C178.729 164.807 179.151 165.156 179.682 165.375C180.213 165.594 180.76 165.646 181.323 165.537C181.891 165.432 182.375 165.177 182.786 164.776C187.036 160.354 191.443 156.078 195.875 151.823C196.167 151.563 196.396 151.255 196.552 150.901C196.713 150.542 196.802 150.172 196.812 149.781C196.823 149.391 196.75 149.01 196.609 148.656C196.458 148.292 196.25 147.974 195.974 147.693C195.693 147.422 195.375 147.208 195.01 147.063C194.646 146.917 194.276 146.849 193.885 146.859C193.489 146.87 193.114 146.953 192.766 147.115C192.406 147.276 192.094 147.5 191.833 147.792C189.427 150.099 187.026 152.412 184.656 154.76C184.974 152.557 185.307 150.354 185.484 148.141C185.479 147.568 185.323 147.052 185 146.583C184.682 146.109 184.26 145.771 183.734 145.552C183.203 145.339 182.651 145.276 182.088 145.385C181.521 145.49 181.031 145.745 180.614 146.135C177.901 148.526 175.375 151.099 172.765 153.599C172.187 154.156 171.594 154.703 170.995 155.24C171.276 153.599 171.583 152 171.88 150.328C172.042 149.708 171.995 149.099 171.76 148.5C171.521 147.901 171.125 147.432 170.578 147.094C170.13 146.849 169.64 146.719 169.13 146.703C168.338 146.698 167.667 146.979 167.109 147.537C165.531 149.484 163.521 151.125 161.64 152.807L162.646 159.771ZM169.37 156.635C169.177 156.787 168.906 156.969 169.37 156.635V156.635ZM66.6249 157.323C64.0988 159.589 61.3905 161.896 58.2603 163.271C57.8124 163.521 57.3228 163.641 56.8124 163.641C56.302 163.641 55.8176 163.521 55.3697 163.271C54.927 163.021 54.578 162.677 54.328 162.234C54.078 161.792 53.953 161.323 53.9582 160.813C54.1197 158.849 54.4322 156.901 54.8957 154.984C54.0676 155.635 53.2395 156.328 52.427 157.026C50.6353 158.49 48.9582 160.078 47.3957 161.781C46.3436 162.984 45.0207 156.01 45.9061 155.188C49.8072 151.635 53.9061 148.333 58.1978 145.266C58.703 144.974 59.2395 144.844 59.8228 144.885C60.4009 144.927 60.9165 145.13 61.3697 145.484C61.8228 145.839 62.1457 146.287 62.3332 146.833C62.5207 147.38 62.5415 147.927 62.3957 148.484C61.9165 150.594 61.3592 152.698 60.8436 154.797C61.4895 154.266 62.104 153.719 62.7186 153.167C65.3905 150.75 67.9478 148.214 70.729 145.912L66.6249 157.323Z" fill="#DE4D86"/>
<path d="M95.4167 24.2708C95.5208 24.4739 95.5469 24.6823 95.4792 24.9062C95.4167 25.125 95.2812 25.2917 95.0833 25.401C80.3542 33.4375 67.5 45.2292 56.8542 60.4479C53.4219 65.349 49.6562 70.2604 46.0104 75.0052C37.9167 85.5365 29.5521 96.4531 24.0052 108.359C16.4427 124.609 18.5052 140.49 20.6771 157.245C21.25 161.651 21.8437 166.214 22.2552 170.839C22.3958 172.365 22.5833 174.078 22.7917 175.937C24.0885 187.432 25.8073 203.182 19.6614 211.062C19.5 211.276 19.2812 211.385 19.0156 211.385C18.6667 211.38 18.4219 211.219 18.2708 210.911C18.125 210.599 18.1562 210.312 18.3646 210.042C24.0781 202.646 22.3021 186.667 21.1302 176.099C20.9271 174.255 20.7344 172.516 20.5885 170.979C20.1771 166.417 19.5937 161.865 19.0208 157.474C16.8177 140.443 14.7239 124.359 22.4896 107.672C28.1146 95.5833 36.5364 84.6094 44.6875 74C48.3229 69.2604 52.0885 64.3646 55.4896 59.4948C66.2708 44.0625 79.3437 32.1042 94.2708 23.9323C94.474 23.8177 94.6875 23.7969 94.9115 23.8646C95.1354 23.9323 95.3021 24.0677 95.4167 24.2708ZM29.4323 135.781C29.4219 135.562 29.3333 135.38 29.1771 135.229C29.0208 135.073 28.8333 135 28.6198 134.995C28.401 134.984 28.2083 135.052 28.0417 135.198C27.8802 135.339 27.7864 135.516 27.7604 135.74C27.4792 145.557 28.8698 155.161 30.2135 164.427C32.5364 180.406 34.7604 195.505 28.875 211.302C28.8021 211.516 28.8125 211.724 28.9062 211.932C29.0052 212.141 29.1562 212.281 29.3698 212.365C29.4687 212.396 29.5625 212.411 29.6667 212.411C30.0521 212.411 30.3125 212.229 30.4479 211.87C36.4479 195.682 34.2239 180.37 31.8698 164.177C30.5312 154.979 29.151 145.458 29.4323 135.781ZM194.552 75.8542C193.937 61.9739 193.302 47.6198 185.771 37.7812C170.734 18.1562 147.484 18.3177 124.943 18.4739C122.995 18.4739 121.094 18.4739 119.193 18.4739C118.948 18.4531 118.734 18.5208 118.552 18.6875C118.37 18.8542 118.281 19.0625 118.281 19.3073C118.281 19.5469 118.37 19.7552 118.552 19.9219C118.734 20.0885 118.948 20.1562 119.193 20.1354C121.099 20.1354 123.021 20.1354 124.953 20.1354C147.062 19.9844 169.906 19.8281 184.443 38.7969C191.656 48.2135 192.281 62.3073 192.88 75.9323C193.427 88.401 193.948 100.172 199.521 107.427C199.578 107.531 199.661 107.625 199.76 107.698C199.859 107.771 199.969 107.823 200.089 107.844C200.208 107.87 200.333 107.87 200.453 107.844C200.573 107.812 200.682 107.76 200.776 107.682C200.875 107.609 200.953 107.516 201.005 107.406C201.062 107.297 201.094 107.182 201.099 107.057C201.104 106.932 201.083 106.818 201.031 106.698C200.984 106.589 200.917 106.49 200.818 106.406C195.599 99.5729 195.089 88.0365 194.552 75.8542ZM224.974 113.943C217.036 96.3385 212.953 84.3073 211.167 63.526C209.625 45.6302 207.031 30.1406 190.818 21.8177C179.651 16.0885 169.354 15.0833 158.443 14.0469C152.042 13.401 145.427 12.7864 138.578 11.0989C138.359 11.0573 138.156 11.0989 137.969 11.2135C137.781 11.3333 137.667 11.5052 137.609 11.7187C137.557 11.9323 137.583 12.1354 137.693 12.3281C137.802 12.5208 137.964 12.651 138.177 12.7187C145.141 14.4323 151.807 15.0781 158.292 15.7083C169.031 16.7552 179.182 17.7448 190.094 23.3333C205.542 31.25 208.047 46.2969 209.562 63.6875C211.375 84.7135 215.5 96.875 223.521 114.651C227.323 123.068 229.542 134.823 229.755 147.677C229.953 162.604 227.687 177.151 222.953 191.318C222.901 191.516 222.917 191.708 223.005 191.891C223.099 192.078 223.229 192.208 223.417 192.292C223.51 192.323 223.594 192.339 223.682 192.333C224.089 192.339 224.354 192.146 224.479 191.766C229.271 177.437 231.562 162.719 231.354 147.609C231.141 134.521 228.88 122.562 224.974 113.943ZM57.5364 147.667L57.6094 147.719L57.7552 147.833L57.5104 147.651L57.5364 147.667ZM96.9427 143.302C97.1198 143.073 97.3906 142.693 96.9427 143.302V143.302ZM52.776 142.932L52.8489 143.016L52.6562 142.771L52.776 142.932ZM56.9479 103.005H56.901L57.026 102.917L56.9479 103.005ZM81.2917 97.4896H81.0677L81.3385 97.5208L81.2917 97.4896ZM187.078 119.12C187.177 119.766 187.125 119.292 187.078 119.12V119.12ZM178.385 103.708L178.318 103.656L178.453 103.76L178.385 103.708ZM178.547 142.219L178.698 142.115H178.74L178.453 142.328L178.547 142.219ZM171.26 99.599L171.172 99.5625C171.26 99.5937 171.318 99.6302 171.365 99.651L171.26 99.599ZM159.464 96.4531H159.359L159.573 96.4844L159.464 96.4531ZM187.151 127.318C187.151 127.276 187.151 127.24 187.151 127.203V127.156C187.151 127.26 187.151 127.328 187.151 127.385C187.151 127.432 187.146 127.318 187.151 127.297V127.318ZM150.021 149.271H150.182H149.948H150.021ZM144.745 96.4219H144.594H144.786H144.745ZM174.594 72.0156C174.437 71.8073 174.078 71.4271 174.594 72.0156V72.0156ZM52.2864 92.5677C52.2864 92.6458 52.2396 92.7292 52.2031 92.8021C52.1719 92.8802 52.2031 92.7708 52.3125 92.526L52.2864 92.5677ZM208.219 146.812C208.198 146.839 208.182 146.865 208.172 146.896L208.219 146.812ZM208.87 120.115C208.818 120.062 208.776 119.995 208.74 119.927C208.771 120.005 208.818 120.073 208.875 120.13L208.87 120.115ZM205.354 116.286C205.234 116.286 205.089 116.286 204.969 116.286C205.099 116.328 205.234 116.318 205.359 116.255L205.354 116.286ZM176.49 210.568C176.578 210.38 176.766 209.917 176.49 210.568V210.568ZM179.349 174.599L179.286 174.646L179.349 174.599ZM179.104 174.802L178.984 174.901L179.161 174.755L179.104 174.802ZM151.464 149.042C151.464 149.115 151.464 149.188 151.464 149.255C151.469 149.182 151.469 149.115 151.464 149.042ZM234.599 205.24C234.375 205.401 234.474 205.339 234.599 205.24V205.24ZM238.005 198.896C237.932 199.349 237.974 199.109 238.005 198.896V198.896ZM243.927 158.698C243.922 158.818 243.911 158.938 243.891 159.057C242.693 165.604 242.234 172.198 242.5 178.849C242.693 183.411 243.307 187.911 243.687 192.484C243.953 195.719 244.016 199.078 243.125 202.24C242.687 203.807 242.005 205.26 241.068 206.594C240.13 207.922 239.005 209.068 237.677 210.01C231.99 214.234 224.104 215.193 217.266 215.792C208.932 216.531 200.557 216.401 192.203 216.5C188.552 216.547 184.885 216.615 181.245 216.927L179.781 217.083C177.057 223 173.536 228.391 169.214 233.276C168.948 233.526 168.641 233.724 168.292 233.854C167.943 233.99 167.589 234.052 167.214 234.047C166.844 234.042 166.49 233.969 166.146 233.823C165.802 233.677 165.5 233.479 165.24 233.214C164.969 232.953 164.771 232.651 164.625 232.312C164.479 231.969 164.406 231.609 164.401 231.24C164.396 230.87 164.458 230.51 164.594 230.167C164.729 229.823 164.922 229.516 165.177 229.245C165.682 228.698 166.161 228.135 166.625 227.562C166.859 227.286 167.083 227.005 167.312 226.719L167.344 226.672L167.708 226.187C168.208 225.542 168.693 224.839 169.156 224.151C170.156 222.682 171.104 221.161 171.984 219.615C172.937 217.969 173.823 216.292 174.656 214.583C175.089 213.724 175.505 212.833 175.911 211.922C176.109 211.495 176.302 211.042 176.49 210.583L176.443 210.698L176.562 210.417C176.661 210.187 176.76 209.958 176.849 209.729C178.375 206.005 179.625 202.193 180.589 198.286C181.047 196.385 181.432 194.453 181.724 192.51C181.724 192.391 181.755 192.281 181.771 192.161C181.792 192.042 181.812 191.802 181.839 191.625C181.891 191.182 181.937 190.729 181.979 190.281C182.068 189.349 182.125 188.422 182.156 187.484C182.219 185.682 182.161 183.891 181.979 182.099C181.984 181.833 181.953 181.573 181.891 181.323C181.891 181.323 182 182.125 181.937 181.693C181.937 181.583 181.906 181.479 181.891 181.37C181.823 180.969 181.76 180.568 181.682 180.167C181.521 179.344 181.328 178.531 181.089 177.724C180.88 177.021 180.641 176.328 180.37 175.646L180.255 175.448L180.021 175.073L179.922 174.937C179.807 174.802 179.682 174.677 179.557 174.547L179.177 174.776L179.312 174.661C179.354 174.661 179.432 174.615 179.557 174.547L179.375 174.625C179.281 174.667 179.234 174.703 179.318 174.667L179.141 174.818C178.958 174.953 178.76 175.146 179.021 174.922C178.906 175.026 178.786 175.125 178.682 175.24C178.333 175.589 178.016 175.948 177.703 176.333L177.49 176.635C177.328 176.859 177.177 177.094 177.016 177.323C176.672 177.849 176.37 178.385 176.036 178.922C175.385 180.089 174.74 181.281 174.187 182.5C173.896 183.146 173.609 183.745 173.339 184.38C173.271 184.516 173.214 184.661 173.156 184.802C173.031 185.089 172.917 185.38 172.797 185.667C172.318 186.859 171.859 188.062 171.432 189.266C171.286 189.667 171.141 190.062 171.01 190.464C170.724 191.766 170.339 193.031 169.839 194.266C169.599 194.979 169.167 195.547 168.542 195.969C168.036 196.266 167.495 196.396 166.906 196.359C166.328 196.323 165.802 196.125 165.339 195.771C164.88 195.411 164.552 194.958 164.375 194.401C164.193 193.849 164.182 193.286 164.339 192.729C164.417 192.443 164.495 192.156 164.583 191.859C164.875 190.844 165.234 189.818 165.547 188.802C165.547 188.74 165.578 188.682 165.594 188.62C165.641 188.406 165.677 188.187 165.714 187.969V187.844C165.714 187.396 165.828 186.896 165.854 186.448C165.88 186.005 165.901 185.609 165.906 185.187C165.906 184.276 165.906 183.375 165.833 182.469C165.76 181.573 165.682 180.76 165.573 179.885C165.552 179.776 165.536 179.667 165.531 179.557C165.531 179.375 165.479 179.193 165.448 179.005C165.38 178.547 165.302 178.083 165.234 177.625C164.62 173.885 164.016 170.151 163.286 166.448C162.557 162.823 161.609 159.26 160.432 155.76C160.135 154.859 159.786 153.974 159.474 153.104C159.292 152.635 159.104 152.167 158.917 151.708C158.917 151.667 158.87 151.609 158.859 151.583C158.771 151.38 158.682 151.177 158.594 150.969C158.13 149.943 157.63 148.922 157.115 147.922C157.24 148.875 157.359 149.828 157.464 150.771C157.682 152.818 157.839 154.875 157.865 156.932C157.927 158.63 157.802 160.302 157.474 161.964C157.375 162.333 157.208 162.656 156.974 162.958C156.745 163.255 156.464 163.5 156.13 163.682C155.802 163.87 155.448 163.99 155.073 164.036C154.698 164.078 154.328 164.052 153.964 163.953C153.599 163.854 153.266 163.688 152.964 163.453C152.667 163.224 152.427 162.943 152.24 162.615C152.052 162.286 151.932 161.938 151.885 161.557C151.839 161.182 151.865 160.812 151.969 160.453C151.969 160.323 152.021 160.188 152.036 160.068C152.078 159.714 152.099 159.354 152.12 159.005C152.167 158.068 152.167 157.135 152.12 156.203C152.062 154.156 151.885 152.12 151.646 150.083C151.615 149.792 151.578 149.495 151.542 149.203C151.542 149.339 151.573 149.411 151.542 149.203C151.542 149.078 151.521 148.948 151.49 148.828C151.484 148.88 151.484 148.932 151.49 148.99C151.417 148.448 151.328 147.906 151.245 147.37C151.068 146.281 150.875 145.203 150.646 144.135C150.266 142.188 149.75 140.276 149.104 138.391C149.026 138.172 148.948 137.958 148.865 137.745C148.854 137.708 148.839 137.672 148.818 137.641C148.677 137.344 148.562 137.042 148.411 136.76C148.255 136.464 148.083 136.182 147.906 135.901L147.797 135.786C147.594 135.557 147.422 135.297 147.286 135.021L147.135 134.885L146.714 134.547L146.5 134.37L146.802 134.609C146.562 134.401 146.307 134.214 146.042 134.042C145.49 133.661 144.922 133.302 144.344 132.974C144.031 132.802 143.693 132.63 143.411 132.479C143.167 132.339 142.917 132.214 142.651 132.12C142.833 132.188 143.234 132.359 142.849 132.208L142.667 132.141L142.245 131.99C141.943 131.885 141.635 131.792 141.323 131.708C141.01 131.62 140.708 131.547 140.391 131.484L140 131.406L139.354 131.359C139.786 132.76 140.167 134.188 140.531 135.609C142.688 144.026 144.24 152.641 146.104 161.151C146.198 161.516 146.219 161.885 146.167 162.25C146.115 162.625 146 162.974 145.812 163.302C145.63 163.625 145.391 163.911 145.094 164.141C144.802 164.375 144.469 164.547 144.115 164.651C143.75 164.755 143.375 164.776 143 164.734C142.63 164.682 142.276 164.568 141.948 164.38C141.615 164.193 141.333 163.953 141.104 163.656C140.87 163.359 140.698 163.026 140.594 162.661C140.109 160.453 139.651 158.229 139.188 156.01C138.255 151.526 137.339 147.042 136.323 142.573C135.562 139.203 134.776 135.823 133.729 132.531C133.427 132.682 133.125 132.833 132.828 133.005C132.354 133.276 131.891 133.578 131.438 133.891L131.182 134.083L130.667 134.51C130.214 134.901 129.781 135.323 129.37 135.745C129.453 136.01 129.495 136.276 129.5 136.547C129.5 138.135 129.594 139.724 129.677 141.302C129.875 144.969 130.125 148.641 130.443 152.312C130.516 153.297 130.609 154.292 130.724 155.276C130.724 155.37 130.844 156.057 130.76 155.578C130.688 155.089 130.76 155.703 130.76 155.771L130.88 156.526C130.964 157.083 131.062 157.641 131.156 158.198C131.573 160.495 132.078 162.776 132.536 165.068C132.625 165.432 132.646 165.802 132.594 166.172C132.542 166.547 132.422 166.891 132.234 167.219C132.052 167.547 131.812 167.828 131.521 168.062C131.219 168.297 130.896 168.469 130.536 168.573C130.172 168.677 129.802 168.698 129.427 168.651C129.052 168.604 128.703 168.484 128.37 168.297C128.047 168.109 127.76 167.87 127.526 167.578C127.297 167.276 127.125 166.943 127.026 166.583C126.51 163.995 125.932 161.401 125.495 158.812C124.797 154.677 124.531 150.5 124.25 146.318C124.193 145.521 124.135 144.729 124.083 143.927L123.828 144.469L123.651 144.875C123.521 145.188 123.401 145.521 123.271 145.812C122.234 148.495 121.37 151.229 120.677 154.021C119.937 156.969 119.38 159.964 118.87 162.969C118.74 163.755 118.62 164.547 118.51 165.323C118.479 165.536 118.448 165.75 118.417 165.974C118.411 166.01 118.411 166.047 118.417 166.083L118.286 167.12C118.089 168.682 117.911 170.255 117.76 171.818C117.073 178.943 116.734 186.068 116.734 193.234C116.724 200.068 117.135 206.87 117.974 213.651C117.979 213.698 117.979 213.734 117.974 213.776L118.078 214.422C118.125 214.792 118.177 215.167 118.24 215.531C118.359 216.323 118.49 217.109 118.625 217.891C118.896 219.411 119.193 220.922 119.526 222.422C120.167 225.38 120.937 228.297 121.849 231.187C121.958 231.552 121.995 231.932 121.953 232.312C121.917 232.698 121.802 233.052 121.615 233.391C121.432 233.729 121.182 234.016 120.885 234.25C120.578 234.49 120.245 234.661 119.875 234.766C119.5 234.865 119.125 234.891 118.745 234.844C118.359 234.792 118.005 234.667 117.672 234.474C117.339 234.281 117.057 234.031 116.828 233.724C116.599 233.417 116.432 233.073 116.344 232.703C115.911 231.281 115.495 229.854 115.099 228.417C114.859 227.5 114.63 226.583 114.411 225.656H112.932C112.328 227.38 111.682 229.083 110.984 230.776C110.74 231.495 110.312 232.057 109.687 232.484C109.177 232.776 108.641 232.906 108.057 232.865C107.474 232.828 106.953 232.63 106.495 232.276C106.026 231.922 105.708 231.469 105.521 230.911C105.339 230.359 105.328 229.802 105.484 229.245C106.208 227.469 106.891 225.677 107.526 223.875C108.745 220.411 109.771 216.891 110.594 213.318C110.99 211.604 111.333 209.885 111.641 208.135C111.635 208.115 111.635 208.099 111.641 208.083C111.036 201.021 110.859 193.948 111.104 186.865C111.286 180.865 111.656 174.849 112.339 168.88C111.599 163.922 110.542 159.031 109.156 154.208C108.427 151.672 107.589 149.156 106.609 146.698C106.526 146.469 106.427 146.245 106.339 146.016C106.203 147.047 106.073 148.078 105.948 149.104C105.714 151 105.568 152.906 105.333 154.802C104.854 158.755 104.224 162.688 103.453 166.604C103.141 168.167 101.354 168.911 99.9375 168.599C98.349 168.234 97.6562 166.547 97.9479 165.083C98.3333 163.099 98.6823 161.115 99.0052 159.109C99.1562 158.156 99.3021 157.214 99.4375 156.26C99.4375 156.125 99.4687 155.99 99.4896 155.854C99.5104 155.714 99.5365 155.5 99.5573 155.333C99.6094 154.891 99.6719 154.453 99.7187 154.031C99.9323 152.182 100.083 150.328 100.312 148.479C100.568 146.464 100.844 144.448 100.964 142.427C101.026 141.443 101.062 140.49 101.042 139.474C101.042 138.995 101 138.51 100.964 138.026C100.964 137.839 100.901 137.63 100.896 137.438L100.859 137.208C100.812 136.932 100.797 136.656 100.812 136.385C100.568 136.089 100.323 135.792 100.052 135.51C99.3854 134.797 98.6719 134.13 97.9115 133.516L97.7083 133.37C97.526 133.234 97.3229 133.109 97.1198 132.974C96.9219 132.844 96.7187 132.75 96.5156 132.63C96.4792 133.021 96.3594 133.385 96.1719 133.729C95.8854 134.224 95.6302 134.734 95.3802 135.25C95.2656 135.5 95.1615 135.75 95.0365 136.005C95.4531 135.161 95.0677 135.932 94.9792 136.172C94.5729 137.229 94.2187 138.307 93.9219 139.406C93.3854 141.406 92.9635 143.432 92.6562 145.484L92.4219 147.078C92.4219 147.286 92.2708 148.281 92.4219 147.281L92.3229 147.932C92.1979 148.953 92.0677 149.979 91.9427 151.01C91.474 154.891 91.0885 158.901 89.8958 162.661C89.7917 163.026 89.6302 163.359 89.3958 163.656C89.1615 163.958 88.8802 164.198 88.5521 164.385C88.224 164.573 87.8698 164.688 87.4948 164.74C87.1198 164.781 86.7448 164.755 86.3802 164.651C86.0208 164.557 85.6823 164.391 85.3854 164.156C85.0833 163.927 84.8437 163.641 84.6562 163.318C84.4687 162.984 84.3542 162.63 84.3073 162.26C84.2552 161.885 84.2864 161.516 84.3854 161.151C84.9739 159.193 85.4062 157.203 85.6823 155.182L85.8021 154.37C85.8333 154.141 85.9479 153.224 85.8021 154.234C85.8594 153.781 85.9219 153.323 85.9792 152.865C86.1094 151.828 86.2396 150.786 86.3594 149.75C86.6406 147.479 86.9219 145.219 87.3073 142.953C87.8854 138.896 89.099 135.031 90.9427 131.365H90.6198C89.9896 131.474 89.3698 131.615 88.7552 131.792C88.4115 131.896 88.0625 132.016 87.724 132.146H87.6354L87.3333 132.292C86.2604 132.807 85.2396 133.417 84.276 134.12C84.151 134.63 83.9114 135.078 83.5573 135.474C83.4844 135.542 83.4219 135.625 83.3542 135.698V135.74C83.1719 136.016 83.0052 136.292 82.8489 136.583C82.6927 136.875 82.5469 137.172 82.4219 137.469V137.516C82.3333 137.719 82.2656 137.927 82.1875 138.161C81.6406 139.75 81.2083 141.37 80.8906 143.016C80.7031 143.948 80.5364 144.87 80.3854 145.802C80.2969 146.344 80.2239 146.885 80.1354 147.432C80.1354 147.656 80.0781 147.875 80.0469 148.078V148.146C80.0417 148.182 80.0417 148.214 80.0469 148.245C79.4792 152.552 79.0937 156.875 78.6562 161.193C78.6458 161.568 78.5677 161.932 78.4219 162.271C78.2708 162.62 78.0625 162.927 77.7969 163.188C77.5312 163.453 77.2292 163.661 76.8802 163.807C76.5364 163.958 76.1771 164.036 75.8021 164.042C75.4219 164.042 75.0573 163.974 74.7083 163.828C74.3594 163.682 74.0521 163.474 73.7812 163.208C73.5104 162.943 73.3073 162.635 73.1667 162.286C73.0156 161.938 72.9427 161.573 72.9427 161.193C73.2083 158.651 73.4427 156.104 73.7083 153.562C73.9896 150.901 74.2812 148.234 74.6771 145.583C74.2812 146.271 73.8906 146.974 73.5208 147.667C73.151 148.365 72.875 148.875 72.6146 149.484C72.3802 149.974 72.1458 150.469 71.9271 150.958L71.6198 151.656C71.6198 151.682 71.6198 151.708 71.6198 151.729C71.6198 151.771 71.6198 151.818 71.5729 151.854C71.3854 152.307 71.2239 152.76 71.0521 153.208H71.2604H71.0521C70.4896 154.661 69.9687 156.13 69.5052 157.615C68.2917 161.562 67.3125 165.568 66.5729 169.63C66.1875 171.708 65.8489 173.781 65.5052 175.859C65.3385 176.859 65.1719 177.859 65.0104 178.854L64.8958 179.682V179.812C64.8437 180.297 64.7812 180.781 64.7292 181.271C64.5156 183.224 64.4948 185.187 64.6667 187.146C64.6667 187.276 64.6667 187.411 64.7083 187.536V187.484V187.573C64.7083 187.62 64.7083 187.656 64.7083 187.698C64.7187 187.76 64.7292 187.828 64.7448 187.885C64.7448 187.969 64.7448 188.047 64.7448 188.125C64.7917 188.365 64.8541 188.609 64.9062 188.844C65.3437 190.141 65.7604 191.396 66.0833 192.698C66.25 193.255 66.2396 193.818 66.0573 194.375C65.875 194.927 65.5573 195.385 65.0937 195.745C64.6302 196.099 64.1042 196.292 63.5208 196.328C62.9427 196.37 62.3958 196.234 61.8958 195.932C61.25 195.526 60.8177 194.958 60.5937 194.229C60.1042 193.031 59.7344 191.797 59.4583 190.536C59.1146 189.516 58.7448 188.505 58.3646 187.505C58.1354 186.896 57.8958 186.286 57.6562 185.677L57.276 184.781C57.2187 184.656 57.1719 184.536 57.1146 184.401C56.5729 183.146 55.9948 181.911 55.3646 180.693C54.7708 179.542 54.125 178.427 53.4167 177.344C53.2552 177.099 53.0937 176.854 52.9167 176.615L52.7083 176.318C52.4167 175.953 52.1094 175.604 51.7812 175.271C51.6406 175.125 51.4896 174.995 51.3385 174.865C51.7083 175.172 51.4635 174.922 51.276 174.802L51.1198 174.667C51.2344 174.714 51.1614 174.667 51.0521 174.62L50.901 174.557H50.8646L51.1094 174.667L51.2604 174.802C51.1302 174.708 51.0052 174.63 50.8646 174.557C50.7448 174.667 50.625 174.792 50.5156 174.911L50.3802 175.12C50.2552 175.302 49.9844 175.885 50.0208 175.766C49.4687 177.177 49.0364 178.62 48.7239 180.099C48.6354 180.557 48.5521 181.021 48.4844 181.484C48.4844 181.484 48.4844 181.542 48.4844 181.573C48.4844 181.724 48.4479 181.875 48.4323 182.021C48.3333 182.901 48.276 183.781 48.2448 184.667C48.1875 186.51 48.2396 188.354 48.4062 190.187C48.4531 190.708 48.5052 191.234 48.5677 191.75L48.6302 192.229C48.6302 192.297 48.6302 192.359 48.6302 192.417C48.7604 193.385 48.9271 194.365 49.1146 195.297C49.5 197.245 49.9792 199.229 50.5312 201.161C51.0781 203.094 51.7031 205.005 52.3958 206.891C52.7448 207.839 53.1094 208.771 53.4792 209.698L53.8385 210.417V210.479L53.875 210.562C54.0573 210.995 54.25 211.427 54.4427 211.859C55.9948 215.344 57.7708 218.703 59.7917 221.948C60.6979 223.396 61.6562 224.818 62.6667 226.182L63.0364 226.667L63.1927 226.87C63.3802 227.099 63.5625 227.333 63.7448 227.557C64.2187 228.13 64.7031 228.693 65.2031 229.24C65.4583 229.51 65.6614 229.823 65.8021 230.167C65.9427 230.516 66.0104 230.88 66.0104 231.255C66.0104 231.625 65.9427 231.99 65.8021 232.339C65.6614 232.687 65.4583 232.995 65.2031 233.266C64.9323 233.531 64.625 233.734 64.276 233.875C63.9219 234.021 63.5625 234.094 63.1823 234.094C62.8021 234.094 62.4375 234.021 62.0885 233.875C61.7396 233.734 61.4323 233.531 61.1562 233.266C60.6614 232.724 60.1823 232.167 59.7135 231.594C57.0989 228.38 54.7917 224.958 52.8073 221.328C51.9427 221.495 51.0729 221.651 50.2083 221.792C44.7448 222.687 39.1771 223.167 33.6771 223.573C28.1562 224.036 22.6302 224.172 17.0937 223.974C12.1146 223.75 6.97915 223.214 2.27603 221.484C0.64582 220.88 -0.51564 218.953 0.572903 217.297C2.31769 214.63 4.31249 212.12 5.96874 209.401C7.53645 207 8.43749 204.359 8.67707 201.5C8.80207 199.417 8.79165 197.318 8.72915 195.234C8.57811 190.214 8.12499 185.208 7.57811 180.219C6.99478 174.911 6.42186 170.641 5.67186 165.589C5.17186 162.047 4.6354 158.521 4.06249 155.005C2.41144 145.344 2.03644 135.63 2.95311 125.865C4.1979 112.792 7.85936 100.187 12.9219 88.099C15.7448 81.401 18.8646 74.8229 22.2344 68.3385C25.8437 61.3333 29.5052 54.3229 33.6094 47.6198C40.0364 37.0573 47.7552 27.0364 57.1927 18.9687C64.1875 12.8489 72.0573 8.1927 80.7917 4.99478C87.3021 2.6979 94.0052 1.53124 100.906 1.5052C105.714 1.47915 110.448 2.04686 115.109 3.20832C116.536 3.56249 117.932 3.99478 119.312 4.5052C120.839 3.77603 122.411 3.15103 124.021 2.61978C131.75 0.114571 139.99 0.354155 147.974 1.21874C155.76 2.0677 163.651 2.83853 171.339 4.30207C178.349 5.56249 185.062 7.74999 191.453 10.8802C198.125 14.2812 203.932 18.7864 208.88 24.3906C219.375 36.0885 226.406 50.2917 231.557 65.0312C234.078 72.2292 236.146 79.5729 238.052 86.9479C240.042 94.5885 241.823 102.286 243.187 110.062C246.052 126.057 247.297 142.641 243.927 158.667V158.698ZM99.4635 156.026C99.4635 156.026 99.4635 155.974 99.4635 155.943C99.4635 155.974 99.4635 156 99.4635 156.026ZM50.6458 174.469C50.4427 174.437 50.3542 174.469 50.5989 174.469H50.6458ZM50.7187 174.469L50.5364 174.38L50.7135 174.474L50.7187 174.469ZM57.2135 184.557C57.2135 184.536 57.2135 184.516 57.2135 184.49C57.2135 184.49 57.1719 184.516 57.1875 184.516L57.2135 184.557ZM63.6146 157.297C63.1354 157.12 62.6562 156.943 62.1823 156.75C58.2864 155.182 54.7917 152.969 51.7083 150.125C50.6094 149.089 49.5833 147.979 48.6354 146.807C48.7031 147.776 48.7708 148.75 48.8698 149.719C48.9844 151.016 49.125 152.312 49.2917 153.557C49.2917 153.62 49.2917 153.708 49.2917 153.771C49.2917 153.828 49.2917 153.995 49.3333 154.115C49.3802 154.401 49.4167 154.693 49.4687 154.984C49.5625 155.635 49.6562 156.24 49.7708 156.87C50.2031 159.406 50.75 161.927 51.4323 164.411C51.8646 166.042 52.3698 167.646 52.9583 169.234C54.4114 169.896 55.6354 170.854 56.6302 172.099C57.7656 173.484 58.7708 174.974 59.6354 176.552C59.7344 175.974 59.8281 175.401 59.9167 174.828C60.6198 170.672 61.2969 166.505 62.2396 162.391C62.6354 160.677 63.1146 158.964 63.5885 157.276L63.6146 157.297ZM52.3125 92.4948V92.5625C52.2812 92.6406 52.2552 92.7187 52.2239 92.7969C52.151 92.9792 52.0677 93.1667 51.9948 93.349C51.7396 93.9948 51.5104 94.599 51.2812 95.2292C50.4896 97.3906 49.8437 99.5833 49.3333 101.823C49.276 102.083 49.2292 102.349 49.1719 102.604C50.9635 100.562 52.9844 98.7812 55.2448 97.2656C61.8802 92.7969 70.026 91.1875 77.9531 91.5417C85.4062 91.8594 92.8802 93.9427 98.4479 99.0677C100.995 101.427 102.99 104.187 104.432 107.344C106.115 111.109 107.203 115.031 107.698 119.12C107.698 119.224 107.729 119.323 107.74 119.432C107.849 120.203 107.922 120.974 107.995 121.755C113.432 121.615 118.896 121.521 124.333 121.208C124.271 117.958 124.547 114.74 125.177 111.542C125.854 107.927 127.094 104.516 128.891 101.302C130.667 98.1198 133.078 95.526 136.13 93.5312C137.656 92.5625 139.281 91.8385 141.016 91.3594C142.948 90.8802 144.911 90.5833 146.896 90.474C150.776 90.1354 154.651 90.1875 158.521 90.625C162.656 91.0469 166.693 91.9271 170.625 93.2604C178.177 95.9115 185.281 100.536 189.292 107.63C190.625 110.021 191.578 112.557 192.161 115.234C191.276 109.448 189.88 103.786 187.979 98.25C187.297 96.2396 186.557 94.2448 185.755 92.2708C185.615 91.9323 185.469 91.5781 185.333 91.2344C185.109 90.7135 185.229 91.0156 185.281 91.1302C185.062 90.599 184.823 90.0781 184.589 89.5469C184.109 88.4635 183.604 87.3906 183.083 86.3073C180.823 81.6458 178.229 77.1823 175.297 72.9062C175.089 72.6042 174.875 72.3125 174.651 72.0156C174.667 72.0365 174.682 72.0573 174.698 72.0833C174.583 71.9531 174.484 71.8073 174.38 71.6771C173.844 71.026 173.292 70.3802 172.729 69.7292C171.432 68.2448 170.026 66.8229 168.609 65.4427C167.188 64.0625 165.651 62.6771 164.104 61.3646C163.302 60.6823 162.479 60.0052 161.641 59.3489L161.104 58.9219L160.786 58.6875C160.385 58.3802 159.979 58.0781 159.573 57.776C156.182 55.2396 152.568 53.0781 148.724 51.3021C148.505 51.1875 148.276 51.0885 148.047 50.9948C148.047 50.9948 148.625 51.2344 148.214 51.0729L147.875 50.9323C147.453 50.7656 147.031 50.6094 146.578 50.4583C145.703 50.1458 144.812 49.875 143.911 49.6458C143.453 49.526 142.995 49.4271 142.521 49.3385L141.958 49.2396H141.865C141.078 49.1771 140.302 49.0989 139.505 49.1198C139.115 49.1198 138.729 49.1719 138.333 49.2031H138.266L137.76 49.3021C137.354 49.3906 136.958 49.5052 136.568 49.6354L136.104 49.7917C135.74 49.9739 135.37 50.1614 135.021 50.375L134.583 50.6562L134.51 50.7135C134.229 50.9792 133.943 51.2239 133.641 51.4531C133.333 51.7552 133.047 52.1094 132.776 52.3958C132.339 52.8333 131.807 53.0989 131.193 53.1927C130.578 53.2864 130 53.1979 129.448 52.9167C128.99 52.7864 128.526 52.7292 128.078 52.6094C127.823 52.6094 127.573 52.5729 127.328 52.5573C126.745 52.526 126.161 52.5208 125.583 52.526C124.828 52.526 124.078 52.5833 123.333 52.6406L122.031 52.7656L121.286 52.8542H121.172C118.755 53.2135 116.359 53.6667 113.984 54.2083C106.349 56.0573 98.8594 58.3646 91.5104 61.1458C89.0104 62.0625 86.5208 63.0104 84.0417 63.9896C82.6667 64.5364 81.2864 65.0833 79.9167 65.6458L79.7656 65.7031L79.5052 65.8125L78.7917 66.1302C78.2812 66.3542 77.7812 66.5937 77.2812 66.8333C75.3385 67.7604 73.4479 68.7969 71.6146 69.9375C70.7708 70.474 69.9323 71.026 69.1198 71.5937C68.6875 71.901 68.2656 72.2396 67.8177 72.526L67.4531 72.8021L67.1667 73.0208C64.3385 75.2708 61.776 77.8021 59.4739 80.5885C59.25 80.8594 58.9896 81.1354 58.776 81.4219C58.7292 81.5104 58.6771 81.5885 58.6146 81.6667L58.2292 82.1875C57.7448 82.8385 57.2917 83.4844 56.8437 84.1354C55.9948 85.4271 55.1979 86.7187 54.4635 88.0625C53.7187 89.401 53.1146 90.6562 52.5156 91.9844C52.4583 92.1562 52.3854 92.3229 52.3125 92.4948ZM90.6042 131.391C90.349 131.391 89.849 131.531 90.6042 131.391V131.391ZM100.661 128.453C101.214 128.844 101.74 129.266 102.255 129.698C102.255 129.323 102.323 128.948 102.349 128.573C102.422 127.609 102.458 126.63 102.458 125.677C102.448 123.656 102.312 121.651 102.052 119.646C102.052 119.5 102.016 119.344 102 119.271C102 119.057 101.932 118.844 101.896 118.615C101.818 118.151 101.734 117.687 101.646 117.224C101.464 116.318 101.255 115.432 100.995 114.547C100.734 113.656 100.51 112.88 100.208 112.052C100.052 111.62 99.8906 111.187 99.7187 110.76C99.6354 110.573 99.5521 110.391 99.4687 110.208C98.7969 108.74 97.9896 107.349 97.0521 106.031C96.9427 105.88 96.8385 105.729 96.7292 105.594C96.5052 105.312 96.276 105.042 96.0417 104.776C95.5208 104.193 94.9792 103.635 94.401 103.109C94.1146 102.844 93.8125 102.589 93.5208 102.344L93.2187 102.104H93.1719C92.5469 101.635 91.8958 101.203 91.224 100.807C90.5781 100.417 89.9271 100.068 89.2187 99.7448C89.0104 99.651 88.8125 99.5573 88.6146 99.474C88.2448 99.3229 87.8906 99.1875 87.5208 99.0573C85.9323 98.4948 84.3073 98.0625 82.6458 97.7604C82.2239 97.6875 81.8021 97.6198 81.3489 97.5521H81.5833L81.3177 97.5208H81.2917C81.1354 97.5208 80.901 97.4792 81.0937 97.5208L80.6719 97.474C79.7135 97.3698 78.7604 97.3021 77.7969 97.2656C75.8385 97.1771 73.875 97.2187 71.9219 97.3906L71.1458 97.4635L70.6979 97.5208L70.4583 97.5521L69.8125 97.6667C68.8802 97.8281 67.9531 98.026 67.0417 98.2604C66.125 98.5 65.3385 98.7344 64.5104 99.0208C64.0625 99.1719 63.6146 99.3437 63.1719 99.5156C62.9583 99.599 62.1823 99.9531 63.1719 99.5156L62.5885 99.776C61.0156 100.484 59.5156 101.318 58.0885 102.286C57.75 102.51 57.4427 102.75 57.0937 102.995C57.3854 102.776 57.1927 102.906 57.0937 102.995L57.0364 103.047L56.8125 103.214L56.9948 103.078L56.6146 103.385C55.9687 103.927 55.3177 104.5 54.7083 105.104C54.0989 105.708 53.5729 106.276 53.0469 106.901C52.8906 107.078 52.7344 107.271 52.5781 107.464L52.5364 107.521C52.3073 107.828 52.0729 108.135 51.8854 108.453C50.9167 109.849 50.0833 111.318 49.3854 112.854L49.2292 113.219L49.1146 113.505C48.9635 113.88 48.8229 114.255 48.6927 114.635C48.5937 114.906 48.5104 115.198 48.4219 115.474C48.4219 116.432 48.4219 117.417 48.4219 118.354C48.3437 123.49 48.2448 128.625 48.2656 133.76C48.4635 134.458 48.6875 135.151 48.9114 135.839C49.0052 136.104 49.1146 136.365 49.2135 136.63C49.2135 136.698 49.3073 136.844 49.3594 136.953C49.5156 137.307 49.6614 137.651 49.8333 137.995C50.6614 139.682 51.6354 141.281 52.7604 142.786L52.6354 142.635C52.7083 142.724 52.776 142.812 52.8437 142.906V142.943L52.9271 143.031C53.026 143.161 53.1302 143.302 53.2396 143.422C53.5104 143.75 53.7917 144.068 54.0833 144.391C54.7344 145.083 55.3802 145.755 56.0729 146.38C56.4271 146.698 56.7812 147.026 57.1406 147.307L57.5833 147.661L57.4531 147.562L57.8177 147.839C58.5156 148.354 59.2344 148.849 59.9844 149.307C60.7292 149.766 61.5208 150.203 62.3281 150.599C62.7708 150.818 63.2083 151.031 63.6614 151.245L63.8229 151.312L64.3489 151.526C64.7083 151.672 65.0781 151.786 65.4427 151.911C66.8333 148.224 68.5625 144.698 70.6354 141.344C71.1042 140.594 71.5833 139.865 72.0781 139.141C70.9896 139 70.3281 138.854 70.3281 138.854C63 137.016 58.7552 127.646 60.4635 120.547C62.8333 110.698 74.0937 108.219 80.8958 110.359C88.4375 112.729 92.5312 118.068 91.6719 125.703C92.6042 125.693 93.526 125.76 94.4375 125.896C96.7135 126.266 98.7917 127.115 100.661 128.453ZM117.906 213.406C117.87 213.099 117.906 213.224 117.906 213.406V213.406ZM124.573 132.464C124.937 132.052 125.312 131.672 125.703 131.286C125.323 129.854 125.026 128.406 124.812 126.932C119.255 127.26 113.687 127.354 108.125 127.495C108.016 130.089 107.646 132.646 107.021 135.167C108.068 136.714 108.995 138.333 109.818 140.01C111.937 144.359 113.625 148.87 114.885 153.536C115.385 151.417 115.969 149.318 116.646 147.255C118.406 141.906 120.807 136.667 124.573 132.443V132.464ZM139.792 131.401H139.661H139.792ZM163.458 148.146L163.531 148.323L164.62 148.068C167.026 147.469 169.391 146.74 171.719 145.901C172.094 145.766 172.464 145.615 172.828 145.464L173.375 145.245L174.094 144.906C174.984 144.474 175.849 144.005 176.693 143.484C177.135 143.208 177.583 142.922 177.99 142.615C178.146 142.516 178.297 142.401 178.448 142.297C178.521 142.245 178.594 142.193 178.667 142.135L178.839 141.995L178.703 142.099C179.417 141.516 180.115 140.917 180.771 140.26C181.437 139.589 182.073 138.885 182.661 138.146L182.792 137.979C182.943 137.771 183.094 137.557 183.24 137.333C183.484 136.979 183.719 136.615 183.943 136.25C184.443 135.443 184.885 134.604 185.281 133.74C185.38 133.521 185.745 132.604 185.365 133.583C185.448 133.365 185.542 133.146 185.63 132.938C185.792 132.51 185.948 132.078 186.083 131.641C186.385 130.714 186.635 129.771 186.833 128.812C186.927 128.344 187.016 127.875 187.083 127.401C187.052 127.646 187.083 127.401 187.083 127.229C187.083 127.052 187.083 127.031 187.125 126.937C187.125 127.036 187.125 127.115 187.089 127.182L187.167 126.469C187.365 124.396 187.365 122.323 187.167 120.25C187.135 119.927 187.104 119.594 187.062 119.286L187.026 118.984V119.146C186.943 118.615 186.854 118.089 186.75 117.557C186.578 116.594 186.349 115.635 186.062 114.693C185.917 114.203 185.755 113.729 185.573 113.245C185.5 113.042 185.422 112.849 185.344 112.656C184.979 111.828 184.568 111.026 184.109 110.25C183.661 109.479 183.167 108.734 182.63 108.021L182.578 107.953L182.156 107.443C181.88 107.12 181.599 106.797 181.307 106.49C180.703 105.844 180.062 105.198 179.391 104.641C179.068 104.354 178.745 104.083 178.396 103.812L178.307 103.74L178.094 103.573L178.281 103.724L177.786 103.359C176.302 102.297 174.734 101.354 173.094 100.542C172.672 100.333 172.26 100.141 171.839 99.9427L171.328 99.724C171.547 99.8125 171.328 99.724 171.177 99.6562L170.917 99.5417L171.146 99.651C170.302 99.3021 169.453 99 168.599 98.6979C166.786 98.0521 164.938 97.5208 163.062 97.1042C162.125 96.901 161.177 96.724 160.219 96.5781L159.521 96.474C159.781 96.474 159.521 96.474 159.349 96.474L159.062 96.4323L159.318 96.4687C158.88 96.4167 158.438 96.3594 157.99 96.3125C156.089 96.1146 154.167 96.0156 152.25 96.0104C150.339 96.0052 148.505 96.0729 146.646 96.2396L145.281 96.3854L144.781 96.4479H144.938H144.661C144.474 96.4479 144.094 96.5312 144.589 96.4479C143.818 96.5625 143.068 96.724 142.318 96.9375C141.911 97.0573 141.505 97.1927 141.109 97.349H141.047L140.734 97.4896C140.047 97.8229 139.385 98.1979 138.75 98.6198C138.578 98.7344 138.401 98.8542 138.24 98.974L138.167 99.026C137.927 99.2292 137.682 99.4219 137.448 99.6354C136.88 100.146 136.339 100.693 135.839 101.276C135.693 101.432 135.562 101.599 135.427 101.76C135.234 102.047 135.005 102.328 134.781 102.62C134.333 103.266 133.917 103.964 133.531 104.667C133.151 105.375 132.828 106.057 132.505 106.781L132.448 106.922C132.38 107.099 132.307 107.281 132.24 107.458C132.099 107.854 131.953 108.25 131.818 108.651C131.302 110.255 130.901 111.891 130.615 113.552C130.521 114.021 130.448 114.484 130.38 114.964V115.005C130.38 115.177 130.333 115.344 130.312 115.51C130.219 116.385 130.146 117.266 130.099 118.146C130.016 119.906 130.036 121.656 130.161 123.411C130.161 123.844 130.234 124.276 130.276 124.703L130.354 125.406V125.453C130.464 126.187 130.583 126.906 130.729 127.635C133.161 126.344 135.766 125.667 138.516 125.62C139.901 125.62 141.255 125.797 142.594 126.146C142.172 124.031 142.193 121.922 142.667 119.807C145.036 109.953 156.297 107.474 163.104 109.62C172.344 112.521 176.422 119.891 172.531 130.458C170.021 137.276 163.109 138.625 158.109 138.635C160.203 141.625 161.984 144.792 163.458 148.125V148.146ZM179.87 174.38C179.807 174.417 179.74 174.443 179.672 174.474L179.87 174.38ZM182.26 169.521C185.198 171.125 186.328 174.833 187.016 177.87C187.234 178.823 187.396 179.812 187.536 180.755C188.187 179.578 188.75 178.38 189.302 177.167C189.521 176.677 189.74 176.187 189.948 175.693L190.057 175.443C190.151 175.219 190.245 174.995 190.333 174.792C190.708 173.865 191.068 172.943 191.411 172C192.057 170.302 192.599 168.568 193.104 166.823C193.859 164.25 194.469 161.646 194.932 159.005C195 158.578 195.068 158.161 195.13 157.75C195.13 157.656 195.161 157.568 195.177 157.464C195.177 157.234 195.234 156.995 195.25 156.755C195.26 156.385 195.344 156.026 195.49 155.677C195.635 155.339 195.844 155.031 196.109 154.766C196.375 154.5 196.682 154.292 197.031 154.146C197.37 154 197.734 153.922 198.109 153.911C198.516 153.911 198.911 153.911 199.312 153.839L199.672 153.807C200.312 153.703 200.943 153.562 201.562 153.38C201.854 153.292 202.135 153.188 202.432 153.083L202.578 153.036L202.74 152.948C203.255 152.703 203.75 152.417 204.224 152.104L204.531 151.896L204.62 151.828L205.016 151.484C205.417 151.115 205.797 150.729 206.151 150.318C206.151 150.286 206.323 150.089 206.396 150.01C206.469 149.932 206.62 149.698 206.734 149.526C207.031 149.094 207.312 148.63 207.573 148.125C207.615 148.047 207.995 147.193 208.146 146.901C208.078 147.047 208.01 147.271 208.146 146.984L208.203 146.828L208.271 146.641C208.365 146.411 208.448 146.182 208.521 145.948C208.844 145.036 209.109 144.109 209.328 143.177C209.557 142.24 209.74 141.297 209.891 140.349C209.932 140.078 209.974 139.812 210.01 139.536V139.396C210.068 138.958 210.115 138.516 210.161 138.104C210.417 135.74 210.542 133.365 210.531 130.979C210.531 129.74 210.469 128.5 210.365 127.266C210.365 126.922 210.307 126.568 210.266 126.229C210.266 126.078 210.224 125.927 210.214 125.776C210.214 125.719 210.177 125.562 210.167 125.484C210.156 125.406 210.115 125.167 210.109 125.099C210.068 124.818 210.01 124.536 209.958 124.25C209.766 123.214 209.505 122.193 209.182 121.182C209.104 120.911 209.005 120.651 208.906 120.375C208.88 120.312 208.859 120.245 208.839 120.172V120.203C208.833 120.187 208.833 120.177 208.839 120.161C208.839 120.115 208.802 120.073 208.786 120.036C208.714 119.833 208.661 119.865 208.708 119.974C208.542 119.682 208.422 119.271 208.292 119.026C208.083 118.635 207.844 118.271 207.604 117.901V117.865C207.49 117.724 207.375 117.589 207.25 117.464C207.13 117.328 206.943 117.146 206.776 117.005L206.734 116.969C206.469 116.812 206.203 116.646 205.932 116.495C205.75 116.443 205.573 116.385 205.391 116.339H205.453H205.375L205.135 116.297C205.01 116.26 204.969 116.297 204.99 116.297H204.937C204.698 116.297 204.469 116.297 204.24 116.297H204.208C203.771 116.385 203.339 116.495 202.911 116.635C202.698 116.703 201.911 117.057 202.604 116.729L201.953 117.036C201.432 117.271 200.932 117.531 200.448 117.823C199.901 118.167 199.37 118.536 198.849 118.917L198.708 119.031L198.271 119.38C197.969 119.641 197.672 119.896 197.37 120.161C197.208 120.318 197.031 120.453 196.839 120.562C196.646 120.677 196.443 120.766 196.234 120.828C196.021 120.896 195.802 120.937 195.578 120.953C195.354 120.969 195.135 120.958 194.917 120.922C194.693 120.885 194.484 120.828 194.276 120.74C194.068 120.656 193.875 120.547 193.693 120.417C193.51 120.286 193.349 120.141 193.203 119.969C193.057 119.802 192.927 119.625 192.828 119.427C192.865 119.76 192.901 120.073 192.932 120.432C193.37 124.844 192.906 129.161 191.542 133.385C190.172 137.542 187.943 141.172 184.844 144.276C181.495 147.505 177.62 149.885 173.214 151.396C170.885 152.24 168.516 152.969 166.115 153.573L165.609 153.693C167.464 159.24 168.849 164.896 169.771 170.677C170.099 172.615 170.453 174.562 170.771 176.5C171.812 174.453 173.151 172.615 174.776 170.99C175.714 170.073 176.807 169.406 178.057 169C179.531 168.583 180.927 168.75 182.26 169.505V169.521ZM206.349 150.099L206.411 150.01C206.302 150.135 206.115 150.401 206.349 150.078V150.099ZM204.406 151.979C204.406 151.979 204.5 151.917 204.609 151.818C204.547 151.859 204.484 151.911 204.422 151.964L204.406 151.979ZM237.146 108.495C235.141 97.9479 232.5 87.5 229.469 77.2031C226.505 67.125 222.979 57.1979 218.083 47.8698C213.193 38.5469 207.062 29.5156 199.021 22.6354C191.745 16.4062 182.875 12.7292 173.63 10.5885C168.839 9.53645 164 8.7604 159.12 8.27082C153.542 7.61978 147.99 6.77603 142.391 6.43749C136.979 6.10936 131.547 6.31249 126.339 7.8802C125 8.2604 123.703 8.73436 122.443 9.30207C120.922 9.99999 119.724 10.7656 118.057 10.0989C118.297 10.1979 118.667 10.3437 118.396 10.25C116.875 9.66665 115.323 9.16145 113.745 8.74478C112.328 8.3802 110.901 8.08332 109.458 7.84895L108.12 7.64061C107.896 7.64061 107.677 7.58332 107.469 7.55728C106.531 7.45832 105.583 7.36978 104.635 7.31249C102.49 7.18228 100.339 7.16666 98.1927 7.27603C97.0208 7.33332 95.8594 7.43228 94.6979 7.55728L93.7969 7.67186L93.4635 7.71874C92.8125 7.81249 92.2135 7.91145 91.599 8.02603C88.9375 8.5052 86.3281 9.16665 83.7604 9.99999C82.375 10.4323 81 10.9375 79.651 11.5156L79.2552 11.6771L78.8698 11.8333L77.8125 12.3125C77.1614 12.5989 76.5156 12.9062 75.8958 13.2187C72.8385 14.7552 69.901 16.4896 67.0885 18.4427C64.0208 20.5625 61.125 22.9062 58.401 25.4583C51.651 31.8594 45.7812 38.9792 40.8021 46.8281C34.4323 56.6302 29.0208 67.1823 23.8906 77.6771C15.0937 95.6094 8.43749 114.51 8.16144 134.552C8.09894 139.745 8.38019 144.932 8.99999 150.089C8.99999 150.198 9.11457 150.938 9.13019 151.156C9.15103 151.38 9.18228 151.427 9.20311 151.568C9.32811 152.255 9.44269 152.948 9.55728 153.63C10.6198 159.911 11.5573 166.208 12.3802 172.521C13.4687 180.182 14.1562 187.88 14.4479 195.615C14.5469 199.526 14.5885 203.625 13.25 207.354C11.9531 210.953 9.78124 214.005 7.60936 217.073C8.49478 217.271 9.39061 217.453 10.2864 217.604C12.651 217.943 15.0312 218.161 17.4219 218.25C20.2552 218.365 23.0833 218.349 25.9114 218.25C31.25 218.073 36.5781 217.604 41.8958 217.078C44.651 216.792 47.3802 216.417 50.0781 215.948C49.3021 214.286 48.5729 212.609 47.8854 210.911C47.0781 208.927 46.3489 206.896 45.6823 204.828C45.3854 207.198 44.875 209.516 44.1562 211.792C44.0312 212.172 43.7708 212.359 43.3698 212.359C43.2812 212.359 43.1875 212.344 43.0989 212.312C42.8802 212.234 42.7187 212.099 42.6146 211.891C42.5156 211.682 42.5 211.469 42.5781 211.245C43.5208 208.521 44.1458 204.37 44.4792 200.672C43.25 196.062 42.5781 191.38 42.4739 186.62C42.4167 183.828 42.6667 181.073 43.2187 178.339C42.5729 174.536 41.8437 170.766 41.1042 167.042C40.1562 162.115 39.1042 156.969 38.4583 151.891C38.4271 151.667 38.4792 151.453 38.6198 151.276C38.7552 151.094 38.9375 150.984 39.1667 150.953C39.3958 150.922 39.5989 150.974 39.7812 151.115C39.9687 151.255 40.0781 151.432 40.1094 151.667C40.8073 156.693 41.8281 161.807 42.8125 166.76C43.3333 169.349 43.8542 172.016 44.3437 174.677C44.8333 173.214 45.5833 171.901 46.6094 170.74C46.8073 170.51 47.026 170.292 47.2552 170.094C46.8229 168.88 46.4375 167.661 46.0989 166.432C44.6771 161.224 43.7239 155.927 43.2239 150.557C42.6771 145.182 42.4896 139.792 42.4479 134.37C40.776 128.057 40.7448 121.74 42.3489 115.411C42.4271 115.146 42.5 114.88 42.5729 114.625C42.5729 112.604 42.5729 110.589 42.6094 108.573C42.6094 107.714 42.7344 106.854 42.8489 105.99C43.3542 101.724 44.3385 97.5729 45.7917 93.5365C48 87.4062 51.151 81.8125 55.2656 76.7552C60.4479 70.4844 66.7031 65.5781 74.0417 62.0417C78.9635 59.651 84.1719 57.7708 89.2969 55.875C93.6094 54.2812 97.9583 52.7812 102.349 51.4323C108.052 49.5885 113.865 48.2187 119.792 47.3125C122.984 46.776 126.187 46.6823 129.406 47.0417L129.885 47.1198C131.307 45.8437 132.911 44.8802 134.714 44.2344C136.51 43.5885 138.365 43.2969 140.271 43.375C144.474 43.4792 148.505 44.8906 152.271 46.6614C156.214 48.5729 159.927 50.8698 163.401 53.5469C169.609 58.2187 175.734 63.6042 180.214 70.026C181.828 72.3958 183.349 74.8229 184.75 77.3073C181.885 66.2604 175.896 52.4219 166.781 43.6667C155.609 32.9062 143.594 32.9375 128.375 32.9948H125.583C125.354 32.9948 125.156 32.9167 124.99 32.7552C124.828 32.5885 124.745 32.3906 124.745 32.1614C124.745 31.9323 124.828 31.7344 124.99 31.5729C125.156 31.4062 125.354 31.3281 125.583 31.3281H128.37C143.344 31.2917 156.276 31.2448 167.953 42.4844C178.208 52.3542 184.609 68.3802 187.172 80.0417C187.26 80.4375 187.125 80.7396 186.76 80.9323C187.526 82.3854 188.25 83.849 188.943 85.3385C192.344 92.6458 194.911 100.24 196.635 108.109C196.979 109.708 197.286 111.349 197.583 112.953C201.203 110.708 205.453 109.422 209.328 111.792C213.333 114.25 214.979 119.26 215.677 123.646C216.464 128.911 216.49 134.188 215.755 139.464C215.187 143.995 214.224 148.703 211.599 152.536C210.214 154.63 208.432 156.297 206.255 157.542C204.49 158.495 202.609 159.099 200.62 159.37C200.391 160.875 200.109 162.37 199.771 163.854C199.021 167.167 198.057 170.411 196.891 173.604C195.292 177.995 193.344 182.224 191.047 186.292C189.953 188.24 188.776 190.078 187.526 191.891C186.677 198.531 184.969 204.953 182.401 211.146C186.354 210.865 190.312 210.812 194.271 210.776C202.443 210.714 210.656 210.776 218.807 209.932L220.312 209.766L220.87 209.698L221.151 209.656C222.062 209.521 222.974 209.375 223.88 209.208C225.578 208.896 227.25 208.49 228.896 207.984C229.656 207.745 230.406 207.474 231.141 207.187L231.635 206.964C231.979 206.802 232.323 206.625 232.661 206.453C233.276 206.115 233.87 205.734 234.448 205.354L234.802 205.089L234.604 205.234L234.771 205.104C235.021 204.875 235.286 204.656 235.526 204.411C235.766 204.167 235.984 203.927 236.203 203.677V203.646L236.146 203.74L236.229 203.615V203.646C236.443 203.339 236.443 203.349 236.375 203.443L236.406 203.406C236.568 203.151 236.734 202.906 236.885 202.635C236.974 202.49 237.219 201.911 237.219 201.932C237.427 201.391 237.604 200.833 237.74 200.276C237.823 199.948 237.891 199.63 237.948 199.281C237.979 199.104 238.005 198.922 238.042 198.729C238.042 198.802 238.042 198.844 238.042 198.891C238.042 198.932 238.042 198.781 238.042 198.75C238.219 195.5 238.089 192.26 237.651 189.042C237.193 184.687 236.771 180.339 236.724 175.964C236.698 169.979 237.224 164.047 238.297 158.161C238.297 157.958 238.318 157.755 238.359 157.552C239.437 152.417 240.052 147.224 240.203 141.974C240.562 130.708 239.26 119.49 237.167 108.474L237.146 108.495ZM51.2604 174.807L51.3698 174.896L51.2917 174.818L51.2604 174.807ZM64.7396 187.948C64.7396 188.036 64.7396 188.005 64.6823 187.604V187.641C64.7083 187.708 64.7239 187.818 64.7396 187.917V187.948ZM51.0521 174.594L51.1094 174.646L51.0521 174.594Z" fill="black"/>
<path d="M158.01 125.255C158.755 122.943 157.958 118.781 154.766 117.755C152.427 117.026 149.167 118.74 148.359 122.125C147.776 124.552 148.859 128.844 151.37 129.474C151.385 129.479 156.099 131.167 158.01 125.255ZM167.224 125.193C167.911 124.37 168.849 120.964 166.948 119.417C165.542 118.276 162.568 116.896 161.63 118.417C160.688 119.927 160.281 123.359 161.505 124.526C161.505 124.526 165.87 126.818 167.224 125.193ZM164.208 128.865C163.818 127.875 160.875 127.354 160.156 127.74C159.078 128.318 158.438 130.385 158.896 131.271C159.474 132.375 161.755 132.615 162.859 131.917C162.859 131.943 164.938 130.771 164.208 128.865ZM75.75 125.948C76.5 123.63 75.6927 119.474 72.5365 118.453C70.1927 117.719 66.9375 119.443 66.1302 122.818C65.5469 125.245 66.6302 129.536 69.1459 130.167C69.1459 130.167 73.8438 131.865 75.75 125.948ZM84.9636 125.885C85.6563 125.062 86.5886 121.656 84.6875 120.115C83.2813 118.969 80.3125 117.594 79.3698 119.115C78.4271 120.63 78.0209 124.052 79.2448 125.219C79.2448 125.219 83.6042 127.536 84.9636 125.885ZM81.9427 129.557C81.5573 128.562 78.6094 128.047 77.8907 128.437C76.8125 129.021 76.1719 131.078 76.6302 131.958C77.2084 133.062 79.4948 133.312 80.5938 132.604C80.599 132.63 82.6771 131.458 81.9427 129.557Z" fill="white"/>
</svg>
