<svg width="250" height="235" viewBox="0 0 250 235" fill="none" xmlns="http://www.w3.org/2000/svg">
<path d="M243.714 207.859C237.51 223.724 191.714 215.104 179.042 220.229C179.042 220.229 186.229 210.943 192.995 195.484L83.0938 217.255C74.3073 220.172 64.1458 223.12 54.8438 224.13C43.0573 225.401 24.625 227.167 14.1562 223.24C17.8229 217.594 21.9271 213.589 22.375 206.729C23.349 191.818 17.3438 158.26 17.3438 158.26C12.9063 124.167 23.3021 99.8906 42.5 65.0573C79.6719 -2.67188 126.953 18.5885 126.953 18.5885C139.536 12.0469 152.625 15.0729 166.234 16.5469C182.849 18.3437 197.943 22.3906 209.849 34.7917C224.734 50.3125 232.318 70.5469 237.859 90.8698C243.818 112.693 250.089 140.656 244.87 164.635C240.573 188.26 247.219 198.88 243.714 207.859Z" fill="#DE4D86"/>
<path d="M200.531 125.734C200.531 125.734 199.094 103.182 183.458 80.4896C176.833 70.901 149.172 46.4687 137.917 60.0104C137.917 60.0104 130.172 55 88.1353 72.0573C55.8541 85.1562 55.2863 116.651 55.2863 116.651C55.3436 121.057 55.2863 125.641 55.1926 130.302C54.927 130.062 54.6405 129.823 54.3384 129.599C46.6197 123.875 24.8697 134.526 18.9582 140.458C4.5051 154.891 0.229054 170.786 6.02593 191.531C13.3541 217.714 23.703 223.016 37.9166 231.714L72.2603 225.13C72.2603 212.443 67.3749 202.708 66.9113 191.745C71.0884 199.484 76.2343 206.495 83.1666 212.354C94.2863 221.74 119.521 227.437 136.672 225.901C201.687 220.073 203.213 163.161 203.213 163.161C215.25 162.87 217.177 151.443 217.849 143.396C219.156 127.786 214.391 113.443 200.531 125.734ZM50.3853 171.5C47.1926 173.49 40.9166 175.161 38.2186 165.573C35.3176 155.25 44.3384 151.427 49.828 147.052C51.8072 145.536 53.5728 143.797 55.1249 141.844C55.1926 149.802 55.6145 157.865 57.1145 165.526C54.9009 167.562 52.8957 169.937 50.3853 171.505V171.5Z" fill="#E6B48C"/>
<path d="M181.828 168.729C179.687 170.771 177.573 172.828 175.516 174.964C175.12 175.354 174.651 175.599 174.104 175.703C173.557 175.812 173.031 175.755 172.516 175.547C172.005 175.333 171.589 174.995 171.281 174.531C170.969 174.073 170.812 173.562 170.802 173.005C170.802 172.646 170.802 172.297 170.802 171.937C169.479 172.74 168.156 173.578 166.833 174.318C166.094 174.74 165.328 174.802 164.536 174.51C164.536 174.583 164.536 174.599 164.536 174.51C164.458 175.151 164.203 175.708 163.771 176.182C163.51 176.443 163.214 176.641 162.875 176.781C162.536 176.922 162.182 176.995 161.818 176.995C161.448 176.995 161.099 176.922 160.76 176.781C160.422 176.641 160.12 176.443 159.859 176.182C159.312 175.635 159.042 174.969 159.052 174.193C159.245 172.469 159.714 170.823 160.458 169.26C161.151 167.885 161.99 166.609 162.974 165.427C163.51 164.88 164.161 164.615 164.927 164.615C165.417 164.635 165.88 164.76 166.318 164.995C166.849 165.302 167.229 165.745 167.448 166.323C167.589 166.661 167.656 167.016 167.646 167.38C168.932 166.568 170.255 165.828 171.62 165.161C172.417 164.714 173.24 164.667 174.083 165.021C174.911 165.354 175.443 165.948 175.677 166.812C175.682 166.849 175.682 166.88 175.677 166.917L177.875 164.786C178.141 164.536 178.437 164.344 178.776 164.208C179.115 164.073 179.469 164.005 179.833 164.005C180.198 164.005 180.547 164.073 180.885 164.208C181.224 164.344 181.526 164.536 181.786 164.786C182.047 165.047 182.25 165.349 182.396 165.687C182.536 166.026 182.609 166.38 182.615 166.75C182.62 167.12 182.552 167.474 182.417 167.818C182.281 168.161 182.083 168.464 181.828 168.729ZM95.3854 170.844C95.7708 171.51 95.8645 172.214 95.6718 172.958C95.4531 173.667 95.026 174.219 94.401 174.609C93.8541 175 93.276 175.339 92.6666 175.62C92.4166 175.755 92.1145 176.005 91.8489 176.12C91.7083 176.255 91.2604 176.823 91.7343 176.182C90.8958 177.312 89.6406 177.896 88.2812 177.318C87.7291 177.094 87.2864 176.729 86.9583 176.224C85.7968 177.016 84.5729 177.703 83.2968 178.292C82.8645 178.531 82.3958 178.651 81.901 178.651C81.4062 178.651 80.9375 178.531 80.5052 178.292C79.8541 177.906 79.427 177.349 79.2187 176.62C78.9583 176.859 78.7083 177.104 78.4687 177.37C77.4531 178.531 75.6198 178.339 74.5625 177.37C74.3125 177.109 74.1198 176.807 73.9791 176.469C73.8437 176.13 73.776 175.781 73.776 175.417C73.776 175.047 73.8437 174.698 73.9791 174.359C74.1198 174.021 74.3125 173.719 74.5625 173.458C76.0989 171.724 78.1666 170.573 79.7968 168.943C80.1927 168.552 80.6718 168.302 81.2187 168.198C81.7656 168.094 82.2968 168.151 82.8125 168.37C83.3281 168.583 83.7395 168.927 84.052 169.391C84.3593 169.859 84.5156 170.37 84.5156 170.932C84.5104 171.042 84.5104 171.151 84.5156 171.26C85.5833 170.552 86.6354 169.823 87.7187 169.161C88.026 168.995 88.3541 168.891 88.6979 168.844C89.0416 168.797 89.3854 168.807 89.7239 168.885C90.0677 168.958 90.3802 169.094 90.677 169.281C90.9687 169.469 91.2187 169.703 91.427 169.984L91.5989 169.87C92.2708 169.458 92.9791 169.365 93.7343 169.583C94.4531 169.781 95 170.203 95.3854 170.844ZM91.8906 171.953C91.8958 172.073 91.8958 172.193 91.8906 172.318C91.9166 171.937 91.9062 171.88 91.8906 171.953ZM126.12 175.76C116.104 174.536 113.87 189.198 123.682 188.958L123.844 189.177C133.214 190.609 135.594 176.937 126.125 175.76H126.12Z" fill="#DE4D86"/>
<path d="M40.7188 20.1354C46.5053 24.4635 51.5574 24.0625 58.8855 23.5312C47.0886 26.2708 39.2501 41.3802 38.0053 52.276C38.224 45.1979 38.4688 38.5781 32.6563 34.2708C28.1511 30.9531 18.5417 32.0521 15.0105 31.1771C33.7553 29.4323 34.0365 19.0729 33.7188 3.27083C33.7188 3.27083 34.8803 15.7552 40.7188 20.1354Z" fill="#FFF871"/>
<path d="M205.87 114.359C206.005 114.536 206.057 114.734 206.031 114.958C206 115.177 205.896 115.354 205.714 115.49C205.573 115.609 205.411 115.667 205.224 115.661C204.953 115.667 204.729 115.562 204.563 115.344C199.156 108.312 198.651 96.901 198.12 84.8333C197.531 71.625 196.927 57.9635 189.943 48.8333C175.854 30.4479 153.703 30.5989 132.286 30.7448C130.411 30.7448 128.542 30.7448 126.698 30.7448C126.474 30.7448 126.281 30.6667 126.125 30.5104C125.969 30.3542 125.891 30.1614 125.891 29.9375C125.891 29.7135 125.969 29.5208 126.125 29.3646C126.281 29.2083 126.474 29.1302 126.698 29.1302C128.542 29.1302 130.406 29.1302 132.271 29.1302C154.12 28.9844 176.63 28.8229 191.198 47.8542C198.479 57.3854 199.141 71.3021 199.703 84.7656C200.281 96.5677 200.771 107.729 205.87 114.359ZM229.24 121.651C221.552 104.594 217.589 92.9323 215.854 72.7812C214.365 55.4271 211.88 40.4167 196.135 32.3542C185.318 26.8021 175.328 25.8229 164.76 24.7969C158.557 24.1927 152.141 23.5677 145.505 21.9323C145.292 21.8802 145.083 21.9062 144.896 22.026C144.703 22.1406 144.583 22.3073 144.526 22.5208C144.474 22.7396 144.505 22.9427 144.62 23.1354C144.734 23.3281 144.901 23.4479 145.115 23.5052C151.87 25.1667 158.359 25.7969 164.599 26.4062C175.016 27.4219 184.854 28.401 195.401 33.7917C210.375 41.4792 212.792 56.0573 214.245 72.9271C216 93.3125 220.005 105.099 227.771 122.323C231.464 130.516 233.609 141.875 233.813 154.328C233.995 168.807 231.792 182.906 227.193 196.635C227.125 196.844 227.135 197.052 227.24 197.25C227.339 197.448 227.49 197.583 227.703 197.656C227.786 197.687 227.87 197.703 227.964 197.703C228.349 197.703 228.604 197.521 228.729 197.151C233.375 183.245 235.599 168.964 235.401 154.302C235.219 141.615 233.021 130.016 229.24 121.635V121.651ZM241.885 203.99C241.797 204.469 241.885 204.198 241.885 203.99V203.99ZM188.255 115.891L188.146 115.745L188.052 115.63C188.12 115.729 188.198 115.823 188.276 115.917L188.255 115.891ZM192.521 126.693C192.589 127.286 192.521 126.901 192.521 126.693V126.693ZM147.849 105.615L147.781 105.646L147.568 105.745L147.849 105.615ZM145.115 107.208L145.031 107.281L144.948 107.344C144.823 107.453 144.76 107.516 145.135 107.187L145.115 107.208ZM190.911 120.432V120.385L190.833 120.229L190.943 120.474L190.911 120.432ZM177.182 107.766H177.068L177.234 107.839L177.182 107.766ZM165.781 104.724H165.635L165.87 104.76L165.781 104.724ZM192.573 134.573C192.573 134.573 192.573 134.51 192.573 134.479V134.422L192.531 134.693L192.573 134.573ZM165.302 155.802C165.542 155.76 165.969 155.714 165.323 155.786L165.302 155.802ZM137.526 122.635C137.526 122.677 137.526 122.714 137.526 122.755V122.807C137.526 122.703 137.526 122.609 137.563 122.547C137.557 122.562 137.552 122.578 137.547 122.594L137.526 122.635ZM133.88 178.74C134.188 179.521 134.391 180.328 134.484 181.161C134.583 181.995 134.573 182.828 134.453 183.656C134.333 184.49 134.109 185.292 133.781 186.062C133.453 186.833 133.031 187.552 132.516 188.219C131.635 189.344 130.547 190.219 129.255 190.833C127.964 191.448 126.604 191.745 125.172 191.719C124.604 191.719 124.042 191.672 123.479 191.583V191.396C120.109 191.396 117.38 189.922 115.964 187.312C115.578 186.542 115.302 185.734 115.135 184.891C114.974 184.047 114.922 183.193 114.99 182.333C115.052 181.474 115.234 180.641 115.526 179.833C115.818 179.021 116.214 178.266 116.714 177.562C118.849 174.391 122.401 172.859 126.432 173.349C129.943 173.776 132.667 175.724 133.901 178.698L133.88 178.74ZM129.396 180.594C128.844 179.266 127.604 178.427 125.802 178.208C122.839 177.849 121.323 179.375 120.677 180.323C120.188 181.005 119.896 181.771 119.807 182.609C119.719 183.448 119.844 184.255 120.182 185.026C120.766 186.094 121.922 186.609 123.604 186.573L123.693 190.099L124.188 186.818C126.604 187.187 127.969 186.151 128.682 185.26C129.214 184.594 129.547 183.844 129.682 183.005C129.818 182.167 129.734 181.349 129.438 180.557L129.396 180.594ZM163.594 127.078C159.083 126.693 152.625 130.812 157.557 138.401C160.484 142.885 166.906 139.568 166.906 139.568C172.646 135.375 170.427 127.625 163.615 127.042L163.594 127.078ZM173.557 126.969C173.401 126.839 173.094 126.641 173.557 126.969V126.969ZM172.089 119.844C172.208 119.536 172.318 119.234 172.427 118.927C172.641 118.302 172.828 117.682 173.089 117.062C173.214 116.812 173.286 116.547 173.307 116.266C173.391 115.896 173.375 115.526 173.26 115.161C173.052 114.443 172.63 113.891 171.99 113.51C171.318 113.12 170.604 113.026 169.859 113.229C169.13 113.422 168.578 113.849 168.208 114.505C167.646 115.75 167.281 117.068 166.786 118.344V118.391C165.906 118.26 165.026 118.182 164.135 118.156H163.589C163.589 117.74 163.542 117.328 163.5 116.911C163.396 116.156 163.333 115.401 163.307 114.641C163.307 114.276 163.24 113.922 163.099 113.583C162.958 113.245 162.76 112.943 162.5 112.682C162.245 112.422 161.943 112.224 161.604 112.083C161.266 111.943 160.917 111.87 160.547 111.87C159.786 111.875 159.135 112.146 158.594 112.687C158.057 113.24 157.786 113.901 157.786 114.677C157.786 115.432 157.901 116.187 157.974 116.943C158.031 117.552 158.073 118.167 158.078 118.776C155.719 119.271 153.51 120.156 151.458 121.427C149.432 122.656 147.828 124.297 146.646 126.349C146.458 126.667 146.344 127.005 146.292 127.37C146.24 127.734 146.266 128.094 146.354 128.448C146.448 128.807 146.609 129.13 146.828 129.422C147.052 129.714 147.318 129.953 147.635 130.141C147.953 130.323 148.292 130.443 148.656 130.495C149.021 130.542 149.38 130.521 149.734 130.427C150.089 130.333 150.411 130.177 150.703 129.953C150.995 129.729 151.234 129.458 151.417 129.141C151.599 128.818 151.797 128.479 152 128.208C152.125 128.062 152.255 127.906 152.385 127.771C152.656 127.479 152.948 127.198 153.245 126.932L153.682 126.583C152.901 127.245 153.552 126.682 153.76 126.536C154.484 126.031 155.245 125.589 156.042 125.208C156.26 125.109 157.125 124.771 156.172 125.135L156.76 124.901C157.198 124.74 157.651 124.594 158.083 124.458C159 124.187 159.927 123.979 160.865 123.833H160.729H161.193L161.802 123.781C162.297 123.745 162.802 123.724 163.307 123.714C163.818 123.708 164.323 123.714 164.833 123.755C165.063 123.755 165.297 123.755 165.526 123.818C165.76 123.875 166.401 123.948 166.141 123.901C167.036 124.052 167.922 124.25 168.792 124.505C169.063 124.583 169.328 124.677 169.599 124.771C169.87 124.865 170.891 125.328 169.995 124.911C170.51 125.151 171.036 125.38 171.536 125.661C172.052 125.937 172.542 126.24 173.021 126.568C173.26 126.734 173.49 126.911 173.729 127.083L173.609 127L174.063 127.385C174.323 127.641 174.625 127.833 174.964 127.969C175.297 128.109 175.651 128.177 176.016 128.177C176.38 128.177 176.729 128.109 177.068 127.969C177.406 127.833 177.708 127.641 177.969 127.385C178.927 126.344 179.125 124.484 177.969 123.469C176.219 121.917 174.266 120.698 172.109 119.802L172.089 119.844ZM160.833 123.823H160.786C161.208 123.781 161.229 123.776 161.125 123.781H161.052L160.833 123.823ZM83.2136 127.677C75.5625 127.859 74.9844 137.38 80.6771 140.562C80.6771 140.562 87.0261 143.589 89.9427 138.661C93.9167 129.307 87.2656 127.552 83.25 127.651L83.2136 127.677ZM92.3021 125.865C92.7396 126.229 92.4531 125.979 92.3021 125.865V125.865ZM73.6927 126.714L73.7552 126.661L73.7084 126.693L73.6927 126.714ZM66.6927 126.495C67.875 124.469 69.4479 122.823 71.4219 121.552C70.7552 120.755 70.1771 119.927 69.5729 119.104C69.3177 118.677 69.1927 118.214 69.1927 117.714L69.2969 116.979C69.4948 116.255 69.9219 115.698 70.5677 115.318C70.8802 115.115 71.2188 115.01 71.5938 114.995C72.3594 114.849 73.0365 115.031 73.6302 115.536C73.9427 115.729 74.1771 115.99 74.3438 116.312C74.6615 116.75 75.0104 117.177 75.3073 117.641C75.6042 118.104 76.099 118.62 76.5313 119.078C77.5469 118.74 78.5834 118.464 79.6354 118.266C79.5156 117.172 79.4375 116.068 79.3802 114.948C79.3698 114.172 79.6354 113.505 80.1875 112.958C80.4427 112.698 80.7448 112.5 81.0834 112.359C81.4219 112.219 81.7709 112.151 82.1406 112.151C82.5052 112.151 82.8594 112.219 83.1979 112.359C83.5313 112.5 83.8334 112.698 84.0938 112.958C84.625 113.516 84.8906 114.177 84.9011 114.948C84.9531 115.917 85.0209 116.875 85.125 117.839C87.5209 117.911 89.8177 118.427 92.0104 119.401C94.2031 120.37 96.1302 121.724 97.7969 123.453C98.0521 123.714 98.2448 124.016 98.3802 124.354C98.5156 124.693 98.5834 125.042 98.5834 125.406C98.5834 125.771 98.5156 126.125 98.3802 126.464C98.2448 126.802 98.0521 127.104 97.7969 127.365C97.5365 127.62 97.2396 127.818 96.9011 127.958C96.5625 128.099 96.2084 128.167 95.8438 128.167C95.4792 128.167 95.125 128.099 94.7865 127.958C94.4479 127.818 94.1511 127.62 93.8906 127.365C93.4688 126.891 93.0156 126.453 92.5313 126.036C92.4063 125.932 92.2813 125.839 92.1615 125.734C92.2031 125.776 92.25 125.818 92.3021 125.854C92.0417 125.672 91.7865 125.495 91.5209 125.328C91.0313 125.021 90.5261 124.745 90.0052 124.5L89.7709 124.401C89.5 124.292 89.2292 124.187 88.9531 124.099C88.125 123.833 87.2865 123.63 86.4271 123.49L85.849 123.411C85.5886 123.411 85.3229 123.365 85.0677 123.349C84.5886 123.349 84.1042 123.349 83.6302 123.349C83.1511 123.349 82.5834 123.396 82.0677 123.453L81.7865 123.484L81.2604 123.568C80.25 123.75 79.2604 124 78.2865 124.318C77.9219 124.448 77.5573 124.578 77.1979 124.719L76.8698 124.859C76.6459 124.964 76.4271 125.062 76.2084 125.177C75.4011 125.578 74.6354 126.042 73.9011 126.568L73.7656 126.677L74.0156 126.469L73.7552 126.682H73.7188C73.6042 126.776 73.5313 126.833 73.7188 126.682L73.3594 126.984C73.0677 127.245 72.7813 127.516 72.5209 127.802C72.375 127.964 72.2344 128.125 72.0938 128.292C71.875 128.604 71.6719 128.927 71.4948 129.26C71.3021 129.562 71.0573 129.818 70.7656 130.026C70.474 130.234 70.1563 130.385 69.8073 130.469C69.4584 130.552 69.1094 130.568 68.7552 130.516C68.4011 130.464 68.0677 130.349 67.7604 130.167C67.4531 129.984 67.1875 129.75 66.9688 129.469C66.75 129.182 66.5938 128.87 66.4948 128.526C66.3959 128.177 66.3698 127.828 66.4063 127.474C66.4479 127.115 66.5521 126.776 66.7188 126.464L66.6927 126.495ZM77.0729 124.75L76.8698 124.828L77.0729 124.75ZM247.604 165C247.599 165.12 247.589 165.234 247.573 165.354C246.422 171.693 245.984 178.089 246.25 184.526C246.432 188.958 247.036 193.344 247.401 197.755C247.656 200.901 247.708 204.141 246.859 207.214C246.443 208.708 245.792 210.099 244.906 211.375C244.021 212.651 242.953 213.75 241.698 214.661C236.151 218.854 228.396 219.766 221.693 220.359C213.682 221.078 205.615 220.948 197.578 221.026C194.021 221.068 190.453 221.13 186.911 221.443C186.25 221.495 185.589 221.573 184.927 221.651C184.818 221.651 184.266 221.74 184.104 221.766L183.255 221.911C182.078 222.115 180.932 222.432 179.813 222.859C177.661 223.719 175.266 220.651 176.698 218.797C178.313 216.698 179.74 214.448 181.141 212.208L181.224 212.062C179.135 213.766 176.948 215.333 174.672 216.771C168.563 220.578 162.042 223.437 155.115 225.359C146.917 227.734 138.552 228.911 130.021 228.891C120.865 228.76 111.891 227.411 103.094 224.859C97.9531 223.458 93.0261 221.526 88.3021 219.052L87.2031 219.271L84.4271 219.823C82.4323 220.328 80.4636 220.932 78.5313 221.641C77.2709 222.031 76 222.401 74.7344 222.766C74.7761 223.542 74.7969 224.328 74.7969 225.109C74.7969 225.448 74.7344 225.771 74.6042 226.083C74.474 226.391 74.2917 226.667 74.0521 226.906C73.8177 227.146 73.5417 227.328 73.2292 227.458C72.9219 227.583 72.599 227.651 72.2604 227.651C71.9219 227.651 71.599 227.583 71.2917 227.458C70.9792 227.328 70.7031 227.146 70.4688 226.906C70.2292 226.667 70.0469 226.391 69.9167 226.083C69.7917 225.771 69.724 225.448 69.724 225.109C69.724 223.505 69.6459 221.906 69.5 220.307C69.5 219.943 69.4271 219.578 69.3854 219.214C69.3125 218.833 69.2656 218.453 69.25 218.062C69.25 217.875 69.1875 217.682 69.1615 217.49C69.1042 217.109 69.0417 216.734 68.9792 216.349C68.0104 210.568 66.2865 204.943 65.2552 199.182C64.6771 196.177 64.3698 193.146 64.3334 190.089C64.3334 186.807 64.75 183.583 65.5729 180.411C66.375 177.333 67.5625 174.38 68.3438 171.286C68.5052 170.625 68.6511 169.922 68.7709 169.234C68.7709 169.172 68.8125 168.927 68.8334 168.823V168.729C68.8334 168.443 68.8854 168.156 68.8959 167.875C68.9167 167.344 68.9063 166.818 68.8594 166.292C68.8594 166.167 68.8021 166.042 68.7709 165.922C68.7292 165.755 68.6771 165.599 68.6146 165.437C68.5573 165.339 68.5 165.24 68.4323 165.141C68.4063 165.104 68.375 165.068 68.3438 165.031C68.2813 164.974 68.2188 164.917 68.1563 164.859C68.0781 164.807 67.9531 164.724 67.8334 164.656L67.6927 164.604C67.5573 164.557 67.4219 164.516 67.2813 164.484C66.9584 164.396 66.6198 164.323 66.2865 164.271L65.8906 164.24C65.5834 164.219 65.2761 164.219 64.9688 164.24C64.6771 164.203 64.3854 164.229 64.099 164.302C64.099 164.302 64.8073 164.182 64.4063 164.255L64.2292 164.292L63.8281 164.375C63.5521 164.437 63.2917 164.51 63.0313 164.589C62.7709 164.667 62.1927 164.958 62.5209 164.797C62.125 164.979 61.7396 165.187 61.3646 165.411C61.1302 165.557 60.9063 165.703 60.7031 165.854L60.4219 166.062C57.1146 168.781 54.4636 172.573 50.4896 174.437C49.8802 174.724 49.2552 174.969 48.6094 175.177C49.2292 175.984 49.8073 176.812 50.3438 177.656C51.6146 179.604 52.4479 181.729 52.8334 184.026C53.1719 186.63 53.0729 189.224 52.5313 191.797C52.0469 194.411 51.3594 197.01 49.75 199.182C48.0729 201.521 45.8646 203.135 43.1302 204.031C41.8177 204.453 40.4792 204.641 39.1042 204.583C37.7292 204.531 36.4011 204.24 35.1302 203.714C33.1979 202.865 31.5417 201.443 29.7344 200.359C29.224 200.052 28.6979 199.771 28.1615 199.521C28.1094 199.521 27.8906 199.422 27.7917 199.365C27.5573 199.281 27.3177 199.193 27.0781 199.13C26.8438 199.062 26.5625 199.016 26.3125 198.953H25.9688C25.7448 198.953 25.5261 198.953 25.3073 198.953H25.2656L24.8959 199.047C24.5729 199.125 24.2552 199.135 23.9271 199.089C23.6042 199.036 23.2969 198.927 23.0156 198.755C22.7344 198.589 22.4948 198.375 22.2917 198.109C22.0938 197.849 21.9531 197.557 21.8646 197.24C21.7813 196.922 21.7552 196.599 21.7969 196.271C21.8386 195.943 21.9375 195.635 22.0938 195.349C22.2552 195.057 22.4636 194.812 22.7188 194.604C22.974 194.396 23.2552 194.245 23.5729 194.146C24.2656 193.958 24.9688 193.854 25.6823 193.839C28.224 193.776 30.6615 194.922 32.7813 196.245C33.7084 196.818 34.6042 197.443 35.5156 198.047C35.9115 198.307 36.3177 198.562 36.7344 198.802C36.9271 198.917 37.125 199.026 37.3229 199.13L37.4219 199.172C37.5834 199.229 37.7396 199.286 37.9011 199.328L38.2917 199.401L38.474 199.432H39.0573C39.3229 199.432 39.5938 199.432 39.8646 199.432H40.5625L40.9375 199.359C41.2084 199.302 41.4792 199.229 41.7448 199.141L42.1406 199.036L42.2709 198.969L42.4427 198.891L42.7865 198.719C43.0052 198.599 43.2292 198.469 43.4479 198.339C43.6667 198.203 43.849 198.068 44.0521 197.927L44.3073 197.708C44.7084 197.349 45.0781 196.969 45.4219 196.552L45.4688 196.5L45.6198 196.286C45.7761 196.052 45.9323 195.818 46.0781 195.573C46.2188 195.318 46.3594 195.068 46.4844 194.807L46.625 194.516C46.8125 193.99 46.9896 193.464 47.1198 192.917C47.4219 191.693 47.6771 190.458 47.8542 189.214L47.8959 188.865C47.8959 188.609 47.9479 188.354 47.9688 188.099C47.9688 187.589 48.0209 187.068 48.0104 186.557C47.9948 186.047 47.9688 185.625 47.9219 185.156C47.9219 185.057 47.9219 184.958 47.8698 184.859C47.8281 184.635 47.7813 184.411 47.7292 184.198C47.6146 183.729 47.4792 183.266 47.3125 182.812C47.2656 182.677 47.2136 182.552 47.1667 182.427C47.1198 182.302 47.1198 182.312 47.0938 182.26C47 182.005 47.25 182.646 47.2344 182.583C47.1615 182.349 47.0573 182.13 46.9271 181.922C46.4167 180.901 45.8229 179.927 45.1511 179.005L44.8438 178.583L44.7709 178.484C44.6042 178.286 44.4479 178.083 44.2813 177.875C43.8959 177.406 43.5052 176.937 43.0938 176.49C42.4792 175.818 41.8177 175.193 41.1094 174.62L40.8334 174.391L40.2969 174C39.8438 173.682 39.3906 173.385 38.9115 173.104C38.4011 172.802 37.8698 172.531 37.3281 172.281L37.2188 172.24L36.9636 172.13C36.7031 172.031 36.4375 171.937 36.1667 171.854C35.5938 171.667 35.0104 171.516 34.4167 171.406L34.0781 171.354H33.9948C33.6927 171.323 33.3959 171.302 33.099 171.297C32.75 171.297 32.3906 171.297 32.0417 171.297L31.5834 171.333C30.9323 171.453 30.2865 171.609 29.6563 171.807C29.3229 171.917 28.9844 171.958 28.6354 171.932C28.2865 171.901 27.9584 171.802 27.6511 171.641C27.3438 171.474 27.0834 171.255 26.8646 170.979C26.6459 170.708 26.4896 170.401 26.4011 170.062C26.3073 169.724 26.2865 169.38 26.3386 169.036C26.3854 168.687 26.5052 168.365 26.6875 168.068C26.8698 167.771 27.1042 167.521 27.3906 167.318C27.6771 167.12 27.9896 166.984 28.3334 166.911C29 166.687 29.6823 166.521 30.3802 166.411C32.2084 166.135 34.0313 166.182 35.849 166.552C35.6719 165.943 35.5313 165.328 35.4219 164.703C34.8698 161.802 35.1927 159 36.3906 156.297C38.3073 152.026 42.4948 149.318 46.1667 146.719L47.4063 145.766C47.5938 145.63 47.7709 145.495 47.9479 145.354C48.1302 145.214 48.1667 145.187 48.2761 145.099C49.5938 144.031 50.8281 142.87 51.974 141.62C52.2448 141.328 52.5052 141.026 52.7552 140.724C52.8438 140.62 52.9271 140.516 53.0052 140.411L53.0469 140.359C53.4271 139.844 53.7761 139.307 54.0938 138.755C54.25 138.479 54.3959 138.203 54.5313 137.917C54.5417 137.891 54.5573 137.865 54.5781 137.839C54.5781 137.792 54.6094 137.75 54.625 137.703C54.8073 137.224 54.9531 136.729 55.0521 136.224C55.0521 136.193 55.0521 136.151 55.0521 136.099C55.0573 136.078 55.0573 136.057 55.0521 136.031C55.0677 135.812 55.0677 135.594 55.0521 135.37C55.0521 135.073 54.875 134.26 55.0521 135.224C55.0052 135.026 54.9792 134.818 54.9323 134.615C54.8854 134.406 54.8021 134.172 54.7292 133.953L54.6875 133.88C54.5781 133.661 54.4584 133.448 54.3229 133.214L54.1875 133.01C53.8959 132.667 53.5886 132.344 53.2656 132.042C53.1511 131.932 53.0417 131.844 52.9271 131.75L52.7969 131.635L52.6094 131.531C52.3542 131.37 52.0834 131.224 51.8073 131.094L51.5313 130.984L50.9896 130.818C50.6094 130.719 50.2292 130.646 49.8438 130.583H49.6198L48.9531 130.536C47.9844 130.495 47.0156 130.526 46.0469 130.63C45.7865 130.693 45.5209 130.724 45.2552 130.729H45.0573C44.5052 130.818 43.9479 130.927 43.4011 131.036C42.2865 131.276 41.1875 131.568 40.0886 131.896C38.9896 132.219 37.8386 132.62 36.7292 133.031C36.1719 133.234 35.6094 133.453 35.0521 133.693L34.5834 133.891L33.9219 134.182C31.7917 135.115 29.7188 136.151 27.6979 137.302C25.9479 138.281 24.2604 139.359 22.6459 140.542L22.5469 140.625L22.4948 140.661L22.3177 140.797C22.0886 140.969 22.2552 140.865 22.4011 140.75L22.0625 141C21.7656 141.245 21.4792 141.495 21.1927 141.745C20.2969 142.568 19.4584 143.469 18.6406 144.396C17.6459 145.474 16.6875 146.578 15.7656 147.714L15.3906 148.193L15.2709 148.339L15.0834 148.583C14.9792 148.724 14.8698 148.865 14.7709 149.01C14.3542 149.568 13.9531 150.135 13.5625 150.708C12.0365 152.927 10.7136 155.266 9.58856 157.719C9.43752 158.036 9.2969 158.38 9.15627 158.677C9.1094 158.797 9.05731 158.911 9.01044 159.031C8.76565 159.635 8.54169 160.245 8.34898 160.859C7.91148 162.089 7.53648 163.333 7.22919 164.594C6.9271 165.854 6.66669 167.135 6.45835 168.437L6.37502 168.969C6.37502 169.266 6.3021 169.562 6.27085 169.87C6.19794 170.531 6.14585 171.24 6.10419 171.932C5.94794 174.708 6.01565 177.479 6.31252 180.245C6.34377 180.599 6.39065 180.969 6.43231 181.323C6.43231 181.437 6.46356 181.552 6.47919 181.672C6.48961 181.786 6.47919 181.818 6.51044 181.891C6.61461 182.625 6.7344 183.359 6.86981 184.089C7.14065 185.609 7.46356 187.115 7.83856 188.615C8.61981 191.75 9.56773 194.854 10.6459 197.901C11.1354 199.266 11.6563 200.62 12.2084 201.969L12.2448 202.042L12.4427 202.51L12.8177 203.365C13.0834 203.958 13.3646 204.547 13.6459 205.13C14.6823 207.271 15.8542 209.328 17.1615 211.312C17.4688 211.766 17.7709 212.214 18.0886 212.641C18.2552 212.87 18.4271 213.104 18.599 213.302L18.7656 213.521C19.3802 214.302 20.0104 215.073 20.6771 215.807C21.9948 217.271 23.4011 218.635 24.8959 219.911C25.2604 220.219 25.625 220.526 25.9948 220.823L26.5573 221.271L26.6771 221.359C27.4375 221.943 28.2084 222.5 28.9948 223.042C32.3021 225.328 35.7344 227.365 39.1511 229.458C39.4427 229.63 39.6927 229.849 39.9011 230.115C40.1094 230.385 40.2552 230.682 40.3438 231.01C40.4323 231.339 40.4531 231.672 40.4063 232.005C40.3594 232.344 40.25 232.656 40.0834 232.948C39.9115 233.245 39.6875 233.49 39.4167 233.698C39.1459 233.901 38.849 234.042 38.5209 234.13C38.1927 234.214 37.8594 234.229 37.5261 234.182C37.1927 234.13 36.8802 234.021 36.5886 233.844C34.8646 232.792 33.1302 231.745 31.4167 230.682C30.1719 229.906 28.9427 229.104 27.7188 228.286C22.9011 228.068 17.9219 227.552 13.375 225.87C11.8021 225.297 10.6719 223.411 11.7292 221.807C12.7813 220.203 13.9584 218.594 15.0365 216.984C14.2813 216.031 13.5625 215.042 12.875 214.021C9.93752 209.495 7.59898 204.682 5.85419 199.578C3.56252 193.427 2.01565 187.089 1.21877 180.568C0.593771 174.875 0.942729 169.245 2.26565 163.672C3.59898 158.25 5.82294 153.224 8.93752 148.599C10.3594 146.479 11.9011 144.453 13.5729 142.526C13.5729 139.25 13.7448 135.984 14.0834 132.724C15.3542 120.089 18.9479 107.958 23.849 96.2865C26.599 89.7552 29.6719 83.375 32.9219 77.0521C36.3906 70.3281 39.9115 63.5781 43.8594 57.151C50.1094 46.9323 57.5886 37.2135 66.7604 29.4271C73.5417 23.5469 81.1511 19.0729 89.5886 16.0156C95.8698 13.8021 102.344 12.6823 109.005 12.6562C113.677 12.6354 118.281 13.1875 122.818 14.3229C124.188 14.6667 125.536 15.0885 126.865 15.5781C128.344 14.875 129.865 14.276 131.422 13.7656C138.854 11.3594 146.771 11.5625 154.438 12.3854C161.99 13.1979 169.667 13.9583 177.12 15.3594C183.974 16.5573 190.526 18.6823 196.786 21.7239C203.24 25.0208 208.865 29.3906 213.667 34.8281C223.792 46.1042 230.594 59.8177 235.589 74.0417C238.036 81.0312 240.052 88.1615 241.917 95.3177C243.839 102.698 245.573 110.125 246.896 117.625C249.656 133.24 250.891 149.406 247.604 165ZM18.5938 221.651L19.5 221.844L18.875 221.245L18.5938 221.651ZM25.5313 198.828C25.474 198.823 25.4219 198.823 25.3646 198.828C25.4896 198.828 25.5521 198.828 25.5313 198.828ZM26.599 198.896C26.5521 198.885 26.5052 198.885 26.4584 198.896H26.599ZM42.2604 198.896L42.3334 198.865L42.2604 198.896ZM43.8438 197.979C43.8802 197.964 43.9167 197.937 43.9427 197.906L43.8438 197.979ZM58.25 122.344C58.1563 122.62 58.0677 122.901 57.9792 123.177C57.9792 125.25 57.9792 127.312 57.9792 129.38C57.9844 129.437 57.9844 129.49 57.9792 129.547C59.3386 131.167 60.0729 133.036 60.1823 135.151C60.2084 137.599 59.5365 139.839 58.1667 141.865C58.2761 142.203 58.3906 142.526 58.5156 142.875C58.6406 143.219 58.7031 143.37 58.7917 143.615L58.9271 143.906L58.8229 143.687C59.0104 144.094 59.1823 144.51 59.3854 144.922C60.1719 146.547 61.1094 148.078 62.1927 149.526L62.25 149.604L62.349 149.74L62.6979 150.161C62.9896 150.521 63.2969 150.865 63.6094 151.203C64.1979 151.865 64.8125 152.458 65.4531 153.047C65.7969 153.354 66.1406 153.651 66.4896 153.943L66.9167 154.297L66.7865 154.193L66.9792 154.339L67.0261 154.375C67.1094 154.448 67.25 154.542 67.1823 154.49C67.8438 154.99 68.5521 155.464 69.2656 155.906C69.9844 156.349 70.7656 156.781 71.5469 157.172C71.974 157.391 72.4063 157.599 72.8698 157.792L72.9896 157.844L73.5469 158.068C75.2136 158.714 76.9271 159.203 78.6823 159.547C79.1198 159.635 79.5573 159.708 80.0052 159.776C79.75 159.734 79.9688 159.776 80.1146 159.776L80.3906 159.812H80.1875L80.7813 159.88C81.6823 159.964 82.5834 160.021 83.4844 160.031C84.3854 160.047 85.4115 160.031 86.3698 159.937C86.8386 159.901 87.3073 159.849 87.7813 159.792H87.8854L88.5469 159.687C90.0573 159.427 91.5365 159.068 92.9948 158.604C93.4063 158.479 93.8125 158.339 94.2136 158.187L94.875 157.917L95.2656 157.74C96.7917 157.042 98.2448 156.224 99.6302 155.281C100.026 155.01 100.417 154.724 100.802 154.443L101 154.281L101.563 153.818C102.411 153.094 103.214 152.318 103.969 151.495C104.359 151.073 104.734 150.635 105.094 150.167L105.198 150.036L105.068 150.214L105.292 149.917C105.479 149.672 105.651 149.427 105.823 149.172C106.568 148.099 107.229 146.969 107.807 145.792C107.969 145.474 108.115 145.13 108.255 144.828C108.255 144.792 108.255 144.755 108.302 144.719C108.349 144.677 108.385 144.531 108.417 144.437C108.682 143.776 108.922 143.109 109.13 142.448C109.589 140.964 109.927 139.458 110.156 137.922C110.156 138.099 110.156 137.87 110.193 137.724V137.672C110.193 137.599 110.193 137.521 110.224 137.437V137.62L110.281 137.135C110.328 136.708 110.365 136.286 110.396 135.854C110.464 134.937 110.495 134.026 110.495 133.109C110.49 131.146 110.359 129.187 110.104 127.24C110.104 127.115 110.068 126.974 110.057 126.901L109.938 126.172C109.865 125.729 109.786 125.297 109.703 124.875C109.531 124.01 109.323 123.146 109.094 122.292C108.859 121.432 108.615 120.667 108.328 119.87C108.193 119.464 108.042 119.068 107.875 118.667V118.568L107.641 118.052C106.99 116.625 106.208 115.271 105.297 113.99L105.115 113.74C105.057 113.677 105.005 113.609 104.958 113.536C104.729 113.25 104.495 112.969 104.25 112.698C103.776 112.161 103.271 111.646 102.745 111.161C102.464 110.901 102.182 110.651 101.891 110.411L101.443 110.052L101.646 110.219L101.458 110.078C100.875 109.646 100.271 109.25 99.6511 108.88C99.0261 108.505 98.3281 108.141 97.6667 107.818L97.1094 107.573C96.7656 107.432 96.4479 107.292 96.0625 107.167C94.5156 106.625 92.9375 106.208 91.3281 105.922C90.9323 105.849 90.5261 105.781 90.1302 105.719C90.4688 105.776 90.2188 105.719 90.0417 105.719L89.7813 105.682L90.0052 105.714L89.4427 105.646C88.5313 105.557 87.625 105.49 86.7188 105.448C84.8334 105.365 82.9531 105.396 81.0729 105.547C80.6094 105.589 80.1459 105.646 79.6823 105.703H79.5365L78.875 105.812C78.0052 105.964 77.1511 106.146 76.2969 106.365C75.4479 106.583 74.6042 106.833 73.7761 107.12C73.3386 107.271 72.9011 107.432 72.4531 107.604L71.9688 107.802L72.3646 107.646L71.9011 107.839C70.3698 108.516 68.9115 109.328 67.5209 110.271C67.1667 110.51 66.8229 110.755 66.4896 111.005L66.4063 111.068L66.0573 111.344C65.3959 111.875 64.7865 112.437 64.1875 113.026C63.5938 113.609 63.0886 114.167 62.5834 114.766C62.4271 114.943 62.2813 115.12 62.1459 115.297C62.1042 115.344 62.0677 115.391 62.0313 115.437C61.8334 115.708 61.6354 115.969 61.4479 116.24C60.5209 117.578 59.7136 118.99 59.0417 120.474C59 120.568 58.9479 120.667 58.9011 120.766L58.8594 120.87L58.7396 121.167C58.5313 121.568 58.3854 121.953 58.25 122.344ZM67.849 90.5729L67.5261 91.0104C67.2969 91.3177 67.0677 91.6719 66.8646 91.9583C66.4167 92.6198 65.9844 93.2812 65.5417 93.9479C64.7448 95.2187 64.0052 96.526 63.3177 97.8594C63.0052 98.4687 62.7084 99.0885 62.4167 99.7135C62.2656 100.036 62.1198 100.375 61.974 100.693L61.7917 101.104C61.3177 102.286 60.8594 103.464 60.4688 104.672C59.8073 106.651 59.2656 108.656 58.8334 110.698C60.5938 108.693 62.5781 106.948 64.7917 105.469C71.2656 101.12 79.2136 99.5781 86.9063 99.9479C94.0886 100.286 101.266 102.318 106.656 107.281C109.12 109.583 111.047 112.276 112.443 115.354C114.052 118.99 115.099 122.781 115.578 126.729C115.578 126.828 115.578 126.932 115.625 127.042C115.724 127.781 115.797 128.531 115.865 129.286C121.161 129.151 126.458 129.057 131.714 128.755C131.552 122.125 132.854 115.172 136.167 109.406C137.891 106.312 140.24 103.792 143.208 101.854C144.698 100.917 146.292 100.224 147.99 99.7656C149.839 99.3177 151.714 99.0365 153.615 98.9271C157.401 98.6042 161.177 98.6562 164.953 99.0885C168.932 99.5 172.818 100.349 176.604 101.641C183.885 104.208 190.786 108.687 194.677 115.573C195.984 117.927 196.917 120.417 197.474 123.052C196.615 117.417 195.266 111.906 193.411 106.516C192.75 104.589 192.057 102.672 191.286 100.781C191.156 100.448 191.016 100.115 190.88 99.7865C190.859 99.7292 190.839 99.6719 190.813 99.6198L190.734 99.4375C190.516 98.9271 190.286 98.4219 190.073 97.9115C189.63 96.9583 189.188 96.0104 188.745 95.0677C186.521 90.4844 183.964 86.0885 181.078 81.8854C180.88 81.6042 180.677 81.3177 180.469 81.0364C180.349 80.901 180.24 80.7448 180.125 80.5989C179.625 79.9792 179.104 79.3698 178.578 78.7656C177.292 77.3177 175.927 75.9271 174.552 74.5781C173.172 73.2292 171.703 71.9271 170.214 70.651C169.443 69.9896 168.646 69.3229 167.844 68.7083L167.469 68.401H167.432L166.943 68.026C166.563 67.7344 166.172 67.4427 165.771 67.1562C162.51 64.7135 159.026 62.6302 155.333 60.9167L154.922 60.7292C154.807 60.6823 154.453 60.5937 154.833 60.7292C155.219 60.8594 154.625 60.6406 154.51 60.5937C154.078 60.4219 153.641 60.2552 153.188 60.0989C152.344 59.7969 151.484 59.5364 150.62 59.3229C150.198 59.2135 149.776 59.125 149.359 59.0417L148.74 58.9323H148.672C147.885 58.8385 147.094 58.8021 146.302 58.8177C145.938 58.8177 145.573 58.8594 145.214 58.8906H145.177L144.625 58.9948C144.26 59.0781 143.901 59.1771 143.547 59.2969C143.375 59.3489 143.208 59.4167 143.042 59.4739C142.703 59.6406 142.38 59.8073 142.052 60.0052C141.891 60.0989 141.734 60.2031 141.573 60.3125L141.5 60.3646L141.552 60.3021L141.469 60.3958H141.5C141.286 60.6614 141.255 60.6562 141.333 60.5573C141.125 60.75 140.859 60.9271 140.672 61.1146C140.375 61.4062 140.104 61.7083 139.839 62.0208C139.411 62.4479 138.901 62.7031 138.302 62.7969C137.708 62.8854 137.141 62.7917 136.609 62.5104C136.427 62.4583 136.25 62.4062 136.073 62.3646C135.891 62.3281 135.781 62.3021 135.635 62.276C134.656 62.1823 133.672 62.1458 132.688 62.1562C131.943 62.1562 131.193 62.2135 130.443 62.2812L129.12 62.4114L128.458 62.5H128.38C125.927 62.8437 123.505 63.3437 121.094 63.9062C113.411 65.8073 105.87 68.1771 98.4792 71.0156C95.9688 71.9479 93.474 72.9114 90.9896 73.9062L88.8698 74.7656L88.4011 74.9583L88.2552 75.0156L87.7865 75.2239C86.7813 75.6667 85.8021 76.1458 84.8073 76.6406C82.9531 77.5833 81.1563 78.6302 79.4219 79.776C78.6042 80.3229 77.8021 80.8854 77.0156 81.4687L76.5834 81.7969C76.5313 81.8437 76.3281 81.9948 76.224 82.0781C75.8698 82.3594 75.5261 82.651 75.1719 82.9427C73.8177 84.0885 72.5261 85.3021 71.3021 86.5833C70.7031 87.2083 70.1198 87.8437 69.5573 88.5C69.2761 88.8333 68.9948 89.1667 68.7188 89.5104L68.3073 90.0156C68.25 90.0937 67.8646 90.5573 68.1302 90.2396C68.3959 89.9219 67.9115 90.4896 67.8646 90.5729H67.849ZM192.615 134.422C192.615 134.208 192.661 134 192.688 133.76C192.88 131.74 192.88 129.719 192.688 127.698C192.688 127.396 192.625 127.094 192.589 126.786L192.547 126.484C192.547 126.557 192.547 126.599 192.547 126.646C192.547 126.693 192.547 126.646 192.547 126.609C192.474 126.089 192.38 125.578 192.281 125.068C192.109 124.13 191.891 123.198 191.62 122.281C191.49 121.854 191.344 121.417 191.182 120.99L190.964 120.427C190.964 120.479 191.005 120.521 191.031 120.578L190.932 120.339C190.865 120.187 190.766 119.974 190.854 120.182C190.516 119.432 190.141 118.698 189.724 117.99C189.297 117.255 188.828 116.552 188.318 115.87L188.417 115.99L188.297 115.844L188.104 115.604C188.005 115.479 187.906 115.359 187.807 115.245C187.536 114.927 187.266 114.62 186.979 114.323C186.417 113.719 185.818 113.151 185.203 112.604C184.859 112.302 184.51 112.01 184.151 111.729C183.984 111.604 183.823 111.479 183.646 111.359C182.203 110.318 180.682 109.401 179.089 108.615C178.682 108.406 178.271 108.214 177.859 108.031L177.297 107.781L177.51 107.865L177.245 107.755L177.135 107.708C176.328 107.38 175.51 107.078 174.693 106.802C172.922 106.208 171.125 105.719 169.302 105.328C168.406 105.146 167.5 104.979 166.599 104.833L165.938 104.74H165.74L165.448 104.698L165.698 104.74C165.281 104.687 164.865 104.63 164.448 104.594C162.589 104.396 160.719 104.297 158.854 104.281C156.984 104.266 155.292 104.339 153.516 104.5C153.052 104.542 152.589 104.589 152.125 104.646L151.505 104.719C150.719 104.828 149.948 104.995 149.188 105.219C148.802 105.328 148.427 105.453 148.047 105.599L147.927 105.646L148.109 105.568L147.865 105.682L147.646 105.781C146.99 106.094 146.359 106.453 145.75 106.854L145.276 107.187L145.214 107.234L145.328 107.141L145.13 107.307L145.047 107.37C144.87 107.516 144.688 107.667 144.516 107.818C143.958 108.318 143.432 108.854 142.943 109.422C142.797 109.583 142.661 109.745 142.521 109.911L142.469 109.984C142.281 110.245 142.089 110.495 141.911 110.76C141.49 111.427 141.089 112.042 140.724 112.714C140.359 113.38 140.026 114.073 139.719 114.776C139.703 114.818 139.688 114.859 139.667 114.901C139.594 115.078 139.526 115.266 139.453 115.443C139.323 115.807 139.188 116.182 139.063 116.552C138.542 118.13 138.13 119.74 137.839 121.375C137.766 121.766 137.698 122.161 137.641 122.557C137.688 122.266 137.641 122.484 137.641 122.635C137.641 122.677 137.641 122.719 137.641 122.76L137.599 123.005C137.599 122.927 137.599 122.875 137.635 122.812C137.635 122.953 137.594 123.099 137.583 123.24C137.484 124.094 137.417 124.958 137.37 125.812C137.286 127.531 137.313 129.245 137.438 130.958C137.469 131.385 137.51 131.802 137.547 132.224C137.547 132.406 137.589 132.583 137.615 132.766C137.714 133.182 137.776 133.604 137.807 134.031C137.875 134.422 137.953 134.807 138.031 135.193C138.354 136.755 138.797 138.292 139.354 139.786C139.427 139.979 139.495 140.167 139.573 140.354L139.688 140.646L139.755 140.792C139.828 140.953 139.896 141.115 139.979 141.276C140.255 141.781 140.495 142.307 140.708 142.844C140.865 143.354 141.005 143.859 141.198 144.359C141.224 144.437 141.255 144.516 141.286 144.589C141.38 144.802 141.469 145.01 141.568 145.214C141.859 145.812 142.172 146.396 142.505 146.964C142.844 147.536 143.323 148.24 143.771 148.844C143.802 148.88 143.833 148.922 143.865 148.953C143.995 149.12 144.13 149.281 144.266 149.437C144.552 149.771 144.849 150.104 145.161 150.406C145.474 150.714 145.823 151.073 146.208 151.401L146.813 151.906L146.927 152.005C147.771 152.641 148.651 153.208 149.578 153.708C150.068 153.969 150.563 154.203 151.068 154.427L151.438 154.573L152.286 154.88C153.557 155.302 154.854 155.625 156.177 155.839L156.677 155.922C157.021 155.958 157.37 156 157.724 156.026C158.516 156.094 159.318 156.13 160.109 156.141C161.885 156.156 163.651 156.052 165.406 155.828H165.245L165.589 155.776L166.214 155.682C166.693 155.609 167.172 155.521 167.646 155.437C168.703 155.234 169.75 155.005 170.797 154.771C173.141 154.182 175.448 153.479 177.719 152.656L178.505 152.365L179.089 152.125L179.365 152L180.026 151.687C180.87 151.286 181.698 150.844 182.495 150.359C182.932 150.089 183.365 149.812 183.823 149.51L184.385 149.109L184.536 148.995C185.224 148.396 185.885 147.76 186.51 147.089C187.151 146.443 187.755 145.76 188.328 145.047L188.453 144.875L188.839 144.339C189.083 143.974 189.323 143.609 189.552 143.229C190.026 142.458 190.448 141.661 190.823 140.844C190.927 140.63 191.281 139.714 190.917 140.651C191.005 140.443 191.089 140.24 191.172 140.031C191.328 139.615 191.474 139.193 191.615 138.766C191.906 137.859 192.151 136.943 192.344 136.005C192.427 135.578 192.505 135.141 192.573 134.682C192.573 134.854 192.573 134.62 192.604 134.474L192.646 134.224C192.63 134.307 192.62 134.365 192.615 134.422ZM142.359 109.979C142.203 110.182 142.016 110.443 142.359 109.979V109.979ZM53.1354 131.833C53.0625 131.755 52.9792 131.687 52.8802 131.635C52.9792 131.74 53.1354 131.87 53.1354 131.833ZM54.1354 132.818C54.1354 132.818 54.1719 132.891 54.2448 132.974C54.2344 132.974 54.1667 132.854 54.1354 132.844V132.818ZM54.625 137.807C54.6615 137.74 54.6875 137.672 54.7031 137.599L54.625 137.807ZM40.8698 158.5C40.8334 158.568 40.8073 158.641 40.7865 158.714C40.8386 158.589 40.8906 158.474 40.8698 158.484V158.5ZM43.5521 169.964C43.5521 169.964 43.5052 169.922 43.4427 169.875L43.5521 169.964ZM40.6406 174.161H40.6875H40.6406ZM52.7084 166.26L54.125 164.849C53.9427 163.76 53.7709 162.667 53.6146 161.573C53.0261 157.089 52.6719 152.589 52.5573 148.073C51.9636 148.578 51.3594 149.068 50.7344 149.547C49.0469 150.87 47.2552 152.005 45.5521 153.292L45.4323 153.385L45.2865 153.5C45.0886 153.651 44.8959 153.812 44.7031 153.969C44.2813 154.328 43.8646 154.693 43.4688 155.078C43.0677 155.464 42.7188 155.818 42.3698 156.219L42.0781 156.562L41.9948 156.672C41.974 156.698 41.9531 156.724 41.9323 156.755L41.7396 157.036C41.4323 157.479 41.1563 157.943 40.9167 158.427L40.7813 158.719C40.7084 158.906 40.6459 159.099 40.5886 159.281C40.9115 162.068 41.2865 164.833 41.6771 167.573C41.9271 168.036 42.2031 168.474 42.5052 168.901C42.5886 169 42.6719 169.094 42.7604 169.187C42.8438 169.281 43.0781 169.51 43.2396 169.661L43.3229 169.734L43.3802 169.776C43.5573 169.901 43.7448 170.016 43.9375 170.115C44 170.151 44.0625 170.182 44.1302 170.214C44.2656 170.26 44.4011 170.312 44.5417 170.354C44.6771 170.391 44.8698 170.427 45.0365 170.458H45.1354C45.4844 170.484 45.8281 170.484 46.1771 170.458H46.2761C46.4479 170.427 46.6094 170.391 46.7761 170.349C47.1406 170.25 47.4948 170.135 47.8438 170L48.2761 169.792C48.5886 169.63 48.8959 169.453 49.1927 169.26C49.4323 169.104 49.6615 168.953 49.8906 168.786L50.1406 168.604C49.4792 165.245 48.875 161.849 48.4063 158.474C48.375 158.25 48.4271 158.052 48.5625 157.875C48.6979 157.693 48.875 157.589 49.0938 157.557C49.3177 157.526 49.5156 157.578 49.6927 157.714C49.875 157.849 49.9792 158.026 50.0104 158.25C50.4271 161.281 50.9688 164.339 51.5469 167.37C51.974 166.99 52.3386 166.625 52.7084 166.26ZM64.2084 159.115C63.1719 158.365 62.1823 157.552 61.2448 156.677C60.1927 155.682 59.2084 154.625 58.2969 153.5C58.3698 154.474 58.4427 155.49 58.5365 156.432C58.5938 157.094 58.6667 157.755 58.7396 158.422L58.8386 159.271C58.8386 159.464 58.8854 159.646 58.9115 159.839V160.021C58.9115 160.12 58.9584 160.344 58.9688 160.37C58.9688 160.51 58.9688 160.641 59.0209 160.776C60.625 159.828 62.3542 159.276 64.2084 159.115ZM67.7969 164.578C67.6875 164.51 67.5938 164.469 67.5781 164.484C67.6511 164.521 67.724 164.552 67.7969 164.578ZM81.8073 214.75C81.5052 214.505 81.1979 214.255 80.9011 214.005C77.3906 210.974 74.2396 207.604 71.4479 203.896C71.6094 204.599 71.7865 205.302 71.9479 206.005C72.8281 209.687 73.6459 213.396 74.1823 217.135C75.5052 216.76 76.7709 216.375 78.0625 215.969C79.349 215.562 80.5521 215.12 81.8073 214.75ZM178.755 206.948C180.844 205.156 182.802 203.229 184.63 201.172C185.51 200.187 186.344 199.182 187.156 198.141L187.411 197.802L187.958 197.062C188.323 196.573 188.672 196.078 189.01 195.573C190.385 193.578 191.641 191.516 192.776 189.375C193.313 188.38 193.823 187.359 194.313 186.318C194.542 185.844 194.76 185.359 194.974 184.865L195.313 184.089L195.359 183.99V183.932C196.807 180.422 197.979 176.818 198.865 173.125C199.214 171.682 199.526 170.219 199.771 168.755C199.875 168.156 199.969 167.552 200.052 166.958C200.052 166.87 200.052 166.792 200.089 166.714L200.167 166.047C200.281 165.073 200.385 164.057 200.411 163.109C200.422 162.745 200.495 162.396 200.641 162.062C200.781 161.724 200.984 161.427 201.24 161.172C201.5 160.911 201.797 160.714 202.13 160.568C202.464 160.427 202.818 160.354 203.177 160.344C203.563 160.344 203.953 160.344 204.339 160.276H204.807C205.385 160.177 205.958 160.047 206.521 159.885C206.807 159.802 207.083 159.703 207.365 159.599L207.505 159.562L207.661 159.474C208.161 159.24 208.635 158.974 209.094 158.667C209.219 158.589 209.339 158.5 209.458 158.411C209.521 158.365 209.583 158.318 209.641 158.26L209.906 158.031C210.292 157.677 210.656 157.302 210.99 156.906L211.104 156.771C211.234 156.547 211.38 156.344 211.547 156.151C211.839 155.714 212.109 155.266 212.354 154.823C212.526 154.359 212.745 153.917 213.016 153.5C213.026 153.469 213.036 153.437 213.052 153.411L213.271 152.828C213.589 151.922 213.854 151.005 214.078 150.068C214.297 149.146 214.479 148.214 214.625 147.271C214.672 147.005 214.708 146.745 214.745 146.49V146.448C214.797 145.995 214.859 145.547 214.906 145.12C215.151 142.839 215.271 140.547 215.26 138.25C215.26 137.016 215.198 135.781 215.089 134.552C215.063 134.224 215.031 133.891 214.99 133.557C214.99 133.474 214.927 133.031 214.917 132.964V132.896C214.917 132.755 214.88 132.62 214.854 132.479C214.823 132.339 214.771 132 214.724 131.76C214.542 130.729 214.286 129.714 213.964 128.708C213.766 128.307 213.604 127.896 213.474 127.464C213.51 127.661 213.661 127.786 213.542 127.531C213.516 127.479 213.49 127.432 213.469 127.375L213.396 127.219L213.089 126.63C212.891 126.26 212.667 125.901 212.427 125.552V125.516C212.307 125.385 212.203 125.255 212.083 125.13C211.964 125.005 211.786 124.828 211.63 124.682C211.615 124.667 211.594 124.651 211.573 124.646L210.828 124.193H210.74L210.208 123.875H210.177C210.036 123.875 209.891 123.875 209.755 123.875C209.615 123.875 209.318 123.875 209.094 123.875C208.682 123.958 208.276 124.057 207.88 124.187L207.396 124.359L206.859 124.609C206.375 124.854 205.901 125.12 205.443 125.417C204.917 125.745 204.396 126.109 203.896 126.49L203.776 126.573L203.354 126.922L202.484 127.672C202.328 127.818 202.156 127.948 201.969 128.052C201.781 128.161 201.583 128.245 201.38 128.307C201.172 128.37 200.964 128.411 200.745 128.422C200.531 128.437 200.318 128.427 200.104 128.391C199.891 128.354 199.688 128.292 199.49 128.208C199.292 128.125 199.104 128.021 198.927 127.896C198.755 127.766 198.599 127.62 198.458 127.458C198.313 127.297 198.193 127.12 198.094 126.927C198.135 127.24 198.172 127.542 198.203 127.854C198.635 132.151 198.193 136.349 196.875 140.458C195.552 144.469 193.406 147.969 190.432 150.964C187.172 154.141 183.391 156.469 179.094 157.958C176.844 158.76 174.563 159.474 172.25 160.052C165.286 161.781 157.62 162.5 150.703 160.177C148.365 159.401 146.198 158.292 144.198 156.849C142.198 155.411 140.453 153.703 138.974 151.734C137.37 149.615 136.177 147.281 135.396 144.734L135.302 144.458C135.146 144.141 135 143.797 134.854 143.495C134.464 142.615 134.094 141.719 133.776 140.802C133.031 138.667 132.505 136.479 132.193 134.245C126.802 134.562 121.406 134.656 116.01 134.792C115.745 140.87 114.104 146.964 110.62 151.995C107.859 155.984 104.354 159.151 100.109 161.49C98.125 162.599 96.0469 163.469 93.8646 164.099C90.5313 165.078 87.1302 165.547 83.6615 165.516C80.1875 165.479 76.7969 164.937 73.4844 163.891C74.3177 166.276 74.0261 168.922 73.5365 171.359C72.9219 174.448 71.7865 177.333 70.8906 180.365C70.4063 181.948 70.0417 183.562 69.7865 185.198C69.7865 185.359 69.7292 185.521 69.7136 185.682C69.6927 185.844 69.7136 185.844 69.7136 185.917C69.6667 186.292 69.625 186.672 69.599 187.047C69.5313 187.792 69.5 188.536 69.4792 189.286C69.4792 189.708 69.4792 190.135 69.4792 190.557C71.1719 193.719 73.0573 196.76 75.1459 199.672C75.3542 199.948 75.5573 200.234 75.7709 200.516L76.0104 200.833L76.1146 200.974L76.224 201.109C76.3073 201.208 76.3854 201.318 76.474 201.417L77.0469 202.141C77.8073 203.062 78.5886 203.969 79.3906 204.854C81 206.604 82.7031 208.266 84.4948 209.828C84.8854 210.167 85.2761 210.49 85.6823 210.823L85.7396 210.875H85.7761L86.224 211.214C86.9323 211.729 87.6615 212.214 88.4011 212.677C90.0104 213.672 91.6719 214.568 93.3802 215.37C93.8438 215.599 94.3125 215.807 94.7917 216.036L95.4063 216.307L95.5834 216.38L95.6927 216.427C96.6511 216.823 97.625 217.203 98.6094 217.562C100.599 218.297 102.635 218.948 104.682 219.552C109.01 220.781 113.396 221.729 117.844 222.391L118.714 222.516L119.052 222.562H119.089C119.62 222.63 120.151 222.703 120.688 222.76C121.74 222.88 122.797 222.979 123.854 223.068C125.979 223.24 128.12 223.344 130.25 223.359C132.24 223.359 134.255 223.312 136.25 223.146C137.339 223.057 138.417 222.948 139.495 222.823L141.13 222.62L141.391 222.583L142.208 222.464C146.141 221.885 150.016 221.052 153.844 219.969C155.615 219.464 157.37 218.896 159.099 218.271C159.932 217.964 160.76 217.656 161.583 217.323L162.208 217.062L162.323 217.016L163.453 216.521C166.401 215.203 169.24 213.682 171.969 211.964C173.255 211.151 174.51 210.286 175.734 209.375C175.953 209.219 176.208 209.062 176.432 208.885C176.432 208.885 176.464 208.833 176.615 208.714L177.068 208.359C177.651 207.891 178.208 207.453 178.755 206.953V206.948ZM211.198 156.682C211.219 156.651 211.245 156.62 211.271 156.589C211.536 156.286 211.281 156.562 211.193 156.687L211.198 156.682ZM241.036 116.333C239.099 106.13 236.536 96.0208 233.609 86.0677C230.714 76.2344 227.255 66.5469 222.484 57.4583C217.776 48.4896 211.813 39.8073 204.073 33.1875C197.016 27.1458 188.422 23.5833 179.464 21.5156C174.818 20.4896 170.13 19.7396 165.396 19.2604C159.995 18.6458 154.615 17.8125 149.182 17.4896C144.01 17.1771 138.818 17.3594 133.823 18.8125C132.464 19.1979 131.135 19.6771 129.849 20.2552C128.354 20.9167 127.266 21.6979 125.604 21.0312C125.844 21.1198 126.219 21.2812 125.953 21.1823C124.469 20.6146 122.958 20.1302 121.422 19.7239C120.057 19.3698 118.667 19.0573 117.276 18.8542C116.849 18.7812 116.427 18.7187 116.005 18.6562L115.344 18.5833C114.427 18.4739 113.51 18.3958 112.594 18.3385C110.536 18.2031 108.479 18.1875 106.422 18.2917C105.292 18.3489 104.161 18.4375 103.036 18.5625C102.719 18.5937 102.37 18.6562 102.078 18.6771L101.828 18.7135C101.224 18.8021 100.625 18.901 100.021 19.0052C97.4479 19.4687 94.9167 20.1094 92.4271 20.9167C91.0781 21.3594 89.7552 21.8437 88.4531 22.3698L87.9271 22.5833L87.7917 22.6406L86.7656 23.0937C86.1042 23.3906 85.4427 23.7031 84.7813 24.0208C81.849 25.4844 79.0365 27.1406 76.3386 29C75.5781 29.526 74.8281 30.0677 74.0886 30.6198L73.2136 31.2864L72.8125 31.6042L72.3802 31.9479C70.8906 33.1458 69.4427 34.3906 68.0365 35.6875C61.4948 41.8229 55.8073 48.6667 50.9636 56.2187C44.7604 65.7239 39.5156 75.9531 34.5156 86.125C26.6563 102.151 20.474 119.021 19.2865 136.802L19.6771 136.479C22.4011 134.437 25.2917 132.682 28.3542 131.203C29.1198 125.755 30.6667 120.531 32.9844 115.542C38.4427 103.823 46.6042 93.1823 54.5052 82.901C58.0261 78.3125 61.6615 73.5677 64.9636 68.8489C75.4271 53.8906 88.0781 42.3125 102.563 34.3906C102.76 34.2708 102.969 34.2448 103.188 34.3073C103.406 34.3698 103.573 34.5 103.682 34.6979C103.792 34.901 103.813 35.1094 103.745 35.3281C103.677 35.5417 103.542 35.7031 103.339 35.8073C89.0729 43.5937 76.6042 55.0417 66.2604 69.776C62.9531 74.5312 59.2917 79.2864 55.7552 83.8854C47.9167 94.1042 39.8073 104.667 34.4219 116.229C32.3386 120.75 30.9063 125.469 30.125 130.391L30.8802 130.042C35.4844 127.854 40.3125 126.38 45.3542 125.625C47.4375 125.339 49.5104 125.38 51.5781 125.75C51.7552 124.932 51.974 124.083 52.2396 123.005C52.2969 122.792 52.3594 122.583 52.4271 122.344C52.4271 120.427 52.4271 118.51 52.4636 116.599C52.4636 115.937 52.5417 115.271 52.6146 114.609C53.0313 110.672 53.8698 106.823 55.125 103.068C56.2136 99.7292 57.6198 96.5312 59.3334 93.4687C61.0469 90.4062 63.0417 87.5417 65.3177 84.8698C67.5938 82.2031 70.1094 79.7812 72.8594 77.6042C75.6094 75.4271 78.5417 73.5364 81.6615 71.9375C86.349 69.5104 91.375 67.6927 96.3073 65.8437C100.661 64.2083 105.052 62.6719 109.495 61.2812C115.177 59.4114 120.969 58.0104 126.875 57.0729C129.839 56.5364 132.818 56.3958 135.818 56.6562C136.208 56.7031 136.635 56.7552 137.063 56.8281C138.432 55.5989 139.979 54.6771 141.708 54.0469C143.432 53.4219 145.214 53.1406 147.047 53.2083C151.146 53.2864 155.094 54.6719 158.76 56.401C162.594 58.2604 166.193 60.4948 169.568 63.0989C175.563 67.6198 181.484 72.8281 185.813 79.0156C187.391 81.3125 188.87 83.6667 190.25 86.0781C187.484 75.4531 181.682 62.0573 172.844 53.5625C162.01 43.1302 150.333 43.1614 135.615 43.2031H132.911C132.693 43.2031 132.5 43.125 132.344 42.9687C132.182 42.8073 132.104 42.6198 132.104 42.3958C132.104 42.1719 132.182 41.9792 132.344 41.8229C132.5 41.6667 132.693 41.5833 132.911 41.5833H135.615C150.141 41.5469 162.661 41.5104 173.964 52.3958C183.896 61.9687 190.099 77.4896 192.589 88.8177C192.661 89.2031 192.531 89.4948 192.188 89.6875C192.906 91.0573 193.589 92.4375 194.234 93.8333C197.563 100.932 200.073 108.312 201.76 115.974C202.099 117.536 202.427 119.115 202.682 120.703C206.203 118.521 210.328 117.271 214.083 119.583C217.839 121.901 219.531 126.781 220.224 131.021C220.99 136.167 221.01 141.312 220.297 146.469C219.74 150.833 218.802 155.375 216.276 159.073C214.948 161.089 213.234 162.703 211.146 163.911C209.458 164.812 207.667 165.401 205.776 165.661C205.615 167.177 205.396 168.687 205.115 170.182C204.542 173.453 203.745 176.672 202.729 179.839C201.359 184.151 199.604 188.297 197.474 192.281C196.891 193.359 196.276 194.427 195.641 195.474C195.651 195.964 195.552 196.432 195.354 196.88C192.609 203.156 189.438 209.214 185.839 215.042C185.63 215.391 185.401 215.745 185.177 216.089L187.464 215.891C191.391 215.583 195.333 215.547 199.266 215.51C207.214 215.437 215.208 215.51 223.099 214.703L224.807 214.51L225.063 214.479L225.505 214.417C226.359 214.292 227.208 214.156 228.047 214C229.698 213.698 231.328 213.302 232.932 212.812C233.708 212.573 234.458 212.286 235.208 212H235.245L235.672 211.812C235.99 211.667 236.292 211.51 236.589 211.354C237.214 211.01 237.818 210.635 238.401 210.229L238.536 210.146L238.646 210.047C238.901 209.828 239.146 209.609 239.38 209.38C239.62 209.156 239.828 208.911 240.042 208.667L240.083 208.62L240.01 208.724L240.115 208.578V208.62C240.286 208.37 240.307 208.354 240.26 208.422L240.323 208.333C240.469 208.115 240.615 207.891 240.74 207.672C240.865 207.453 241.052 207.005 241.068 207.005C241.281 206.453 241.453 205.891 241.594 205.318C241.667 205.026 241.724 204.734 241.781 204.443C241.813 204.26 241.833 204.089 241.865 203.911C241.865 203.964 241.865 203.995 241.865 204.042C241.87 204.005 241.87 203.964 241.865 203.922C242.042 200.766 241.917 197.625 241.49 194.49C241.042 190.271 240.635 186.052 240.594 181.807C240.568 176.016 241.073 170.266 242.109 164.562C242.109 164.365 242.13 164.167 242.177 163.974C243.229 158.964 243.823 153.901 243.964 148.781C244.349 137.839 243.083 126.974 241.052 116.302L241.036 116.333ZM22.4844 140.734L22.6042 140.635L22.4844 140.734ZM12.2969 30.8125C12.3438 30.4844 12.4479 30.1719 12.6042 29.8802C12.7604 29.5885 12.9636 29.3333 13.2136 29.1146C13.4636 28.8958 13.7396 28.7239 14.0521 28.6042C14.3594 28.4844 14.6771 28.4167 15.0104 28.4114C15.5365 28.3594 16.0521 28.3073 16.5677 28.2396H16.6927L17.3542 28.1406C18.2031 28 19.0521 27.8333 19.8854 27.6302C20.7188 27.4219 21.4011 27.2239 22.1354 26.9635C22.474 26.8542 22.7969 26.7292 23.1354 26.5937L23.5469 26.4062C24.0729 26.1614 24.5886 25.8854 25.0886 25.5781C25.3334 25.4271 25.5729 25.276 25.8073 25.1094L26.0625 24.9271C26.4323 24.6198 26.7917 24.3073 27.1354 23.9687C27.3177 23.776 27.5 23.5833 27.6719 23.3854L27.9063 23.1042C27.9427 23.0677 27.974 23.026 28 22.9792L28.2084 22.6823C28.3438 22.4739 28.4792 22.2708 28.6042 22.0573C28.8542 21.6146 29.0886 21.1719 29.2969 20.7292C29.1667 21.0312 29.2969 20.7292 29.3646 20.5781C29.4063 20.5 29.4427 20.4114 29.4792 20.3281C29.4375 20.4114 29.4115 20.4792 29.3802 20.5469C29.4688 20.3073 29.5625 20.0729 29.6406 19.8281C29.8229 19.3073 29.9792 18.776 30.1146 18.2292C30.2448 17.6875 30.3594 17.1771 30.4584 16.6406C30.5104 16.3333 30.5625 16.0208 30.6094 15.7083V15.4844C30.7552 14.2448 30.8438 12.9948 30.8959 11.75C31.0156 8.93749 30.9584 6.12499 30.8959 3.31249C30.8906 2.74999 31.0417 2.23436 31.3542 1.77082C31.6615 1.30207 32.0781 0.95832 32.5938 0.744778C33.1094 0.531237 33.6459 0.479154 34.1927 0.588528C34.7448 0.703112 35.2136 0.95832 35.6094 1.35415C36.1459 1.88019 36.4375 2.52082 36.4844 3.27082C36.4844 3.40624 36.4844 3.54686 36.5261 3.68228C36.5261 3.71353 36.5261 3.73957 36.5261 3.77082C36.5261 3.91145 36.5677 4.0729 36.5834 4.15624C36.9531 6.71353 37.5625 9.20832 38.4063 11.651C38.5417 12.0208 38.6823 12.3906 38.8281 12.7604C38.8281 12.7708 38.8281 12.7864 38.8281 12.7969L39.0052 13.1979C39.3229 13.9167 39.6875 14.6094 40.099 15.2864C40.2969 15.6146 40.5052 15.9479 40.724 16.2552L40.9427 16.5312L40.7188 16.2292L41.0156 16.5937C41.2656 16.8906 41.5313 17.1719 41.8125 17.4427L42.1511 17.7552L42.2813 17.8594C42.9219 18.3281 43.5834 18.7604 44.2656 19.151C44.5938 19.3385 44.9323 19.5104 45.2552 19.6771L45.7917 19.9271H45.8594C46.5052 20.1927 47.1667 20.4114 47.8438 20.5937C48.2136 20.6823 48.599 20.7656 48.9844 20.8385L49.4115 20.9114H49.4531C52.6094 21.1458 55.7656 21.0937 58.9115 20.7552C59.2448 20.7604 59.5677 20.8229 59.8802 20.9427C60.1875 21.0573 60.4688 21.2292 60.7188 21.4479C60.9688 21.6719 61.1719 21.9271 61.3281 22.2239C61.4896 22.5156 61.5886 22.8281 61.6302 23.1562C61.6771 23.4896 61.6615 23.8177 61.5886 24.1406C61.5156 24.4687 61.3906 24.7708 61.2084 25.0469C61.0261 25.3281 60.7969 25.5677 60.5313 25.7656C60.2604 25.9583 59.9688 26.1042 59.6459 26.1979C58.9948 26.3489 58.349 26.5417 57.7136 26.7656L57.1927 26.9531L57.0729 27.0104L56.8854 27.0937L56.4636 27.2969C55.2813 27.8802 54.1667 28.5677 53.1146 29.3542L52.9531 29.4792L52.8542 29.5573C52.625 29.7448 52.3906 29.9427 52.1927 30.1458C51.75 30.5208 51.3281 30.9271 50.9063 31.3385C50.0313 32.2083 49.2136 33.1302 48.4479 34.0989L48.375 34.1875L48.2136 34.3958L47.6667 35.1562C47.3021 35.6771 46.9531 36.1979 46.6094 36.7292C45.9479 37.776 45.3334 38.8594 44.7656 39.9583C44.4792 40.526 44.2031 41.0885 43.9375 41.6562C43.7969 41.9635 43.6615 42.276 43.5261 42.5781V42.6354L43.4323 42.8437C42.9792 43.9792 42.5625 45.1354 42.1979 46.3021C41.8334 47.4687 41.5313 48.5104 41.3073 49.6198C41.1875 50.1614 41.0834 50.7135 40.9896 51.2708C40.9427 51.526 40.9063 51.7917 40.8646 52.0521C40.8698 52.1198 40.8698 52.1875 40.8646 52.2604C40.8334 53.0156 40.5625 53.6823 40.0573 54.25C39.6615 54.6458 39.1875 54.901 38.6354 55.0052C38.0834 55.1146 37.5521 55.0625 37.0313 54.8437C36.5156 54.625 36.1042 54.2812 35.7917 53.8073C35.4844 53.3385 35.3386 52.8229 35.3438 52.2604C35.3906 50.6458 35.4427 49.0364 35.4219 47.4167C35.4219 46.6719 35.3854 45.9219 35.3229 45.1719C35.2969 44.8177 35.2656 44.4687 35.224 44.1198C35.224 44.1198 35.224 44.0573 35.224 44.0312C35.224 43.8854 35.1771 43.75 35.1511 43.6042C35.0469 42.9792 34.9115 42.3646 34.7396 41.7552C34.6459 41.4323 34.5417 41.0937 34.4271 40.7969L34.3125 40.4792C34.0573 39.9271 33.7709 39.3958 33.4427 38.8854C33.3438 38.7239 33.2292 38.5677 33.125 38.4062C33.0209 38.25 32.7813 37.9948 32.5938 37.8021C32.349 37.5364 32.0938 37.276 31.8229 37.0364L31.4584 36.7187L31.3646 36.6458C30.9584 36.3542 30.5313 36.0937 30.0886 35.8698L29.9896 35.8073H30.0625H29.9792C29.8802 35.7552 29.75 35.6771 29.6875 35.6875L29.8073 35.75C29.5677 35.6562 29.3334 35.5677 29.0938 35.4948C28.5365 35.3177 27.9688 35.1719 27.3959 35.0521C26.8438 34.9323 26.2813 34.8437 25.7188 34.7552L25.2188 34.6979L24.3646 34.6146C23.1563 34.5104 21.9427 34.4531 20.7292 34.401C18.599 34.4167 16.4844 34.2292 14.3906 33.8333C14.0573 33.7552 13.7552 33.6198 13.474 33.4271C13.1927 33.2396 12.9584 33.0052 12.7656 32.7239C12.5729 32.4479 12.4323 32.1406 12.3542 31.8125C12.2709 31.4844 12.2552 31.151 12.2969 30.8125ZM35.0834 43.7864C35.0834 43.7864 35.0834 43.7656 35.0834 43.7864V43.7864ZM53.1511 29.3021C53.0834 29.3437 53.0209 29.3906 52.9636 29.4479L53.1511 29.3021ZM38.8646 12.8333C38.8854 12.9062 38.9167 12.9792 38.9584 13.0521L38.8646 12.8333ZM28.8021 29.7396C29.2656 29.8385 29.724 29.9583 30.1719 30.0885C31.4584 30.4479 32.6615 30.9896 33.7813 31.7083C35.2344 32.7083 36.4844 33.9114 37.5365 35.3281C38.2552 36.2864 38.8438 37.3229 39.2969 38.4323C40.8438 35.1771 42.7813 32.1719 45.0938 29.4062C46.0417 28.2864 47.0625 27.2396 48.1615 26.2604C44.9167 25.7239 41.9688 24.4792 39.3229 22.5208C39.1615 22.4062 39.0104 22.276 38.8646 22.1354C37.6198 21.1146 36.5573 19.9271 35.6823 18.5729C35.0729 21.8854 33.6771 24.8229 31.4948 27.3854C30.6927 28.276 29.7917 29.0625 28.8021 29.7396ZM29.3594 20.5364L29.2813 20.7239C29.349 20.6302 29.3646 20.5833 29.3854 20.5364H29.3594ZM29.7552 35.7969H29.6771L29.8542 35.8594L29.7552 35.7969ZM90.0052 105.729H89.9427H90.0886H90.0052ZM66.9844 154.339L67.0625 154.401L67.1875 154.49L66.9219 154.297L66.9844 154.339ZM80.1146 159.792H80.1927H79.9792H80.1146ZM110.24 137.807V137.651C110.24 137.635 110.24 137.615 110.24 137.599C110.24 137.75 110.203 137.849 110.193 137.906L110.24 137.807ZM180.458 81.0469C180.318 80.8542 179.896 80.401 180.464 81.0364L180.458 81.0469ZM213.521 127.26C213.516 127.286 213.516 127.318 213.521 127.344C213.521 127.318 213.521 127.286 213.521 127.26Z" fill="black"/>
</svg>
