<svg width="289" height="286" viewBox="0 0 289 286" fill="none" xmlns="http://www.w3.org/2000/svg">
<path d="M276.224 270.474C267.651 288.745 214.141 274.958 198.792 280.021C198.792 280.021 208.016 269.583 217.229 251.865L85.5624 268.964C74.9426 271.714 62.703 274.391 51.6249 274.859C37.578 275.437 15.651 276.078 3.58325 270.604C8.3645 264.229 13.5312 259.812 14.5989 251.74C16.9218 234.187 12.4322 194.047 12.4322 194.047C9.85408 153.38 24.0728 125.521 49.4374 85.8333C98.7343 8.67705 152.979 37.5312 152.979 37.5312C168.385 30.7968 183.615 35.3958 199.588 38.2083C219.13 41.6302 236.62 47.5885 249.729 63.1979C266.12 82.7187 273.51 107.234 278.443 131.698C283.771 157.969 289.005 191.521 280.958 219.458H280.995C274.052 247.062 281.083 260.146 276.224 270.474Z" fill="#DE4D86"/>
<path d="M68.8593 88.4375C65.2552 73.0989 53.0468 52.0208 49.1198 45.4896C48.6666 45.8281 48.1823 46.1094 47.6614 46.3333C47.1406 46.5573 46.6041 46.7239 46.0468 46.8281C45.4895 46.9323 44.9323 46.9739 44.3645 46.9583C43.802 46.9427 43.2448 46.8542 42.6927 46.7135C42.1458 46.5677 41.625 46.3646 41.1198 46.1094C40.6198 45.8437 40.151 45.5312 39.7187 45.1666C39.2916 44.8021 38.901 44.3906 38.5625 43.9375C38.2187 43.4896 37.9323 43.0104 37.6979 42.4896C37.4739 41.9739 37.2968 41.4375 37.1875 40.8854C37.0729 40.3333 37.0208 39.7708 37.0312 39.2083C37.0468 38.6406 37.1198 38.0885 37.2604 37.5416C37.3958 36.9948 37.5937 36.4635 37.8489 35.9583C38.0989 35.4583 38.4062 34.9844 38.7656 34.5521C39.1302 34.1094 39.5312 33.7239 39.9791 33.375C40.427 33.0312 40.9114 32.7344 41.4218 32.5C41.9375 32.2604 42.4687 32.0781 43.0208 31.9635C43.5729 31.8437 44.1302 31.7864 44.7031 31.7864C45.2656 31.7916 45.8229 31.8594 46.375 31.9948C46.927 32.125 47.4583 32.3125 47.9635 32.5573C48.4687 32.8073 48.9479 33.1041 49.3906 33.4583C49.8281 33.8125 50.2291 34.2135 50.5781 34.6562C50.9323 35.0989 51.2291 35.5781 51.4739 36.0833C51.7187 36.5937 51.9062 37.125 52.0364 37.6719C52.1614 38.2239 52.2291 38.7864 52.2291 39.3489C52.2291 40.3541 52.0364 41.3229 51.651 42.2604C51.2656 43.1927 50.7187 44.0104 50 44.7239C55.2656 46.9271 67.9531 49.25 75.5625 46.0729C83.5468 42.7812 86.1406 37.5521 88.125 26.6458C87.8177 26.7239 87.5052 26.7812 87.1823 26.8229C86.8645 26.8541 86.5468 26.8802 86.2239 26.875C85.901 26.8698 85.5833 26.8437 85.2708 26.8073C84.9479 26.7604 84.6354 26.6979 84.3281 26.6094C84.0156 26.5312 83.7135 26.4219 83.4166 26.3021C83.1198 26.1823 82.8333 26.0417 82.552 25.8802C82.276 25.7187 82.0052 25.5416 81.75 25.3489C81.5 25.1614 81.2552 24.9479 81.026 24.7291C80.7968 24.5 80.5833 24.2656 80.3802 24.0156C80.1823 23.7656 80.0052 23.5 79.8385 23.2187C79.677 22.9479 79.526 22.6666 79.3958 22.3698C79.2708 22.0781 79.1614 21.776 79.0729 21.4687C78.9791 21.1614 78.9114 20.8541 78.8593 20.5312C78.8073 20.2187 78.7812 19.901 78.7708 19.5781C78.7604 19.2604 78.7708 18.9427 78.802 18.6198C78.8333 18.3021 78.8906 17.9896 78.9583 17.6719C79.0312 17.3646 79.1198 17.0573 79.2291 16.7552C79.3437 16.4583 79.4687 16.1614 79.6198 15.8802C79.7656 15.5937 79.9375 15.3229 80.1198 15.0625C80.302 14.7969 80.5 14.5469 80.7187 14.3125C80.927 14.0729 81.1614 13.8489 81.401 13.6458C81.6458 13.4323 81.9062 13.2448 82.1718 13.0677C82.4427 12.8906 82.7187 12.7396 83.0104 12.5937C83.2968 12.4583 83.5937 12.3333 83.901 12.2344C84.2031 12.1302 84.5104 12.0469 84.8281 11.9844C85.1406 11.9219 85.4583 11.8802 85.776 11.8594C86.0989 11.8333 86.4218 11.8333 86.7395 11.8541C87.0573 11.875 87.3802 11.9166 87.6927 11.9739C88.0052 12.0312 88.3177 12.1094 88.6198 12.2135C88.927 12.3073 89.2239 12.4271 89.5156 12.5677C89.8073 12.7031 90.0885 12.8594 90.3541 13.026C90.6198 13.1979 90.8854 13.3958 91.1302 13.5989C91.375 13.8021 91.6093 14.0208 91.8229 14.2552C92.0416 14.4948 92.2395 14.7396 92.427 15.0052C92.6198 15.2656 92.7812 15.5312 92.9375 15.8177C93.0833 16.0989 93.2187 16.3906 93.3281 16.6927C93.4427 16.9896 93.5416 17.2969 93.6145 17.6041C93.6875 17.9166 93.7448 18.2344 93.7812 18.5521C93.8125 18.8698 93.8281 19.1927 93.8229 19.5104C93.8125 19.8333 93.7864 20.151 93.7395 20.4635C93.6875 20.7864 93.625 21.0937 93.5364 21.401C93.4479 21.7083 93.3437 22.0104 93.2187 22.3073C93.0885 22.5989 92.9479 22.8854 92.7812 23.1666C92.625 23.4375 92.4479 23.7083 92.2448 23.9583C92.052 24.2083 91.8437 24.4479 91.6145 24.6771C91.3854 24.9062 91.1458 25.1146 90.8906 25.3125C90.6406 25.5052 90.3698 25.6823 90.0989 25.8489C89.8177 26.0052 89.5312 26.151 89.2343 26.276C94.5052 31.2969 101.01 34.3437 108.948 33.6719C122.187 32.5469 126.948 23.7969 129.901 18.3854C129.589 18.3437 129.271 18.2708 128.958 18.1823C128.651 18.0937 128.349 17.9896 128.052 17.8646C127.755 17.7291 127.474 17.5885 127.198 17.4219C126.917 17.2604 126.656 17.0781 126.401 16.8802C126.146 16.6875 125.901 16.4739 125.682 16.2448C125.453 16.0208 125.24 15.7812 125.042 15.5208C124.849 15.2656 124.672 15.0052 124.505 14.7239C124.349 14.4479 124.203 14.1562 124.078 13.8646C123.953 13.5729 123.844 13.2656 123.76 12.9583C123.672 12.6458 123.604 12.3333 123.562 12.0156C123.516 11.6979 123.484 11.3802 123.479 11.0573C123.474 10.7396 123.484 10.4219 123.526 10.0989C123.562 9.78123 123.609 9.46352 123.693 9.15102C123.766 8.83852 123.854 8.53123 123.969 8.23436C124.083 7.93227 124.224 7.64061 124.37 7.35415C124.526 7.07811 124.693 6.80206 124.875 6.53644C125.068 6.27602 125.266 6.03123 125.49 5.79165C125.703 5.55727 125.937 5.33332 126.182 5.13019C126.427 4.92186 126.693 4.73436 126.958 4.55727C127.229 4.3854 127.51 4.23436 127.802 4.09894C128.094 3.95311 128.391 3.83852 128.698 3.73436C129 3.64061 129.312 3.56248 129.625 3.49477C129.943 3.43748 130.26 3.40102 130.583 3.37498C130.906 3.35936 131.224 3.35936 131.542 3.3854C131.865 3.40102 132.187 3.4479 132.5 3.50519C132.812 3.56769 133.125 3.64582 133.427 3.74998C133.74 3.84894 134.031 3.96873 134.323 4.10936C134.615 4.24998 134.896 4.40623 135.161 4.58332C135.432 4.7604 135.693 4.9479 135.937 5.15102C136.182 5.36457 136.411 5.58852 136.63 5.81769C136.844 6.05727 137.052 6.31248 137.234 6.5729C137.417 6.83331 137.583 7.10415 137.734 7.39061C137.885 7.67706 138.021 7.96352 138.13 8.27082C138.24 8.5729 138.339 8.87498 138.411 9.18748C138.479 9.49998 138.536 9.81248 138.573 10.1354C138.604 10.4531 138.62 10.776 138.604 11.0989C138.599 11.4166 138.573 11.7396 138.526 12.0521C138.474 12.3698 138.406 12.6875 138.323 12.9948C138.229 13.3021 138.12 13.6041 137.995 13.901C137.87 14.1927 137.729 14.4791 137.562 14.7552C137.396 15.0312 137.219 15.3021 137.021 15.5521C136.823 15.8073 136.609 16.0469 136.38 16.2708C136.156 16.5 135.917 16.7083 135.661 16.9114C135.401 17.1041 135.141 17.2812 134.859 17.4479C134.583 17.6041 134.297 17.75 134 17.875C133.703 18 133.401 18.1094 133.094 18.1927C132.781 18.2812 132.464 18.3489 132.151 18.3906C131.833 18.4375 131.516 18.4687 131.187 18.4739C133.016 32.5469 136.104 46.3281 140.464 59.8385C122.01 62.9896 85.3073 74.6146 68.8593 88.4375Z" fill="#FFD766"/>
<path d="M231.594 169.99C248.943 156.552 253.458 173.865 250.698 192.193C249.271 201.651 246.094 215.016 231.839 214.417C231.839 214.417 220.094 280.542 142.76 282.318C122.349 282.776 99.8854 275.958 86.0156 262C74.1041 250.01 67.151 236.635 61.9583 220.542C54.651 197.797 59.2968 170.896 60.5052 147.833C60.5052 147.833 63.6771 110.641 102.875 97.6875C153.917 80.8281 162.682 87.3698 162.682 87.3698C177.052 72.2396 207.865 103.302 214.927 115.151C231.656 143.203 231.594 169.99 231.594 169.99Z" fill="#E6B48C"/>
<path d="M221.417 208.672C216.547 212.745 211.713 216.859 207.021 221.13C206.469 221.656 205.812 221.969 205.052 222.068C204.297 222.161 203.583 222.031 202.911 221.667C202.266 221.281 201.802 220.74 201.531 220.047C201.255 219.328 201.198 218.594 201.365 217.844C201.615 216.042 201.958 214.266 202.333 212.49C201.932 212.833 201.557 213.167 201.135 213.505C198.656 215.708 195.932 217.552 192.963 219.036C192.432 219.333 191.865 219.474 191.255 219.474C190.651 219.474 190.078 219.333 189.552 219.036C189.036 218.729 188.63 218.313 188.333 217.792C188.042 217.271 187.885 216.714 187.875 216.115C187.828 215.156 187.885 214.203 188.052 213.255C186.802 214.266 185.646 215.37 184.588 216.583C184.542 216.63 184.5 216.682 184.458 216.74L184.635 216.495L184.281 216.979C184.094 217.26 183.906 217.552 183.745 217.844L183.557 218.224C183.443 218.536 183.354 218.865 183.297 219.198C182.953 221.063 180.797 221.938 179.125 221.563C178.25 221.313 177.578 220.797 177.109 220.01C176.656 219.188 176.547 218.323 176.766 217.406C177.453 213.74 180.469 210.807 183.229 208.51C185.838 206.333 188.797 204.453 191.104 201.938C191.375 201.667 191.672 201.458 192.005 201.292C192.344 201.125 192.698 201.016 193.068 200.969C193.437 200.922 193.807 200.932 194.172 201.005C194.542 201.078 194.885 201.214 195.213 201.401C195.536 201.589 195.823 201.823 196.068 202.109C196.312 202.385 196.505 202.703 196.641 203.047C196.786 203.396 196.865 203.755 196.885 204.125C196.906 204.5 196.865 204.87 196.771 205.229C196.443 206.547 196.104 207.87 195.781 209.188L196.625 208.5C199.677 205.932 202.672 203.307 205.838 200.875C206.896 200.057 208.63 200.396 209.604 201.135C210.135 201.557 210.516 202.089 210.729 202.734C210.953 203.38 210.974 204.031 210.812 204.693C210.547 206.344 210.219 207.979 209.875 209.609C212.109 207.693 214.359 205.792 216.625 203.896C216.948 203.594 217.318 203.354 217.734 203.188C218.146 203.026 218.578 202.943 219.021 202.943C219.463 202.943 219.896 203.026 220.307 203.188C220.719 203.354 221.088 203.594 221.417 203.896C222.677 205.052 222.776 207.531 221.417 208.672ZM184.458 216.74C184.302 216.953 184.161 217.167 184.458 216.74V216.74ZM109.266 201.01C109.74 201.833 109.854 202.703 109.609 203.615C109.338 204.479 108.823 205.156 108.057 205.641L107.99 205.688C107.823 205.823 107.646 205.964 107.479 206.115C107.047 206.49 106.625 206.885 106.208 207.292C105.198 208.271 104.219 209.286 103.26 210.323C101.448 212.271 99.6926 214.281 98.0051 216.328C97.0364 217.516 95.1458 217.516 93.901 216.865C93.2499 216.474 92.776 215.922 92.4947 215.214C92.2083 214.51 92.1562 213.786 92.3489 213.047C92.3489 212.901 92.4166 212.745 92.4426 212.599C92.4791 212.203 92.526 211.823 92.5624 211.427C92.5885 211.031 92.5624 210.76 92.6145 210.427C91.6822 211.203 90.7551 211.974 89.802 212.688C86.7812 215.052 83.7083 217.25 80.0624 218.573C79.4739 218.74 78.8905 218.745 78.302 218.589C77.7083 218.432 77.203 218.141 76.7708 217.703C76.3593 217.266 76.0728 216.75 75.9166 216.172C75.7655 215.583 75.7603 215 75.8958 214.411C76.1197 212.99 76.4374 211.589 76.8541 210.214L76.7291 210.297C76.0051 210.818 75.2864 211.344 74.5728 211.844L73.4583 212.677C74.4374 211.953 73.3176 212.797 73.0937 212.969C71.9426 213.87 70.8489 214.828 69.8124 215.849C69.4999 216.172 69.1249 216.411 68.7187 216.583C68.302 216.75 67.8697 216.839 67.4166 216.839C66.9739 216.839 66.5364 216.75 66.1249 216.583C65.7135 216.411 65.3437 216.167 65.026 215.849C64.7083 215.531 64.4635 215.167 64.2916 214.755C64.1197 214.339 64.0364 213.911 64.0364 213.458C64.0364 213.016 64.1197 212.578 64.2916 212.172C64.4635 211.755 64.7083 211.385 65.0208 211.073C67.5572 208.682 70.2655 206.516 73.1562 204.568C75.802 202.661 78.4947 200.828 81.2603 199.089C83.7551 197.542 87.0624 200.125 86.2343 202.901C85.6978 204.698 85.1145 206.474 84.5468 208.26L84.9374 207.969L84.9947 207.932L85.4947 207.536C88.5989 205.089 91.5728 202.516 94.8072 200.214C95.4062 199.865 96.0468 199.714 96.7343 199.76C97.4166 199.813 98.0364 200.047 98.578 200.479C99.0624 200.859 99.4218 201.339 99.6458 201.922C99.8697 202.495 99.9322 203.089 99.828 203.698C99.828 203.87 99.828 204.042 99.7708 204.214C101.26 202.589 102.891 201.125 104.667 199.818C106.177 198.703 108.344 199.578 109.266 201.01ZM138.849 245.469C147.474 243.984 148.937 233.286 150.609 224.365L126.865 227.552C126.318 234.276 129.937 246.995 138.849 245.469Z" fill="#DE4D86"/>
<path d="M40.7396 210.302C42.2083 229.042 43.5937 246.719 35.4948 264.859C35.3229 265.234 35.0312 265.422 34.6198 265.422C34.4792 265.422 34.349 265.396 34.224 265.344C33.9844 265.234 33.8125 265.057 33.7188 264.807C33.625 264.563 33.6354 264.318 33.7448 264.068C41.651 246.406 40.2812 228.938 38.8333 210.453C37.9844 199.714 37.1198 188.615 38.1979 177.38C38.2396 177.135 38.3594 176.932 38.5625 176.786C38.7604 176.635 38.9844 176.573 39.2344 176.594C39.4792 176.62 39.6927 176.724 39.8542 176.906C40.026 177.094 40.1042 177.307 40.1042 177.557C39.0417 188.635 39.9115 199.646 40.7396 210.302ZM51.1094 196.573C51.0833 196.313 50.9688 196.099 50.7708 195.932C50.5677 195.76 50.3385 195.688 50.0781 195.703C49.8177 195.719 49.5938 195.823 49.4167 196.021C49.2396 196.219 49.1615 196.453 49.1771 196.714C49.599 202.589 50.3802 208.563 51.1406 214.328C52.5469 225.031 54.0052 236.099 53.1927 247.042C52.849 251.693 51.4688 260.385 49.4792 265.104C49.375 265.349 49.3698 265.594 49.474 265.839C49.5781 266.083 49.75 266.255 49.9948 266.359C50.1094 266.411 50.2344 266.438 50.3594 266.438C50.7865 266.443 51.0833 266.245 51.2396 265.844C53.4375 260.656 54.7708 251.646 55.125 247.182C55.9479 236.047 54.4792 224.88 53.0625 214.073C52.2813 208.333 51.5052 202.396 51.1094 196.573ZM233.88 121.469C234.229 105.505 234.594 89 226.708 77.1667C210.958 53.5208 184.271 51.9323 158.458 50.3906L151.88 50.0261C151.62 50.0104 151.385 50.0833 151.182 50.2552C150.984 50.4323 150.875 50.6511 150.859 50.9115C150.844 51.1771 150.917 51.4115 151.094 51.6094C151.266 51.8073 151.484 51.9167 151.75 51.9323C153.938 52.0833 156.141 52.2136 158.365 52.3438C183.698 53.8906 209.906 55.4427 225.099 78.2604C232.651 89.6042 232.302 105.802 231.953 121.464C231.646 135.792 231.344 149.359 237.182 158.073C237.328 158.292 237.531 158.438 237.797 158.495C238.057 158.542 238.302 158.5 238.526 158.349C238.755 158.198 238.891 157.99 238.938 157.729C238.99 157.458 238.938 157.219 238.781 157C233.286 148.734 233.583 135.49 233.88 121.469ZM253.859 108.568C253.448 87.9427 251.656 69.9948 233.688 59.224C221.318 51.8073 209.583 49.875 197.172 47.8229C189.88 46.6146 182.349 45.375 174.625 42.9219C174.37 42.8438 174.135 42.8594 173.896 42.9792C173.661 43.1042 173.505 43.2865 173.422 43.5365C173.339 43.7917 173.365 44.0365 173.484 44.2708C173.604 44.5052 173.792 44.6615 174.042 44.7448C181.896 47.2448 189.505 48.5 196.854 49.7083C209.125 51.7292 220.688 53.6354 232.729 60.875C249.802 71.1354 251.552 88.5677 251.943 108.62C252.427 132.859 256.234 147.094 264.073 168.083C267.797 178.052 269.443 191.656 268.729 206.391C267.823 223.516 264.12 240.016 257.625 255.891C257.526 256.13 257.526 256.38 257.625 256.62C257.724 256.87 257.901 257.042 258.146 257.135C258.26 257.182 258.385 257.203 258.51 257.203C258.938 257.208 259.234 257.01 259.401 256.615C265.979 240.547 269.724 223.833 270.635 206.49C271.411 191.5 269.703 177.62 265.88 167.406C258.109 146.635 254.333 132.531 253.87 108.568H253.859ZM246.484 172.109C246.563 172.411 246.547 172.292 246.484 172.109V172.109ZM160.719 90.0417H160.672C160.776 90.099 160.88 90.1458 160.99 90.1771L160.719 90.0417ZM244.74 202.677L244.786 202.552C244.755 202.615 244.729 202.677 244.714 202.74L244.74 202.677ZM234.656 211.099H234.917H234.656ZM241.792 168.521C241.734 168.557 241.672 168.578 241.604 168.589C241.677 168.589 241.74 168.568 241.797 168.521H241.792ZM152.995 187.026C152.99 187.068 152.99 187.115 152.995 187.161V187.026ZM136.875 242.297H136.771H136.875ZM141.172 241.036L141.219 240.995L141.089 241.089C141.109 241.078 141.13 241.057 141.156 241.036H141.172ZM153.818 224.375C153.833 224.656 153.812 224.932 153.766 225.203C152.938 229.536 152.286 233.984 150.661 238.115C149.177 241.896 146.896 245.677 143.062 247.469C139.229 249.255 134.76 249.411 131.26 246.891C128.047 244.568 126.099 241.099 124.896 237.401C123.891 234.38 123.438 231.281 123.552 228.104C121.661 227.417 120.016 226.349 118.609 224.906C118.307 224.599 118.073 224.24 117.911 223.839C117.75 223.438 117.667 223.021 117.667 222.583C117.667 222.151 117.75 221.734 117.911 221.328C118.073 220.932 118.307 220.568 118.609 220.26C118.917 219.953 119.276 219.719 119.677 219.552C120.083 219.391 120.505 219.302 120.938 219.302C121.375 219.302 121.792 219.391 122.198 219.552C122.604 219.719 122.958 219.953 123.271 220.26C123.427 220.438 123.599 220.609 123.776 220.771L123.922 220.896C124.266 221.13 124.625 221.365 124.995 221.563C125.224 221.688 125.464 221.797 125.703 221.911L125.839 221.969C126.354 222.156 126.88 222.328 127.396 222.474C128.432 222.755 129.479 222.974 130.542 223.12L130.844 223.161L131.703 223.245C132.24 223.292 132.776 223.328 133.307 223.354C135.641 223.453 137.969 223.391 140.292 223.161C140.797 223.109 141.302 223.052 141.844 222.99L142.193 222.943L142.849 222.833C143.823 222.672 144.792 222.474 145.755 222.234C146.531 222.047 147.292 221.813 148.036 221.526L148.276 221.422C148.51 221.302 148.74 221.167 148.953 221.021C150.458 219.979 152.542 220.802 153.443 222.198C153.88 222.87 154.005 223.594 153.818 224.375ZM134.938 241.521L134.807 241.427C134.844 241.474 134.885 241.521 134.938 241.557V241.521ZM142.745 239.354C142.745 239.354 142.568 239.589 142.464 239.719C142.604 239.615 142.75 239.448 142.745 239.385V239.354ZM146.417 228.859C141.708 229.896 136.948 230.24 132.135 229.891C131.464 229.839 130.792 229.776 130.104 229.703C130.104 230.099 130.146 230.474 130.177 230.906C130.177 231.099 130.219 231.286 130.245 231.484C130.49 233.172 130.906 234.823 131.49 236.427L131.708 237.005C131.854 237.328 132.005 237.641 132.156 237.953C132.5 238.615 132.875 239.255 133.302 239.87C133.401 239.974 133.5 240.13 133.573 240.219C133.802 240.479 134.026 240.729 134.281 240.995L134.682 241.359C134.917 241.516 135.146 241.682 135.396 241.818L135.786 242.016C136.057 242.115 136.328 242.198 136.604 242.271H136.766C136.266 242.182 136.594 242.271 136.854 242.271L137.167 242.318L136.865 242.271H136.943C137.297 242.292 137.656 242.292 138.016 242.271H138.146C138.292 242.271 138.448 242.214 138.594 242.172C138.984 242.089 139.365 241.979 139.74 241.839L140.167 241.63C140.474 241.464 140.76 241.286 141.047 241.089C140.724 241.333 140.927 241.214 141.047 241.089L141.109 241.031L141.38 240.839L141.156 240.99L141.458 240.729C141.729 240.484 141.99 240.219 142.234 239.953C142.286 239.896 142.333 239.844 142.385 239.797C142.385 239.797 142.385 239.797 142.427 239.724L142.599 239.495C142.818 239.177 143.031 238.849 143.224 238.521C143.443 238.156 143.641 237.745 143.833 237.401L144.089 236.854C144.13 236.771 144.167 236.698 144.198 236.62C144.25 236.49 144.312 236.333 144.333 236.276C144.406 236.083 144.484 235.88 144.552 235.688C144.703 235.276 144.833 234.88 144.964 234.469C145.547 232.63 146.031 230.771 146.417 228.885V228.859ZM149.979 39.7031L149.672 39.5677H149.599C150.068 39.7969 150.12 39.8125 149.979 39.7396V39.7031ZM284.276 219.87C284.255 219.979 284.234 220.089 284.203 220.198C284.203 220.245 284.203 220.292 284.203 220.339C282.323 227.714 281.271 235.203 281.052 242.813C280.911 248.125 281.292 253.422 281.375 258.729C281.427 262.411 281.286 266.245 280.068 269.745C279.469 271.531 278.589 273.167 277.432 274.656C276.276 276.141 274.901 277.396 273.318 278.417C266.526 282.859 257.391 283.391 249.531 283.573C239.922 283.792 230.339 283 220.755 282.479C216.609 282.26 212.443 282.057 208.292 282.135C206.552 282.135 204.823 282.266 203.094 282.453H202.964L202.578 282.516C202.214 282.578 201.844 282.641 201.479 282.714C200.875 282.849 200.271 283 199.677 283.188C196.365 284.255 194.453 280.021 196.49 277.714C197.026 277.104 197.531 276.479 198.042 275.844L198.896 274.766L198.99 274.635L199.547 273.917C200.318 272.896 201.094 271.854 201.823 270.818C203.885 267.932 205.833 264.979 207.703 261.969C202.583 266.594 196.99 270.542 190.922 273.818C183.516 277.776 175.729 280.693 167.547 282.578C157.656 284.906 147.63 285.901 137.479 285.557C125.875 285.151 114.75 282.641 104.104 278.021C99.9115 276.203 95.9323 273.995 92.1719 271.385L89.4479 271.745L86.2083 272.161H85.9219C85.7031 272.26 85.4688 272.339 85.2344 272.401L84.0365 272.708C82.2604 273.156 80.4688 273.589 78.6771 274.005C71.2292 275.813 63.6979 277.089 56.0781 277.844C49.9948 278.385 43.8229 278.474 37.7188 278.51C31.4896 278.599 25.2812 278.307 19.0885 277.646C13.1927 276.958 7.375 275.875 1.92187 273.443C1.54687 273.224 1.22917 272.938 0.96354 272.589C0.703124 272.25 0.515623 271.859 0.406248 271.443C0.291664 271.021 0.270832 270.594 0.333332 270.167C0.390624 269.734 0.531249 269.328 0.755207 268.958C2.91667 266.083 5.34375 263.406 7.42187 260.484C9.4375 257.771 10.75 254.745 11.3542 251.411C11.6406 249.51 11.7865 246.828 11.875 244.635C12.099 238.896 11.9583 233.135 11.7187 227.396C11.2969 217.448 10.5208 207.505 9.53125 197.594C8.47396 187.01 8.70312 176.458 10.2187 165.938C12.2552 151.641 16.9948 137.958 23.1719 124.943C30.2865 109.922 39.0938 95.5886 48.2031 81.724C51.3021 77.0781 54.5729 72.4948 58.0781 68.1146C54.4271 60.5 50.5052 53.5208 47.9896 49.2552C46.9167 49.6302 45.8073 49.8125 44.6667 49.8125C43.9271 49.8125 43.1875 49.7344 42.4531 49.5833C41.7292 49.4271 41.026 49.1979 40.3438 48.8958C39.6615 48.5938 39.0208 48.224 38.4167 47.7865C37.8177 47.3438 37.2708 46.849 36.776 46.2969C36.2812 45.7344 35.8542 45.1354 35.4844 44.4844C35.1198 43.8438 34.8229 43.1615 34.599 42.4479C34.375 41.7396 34.2344 41.0156 34.1667 40.2761C34.099 39.5313 34.1094 38.7969 34.1979 38.0521C34.2917 37.3177 34.4583 36.599 34.7031 35.8906C34.9479 35.1875 35.2604 34.5208 35.6458 33.8854C36.0365 33.25 36.4792 32.6615 36.9948 32.1198C37.5052 31.5833 38.0729 31.099 38.6823 30.6823C39.2969 30.2604 39.9531 29.9063 40.6354 29.625C41.3281 29.3438 42.0417 29.1354 42.776 29C43.5052 28.8698 44.2448 28.8177 44.9948 28.849C45.7344 28.8698 46.4688 28.9792 47.1927 29.1615C47.9115 29.3386 48.6094 29.5938 49.276 29.9271C49.9427 30.2604 50.5677 30.6511 51.1562 31.1146C51.7396 31.5781 52.2604 32.0938 52.7344 32.6719C53.2083 33.25 53.6198 33.8646 53.9531 34.5261C54.2969 35.1875 54.5677 35.8802 54.7604 36.599C54.9531 37.3125 55.0729 38.0469 55.1094 38.7917C55.1458 39.5313 55.1094 40.2708 54.9896 41.0052C54.8698 41.7396 54.6719 42.4531 54.401 43.1458C59.8333 44.5729 68.8438 45.7396 74.474 43.4271C80.1094 41.1094 82.7083 37.8386 84.5677 29.625C83.7969 29.5 83.0573 29.2969 82.3385 29.0104C81.6146 28.724 80.9375 28.3646 80.2969 27.9219C79.651 27.4844 79.0729 26.9844 78.5417 26.4167C78.0104 25.8542 77.5521 25.2292 77.1615 24.5625C76.7708 23.8958 76.4583 23.1927 76.2188 22.4531C75.9844 21.7136 75.8385 20.9636 75.7708 20.1927C75.7031 19.4167 75.724 18.6458 75.8281 17.8802C75.9271 17.1094 76.1198 16.3646 76.3854 15.6354C76.6615 14.9115 77.0052 14.2292 77.4271 13.5781C77.849 12.9271 78.3385 12.3333 78.8958 11.7917C79.4531 11.25 80.0573 10.7761 80.7188 10.3698C81.3802 9.96355 82.0781 9.64064 82.8125 9.38022C83.5469 9.13022 84.2969 8.96355 85.0677 8.88022C85.8385 8.79168 86.6094 8.79168 87.3854 8.88022C88.151 8.96876 88.9063 9.13543 89.6354 9.39064C90.3698 9.64585 91.0677 9.97397 91.7292 10.3802C92.3906 10.7865 92.9948 11.2604 93.5469 11.8021C94.1042 12.3438 94.5885 12.9427 95.0104 13.5938C95.4323 14.2448 95.7813 14.9271 96.0521 15.6511C96.3177 16.3854 96.5052 17.1302 96.6094 17.8958C96.7135 18.6667 96.7292 19.4375 96.6615 20.2083C96.5938 20.9792 96.4375 21.7292 96.2031 22.4688C95.9635 23.2083 95.651 23.9115 95.2656 24.5781C94.8698 25.2448 94.4062 25.8646 93.8802 26.4271C95.9896 28.0677 98.3177 29.2656 100.88 30.0208C103.438 30.7708 106.052 31.0365 108.708 30.8021C118.417 29.9792 122.844 24.75 125.781 19.9063C125.099 19.5052 124.474 19.0365 123.896 18.4948C123.328 17.9531 122.818 17.3542 122.38 16.6979C121.948 16.0417 121.589 15.3438 121.307 14.6094C121.026 13.8646 120.833 13.1094 120.724 12.3281C120.625 11.5417 120.599 10.7604 120.677 9.97918C120.75 9.19272 120.906 8.42189 121.156 7.6771C121.401 6.9271 121.724 6.21355 122.13 5.54168C122.542 4.85939 123.021 4.2448 123.568 3.67189C124.12 3.10939 124.724 2.6146 125.385 2.1771C126.047 1.75001 126.745 1.40105 127.49 1.13022C128.229 0.859387 128.995 0.677094 129.781 0.578137C130.562 0.484386 131.349 0.473971 132.135 0.552095C132.917 0.630221 133.688 0.796887 134.432 1.0521C135.177 1.31251 135.891 1.64064 136.562 2.0573C137.234 2.47397 137.849 2.95314 138.411 3.51564C138.974 4.06772 139.464 4.6771 139.891 5.33855C140.312 6.01043 140.651 6.71355 140.917 7.45835C141.177 8.19793 141.354 8.96355 141.443 9.7448C141.531 10.5365 141.531 11.3177 141.443 12.099C141.349 12.8854 141.177 13.6458 140.911 14.3906C140.646 15.1354 140.307 15.8386 139.885 16.5052C139.464 17.1719 138.969 17.7813 138.406 18.3333C137.844 18.8906 137.229 19.375 136.552 19.7865C135.885 20.2031 135.172 20.5365 134.427 20.7917C134.812 23.6198 135.292 26.5156 135.828 29.4531C139.948 29.9167 143.969 30.7656 147.922 32.0104C149.698 32.5625 151.432 33.2136 153.141 33.9636C154.885 33.2604 156.667 32.6719 158.495 32.2031C168.099 29.8021 177.984 30.9063 187.609 32.6458C196.307 34.1979 205.125 35.6354 213.661 37.9479C221.536 39.9583 228.969 43.0313 235.969 47.1563C243.156 51.5938 249.313 57.1563 254.443 63.8542C265.604 78.1979 272.609 95.1302 277.354 112.552C279.677 121.078 281.469 129.724 283.115 138.391C284.792 147.297 286.214 156.26 287.182 165.271C289.135 183.401 289.219 202.182 284.276 219.87ZM126.349 10.8958C126.349 11.7083 126.547 12.474 126.943 13.1927C127.339 13.9063 127.885 14.4792 128.583 14.9063C129.833 15.875 132.073 15.7656 133.385 14.9688C133.87 14.6927 134.292 14.349 134.651 13.9219C135.01 13.5 135.281 13.0313 135.474 12.5156C135.672 11.9948 135.766 11.4531 135.766 10.9011C135.771 10.3438 135.677 9.8073 135.495 9.29168C135.307 8.76564 135.031 8.29168 134.672 7.8698C134.318 7.44272 133.901 7.09376 133.422 6.81251C132.938 6.53126 132.427 6.34376 131.885 6.25001C131.339 6.15105 130.792 6.15105 130.245 6.25001C129.693 6.34376 129.182 6.53126 128.703 6.8073C128.219 7.08855 127.802 7.43751 127.448 7.8646C127.089 8.28647 126.818 8.76043 126.63 9.28647C126.438 9.80209 126.349 10.3386 126.349 10.8958ZM85.8646 23.9948C89.875 24.2708 90.9688 20.6667 90.9688 19.3021C90.9635 18.6927 90.8438 18.1094 90.6146 17.5417C90.3802 16.9792 90.0521 16.4792 89.625 16.0469C89.1979 15.6094 88.7083 15.2708 88.1458 15.0261C87.5833 14.7865 87 14.6563 86.3906 14.6406C85.7812 14.625 85.1875 14.724 84.6198 14.9375C84.0469 15.1563 83.5417 15.4636 83.0885 15.8802C82.6406 16.2917 82.2865 16.7761 82.026 17.3281C81.7656 17.8802 81.6198 18.4531 81.5833 19.0677C81.5521 19.6771 81.6302 20.2656 81.8281 20.8438C82.0312 21.4167 82.3281 21.9375 82.724 22.4011C83.125 22.8594 83.599 23.2292 84.1406 23.5052C84.6875 23.7813 85.2604 23.9479 85.8646 23.9948ZM44.6823 44.0677C45.9688 44.0677 49.3438 43.0417 49.3438 39.349C49.3385 38.7292 49.2135 38.1302 48.974 37.5573C48.7292 36.9792 48.3854 36.4792 47.9427 36.0417C47.5 35.6042 46.9896 35.2708 46.4115 35.0365C45.8385 34.8021 45.2344 34.6875 44.6094 34.6927C43.9896 34.6979 43.3906 34.8177 42.8125 35.0625C42.2448 35.3021 41.7396 35.6458 41.3021 36.0886C40.8646 36.5313 40.526 37.0417 40.2969 37.6198C40.0625 38.1979 39.9479 38.7969 39.9531 39.4167C39.9583 40.0417 40.0781 40.6354 40.3229 41.2031C40.5625 41.7813 40.9115 42.2813 41.3542 42.724C41.7917 43.1563 42.3073 43.4948 42.8854 43.7292C43.4583 43.9636 44.0625 44.0729 44.6823 44.0677ZM54.6094 49.1615C59.3594 57.4636 66.8073 71.4688 70.5 83.5417C87.1458 71.6458 117.62 61.4011 136.755 57.6094C133.484 46.9531 130.974 36.1198 129.219 25.1146C125.688 30.1302 119.859 35.625 109.214 36.5313C105.807 36.8386 102.458 36.5 99.1823 35.5313C95.8958 34.5573 92.9167 33.0104 90.2292 30.8854C89.5833 34.2083 88.4427 37.3542 86.8125 40.3125C84.5938 44.1198 81.3854 46.7969 76.7292 48.7344C70.5833 51.25 61.4531 50.7552 54.6094 49.1615ZM210.526 249.677C211 249.135 211.469 248.578 211.922 248.016L212.646 247.12L212.932 246.75C213.745 245.672 214.552 244.594 215.323 243.484C216.828 241.323 218.234 239.094 219.552 236.807C220.729 234.74 221.833 232.63 222.859 230.484C223.312 229.51 223.766 228.521 224.193 227.536C224.193 227.453 224.26 227.375 224.297 227.286C224.323 227.203 224.427 226.979 224.49 226.833L225.047 225.443C226.151 222.635 227.104 219.771 227.891 216.859C228.188 215.766 228.474 214.656 228.667 213.547C228.87 212.839 229.26 212.26 229.844 211.813C230.432 211.365 231.094 211.141 231.828 211.141C232.682 211.177 233.536 211.161 234.385 211.099H234.599C234.688 211.104 234.776 211.104 234.859 211.099H235.026H234.891L235.948 210.885C236.615 210.729 237.245 210.479 237.901 210.281L238.224 210.125C238.51 209.984 238.797 209.828 239.078 209.677C239.359 209.521 239.609 209.344 239.854 209.172C239.854 209.172 240.057 209.005 240.208 208.911C240.656 208.505 241.12 208.135 241.542 207.677C241.729 207.479 241.906 207.271 242.089 207.068C242.089 207.068 242.333 206.75 242.432 206.641C242.76 206.172 243.083 205.703 243.38 205.214C243.667 204.729 243.938 204.24 244.151 203.74C244.271 203.495 244.401 203.24 244.516 202.964L244.609 202.76V202.672L244.656 202.552C244.781 202.286 244.719 202.396 244.656 202.552C244.891 201.88 245.641 199.771 245.703 199.557C246.323 197.422 246.818 195.266 247.172 193.073C247.255 192.526 247.349 191.984 247.427 191.438C247.427 191.266 247.484 191.094 247.505 190.922C247.505 190.875 247.505 190.755 247.547 190.646C247.578 190.536 247.547 190.422 247.547 190.38L247.615 189.813C247.786 188.344 247.906 186.865 247.979 185.385C248.047 183.927 248.062 182.469 248.021 181.021C248.021 180.344 247.958 179.677 247.901 179.005C247.901 178.677 247.849 178.354 247.812 178.042C247.812 177.943 247.813 177.745 247.776 177.589V177.719C247.661 176.526 247.427 175.359 247.078 174.208C246.922 173.651 246.755 173.094 246.547 172.552C246.474 172.333 246.354 172.125 246.302 171.911C246.302 172.01 246.349 172.089 246.365 172.151C246.333 172.036 246.292 171.927 246.24 171.823C246.005 171.365 245.75 170.911 245.464 170.484C245.427 170.422 245.198 170.12 245.146 170.036C244.964 169.833 244.776 169.641 244.568 169.464C244.495 169.38 244.417 169.313 244.333 169.25L244.177 169.146C244.005 169.036 243.818 168.943 243.641 168.839H243.578C243.391 168.781 243.214 168.714 243.021 168.667L242.656 168.589H242.505C242.25 168.578 241.99 168.578 241.729 168.589H241.641H241.682H241.365C241.068 168.589 241.24 168.661 241.443 168.641C241.068 168.74 240.401 168.802 240.219 168.859C239.906 168.943 239.599 169.042 239.286 169.146L238.734 169.38C238.203 169.63 237.682 169.885 237.182 170.156C235.771 170.964 234.427 171.865 233.151 172.87C231.526 174.12 229.37 173.005 228.552 171.375C228.552 171.823 228.594 172.281 228.594 172.729C228.734 177.719 227.891 182.536 226.062 187.182C224.198 191.802 221.401 195.755 217.656 199.042C213.615 202.469 209.047 204.896 203.948 206.333C201.276 207.099 198.568 207.745 195.833 208.245C187.516 209.755 178.448 210.146 170.448 206.943C167.396 205.745 164.604 204.094 162.083 202C160.146 200.349 158.474 198.469 157.062 196.354C155.25 193.708 153.948 190.823 153.167 187.708C153.125 187.531 153.078 187.344 153.042 187.161C153.141 187.516 153.401 187.839 153.234 187.531C153.161 187.365 153.089 187.193 153.021 187.026C153.016 187.01 153.016 186.995 153.021 186.979C153.016 187 153.016 187.016 153.021 187.036C152.896 186.75 152.786 186.469 152.672 186.177C152.333 185.406 152.047 184.531 151.776 183.682C150.88 180.745 150.312 177.74 150.068 174.672C143.677 174.62 137.281 174.302 130.896 174.042C130.547 177.583 129.75 181.031 128.521 184.375C127.167 187.943 125.318 191.219 122.958 194.214C119.531 198.516 115.323 201.844 110.339 204.182C107.88 205.396 105.323 206.302 102.646 206.901C98.4948 207.833 94.3021 208.146 90.0573 207.849C85.1198 207.432 80.4167 206.167 75.9375 204.047C71.7083 202.036 67.9896 199.339 64.7656 195.943C63.4792 194.578 62.2917 193.125 61.2188 191.583C61.2188 194.62 61.3542 197.667 61.5781 200.698C61.6979 202.167 61.8385 203.635 62.0052 205.104C62.0521 205.516 62.099 205.922 62.1562 206.333C62.1562 206.422 62.224 206.833 62.2396 206.922C62.3385 207.646 62.4583 208.37 62.5833 209.089C63.6146 214.802 65.1667 220.37 67.2344 225.792C67.7292 227.135 68.2448 228.469 68.7917 229.792L69.2083 230.807C69.224 230.865 69.2448 230.917 69.276 230.969L69.4219 231.328C69.6771 231.896 69.9323 232.464 70.1979 233.031C71.3177 235.516 72.5365 237.953 73.8542 240.344C75.1771 242.74 76.5833 245.057 78.0938 247.318C78.8698 248.469 79.6458 249.609 80.5156 250.719L81.1667 251.589L81.3958 251.885C81.8229 252.427 82.25 252.953 82.6875 253.479C84.4948 255.661 86.401 257.776 88.4167 259.781C89.2969 260.667 90.224 261.531 91.1719 262.354C91.6875 262.802 92.2083 263.24 92.7188 263.672L93.4115 264.219L93.7708 264.479C98.0625 267.672 102.672 270.313 107.589 272.422L108.047 272.62L108.896 272.969C109.516 273.219 110.141 273.458 110.755 273.682C112.01 274.151 113.271 274.583 114.536 274.995C117.125 275.813 119.76 276.516 122.453 277.099C123.818 277.391 125.188 277.667 126.557 277.875C127.266 277.99 127.979 278.104 128.693 278.208L129.234 278.286L129.964 278.38C132.651 278.703 135.349 278.917 138.052 278.99C143.188 279.12 148.302 278.906 153.401 278.333L155.297 278.115L156.073 278.01H156.307C157.484 277.854 158.641 277.667 159.818 277.464C162.021 277.083 164.219 276.63 166.401 276.115C170.422 275.151 174.365 273.932 178.234 272.464L179.693 271.891L180.417 271.599C180.531 271.552 181.193 271.255 180.74 271.469L181.161 271.276L181.859 270.974L183.042 270.432C184.745 269.651 186.411 268.813 188.062 267.911C191.172 266.219 194.161 264.328 197.031 262.245L198.109 261.469L198.562 261.12C199.208 260.62 199.849 260.115 200.474 259.573C201.719 258.542 202.932 257.469 204.125 256.365C206.38 254.255 208.516 252.021 210.526 249.677ZM67.1823 135.198C66.7188 136.38 66.3073 137.578 65.9219 138.797C65.6875 139.516 65.4896 140.255 65.2917 140.99C67.4062 138.859 69.7604 137.036 72.349 135.51C80.3177 130.865 89.7448 129.505 98.8281 130.505C107.318 131.443 115.802 134.234 121.839 140.536C128.047 147.026 130.547 155.844 131.151 164.599C131.214 165.573 131.245 166.542 131.26 167.505C137.505 167.76 143.76 168.063 150.016 168.12C150.333 160.521 152.271 152.708 156.344 146.297C158.542 142.698 161.448 139.792 165.052 137.589C166.849 136.542 168.766 135.781 170.792 135.307C173.031 134.844 175.302 134.615 177.589 134.604C187.281 134.323 196.589 136.052 205.526 139.797C213.807 143.323 221.552 149.26 225.448 157.557C226.745 160.339 227.641 163.234 228.13 166.26C228.047 165.13 227.948 163.99 227.818 162.865C227.766 162.448 227.724 162.036 227.672 161.625C227.672 161.464 227.63 161.302 227.609 161.135C227.49 160.365 227.375 159.531 227.25 158.745C226.609 154.766 225.771 150.828 224.734 146.938C221.979 136.292 217.786 126.255 212.146 116.813C211.224 115.307 210.219 113.859 209.135 112.458L208.995 112.271L208.484 111.641C208.135 111.203 207.776 110.776 207.422 110.354C206.651 109.432 205.875 108.536 205.094 107.651C201.896 104.12 198.474 100.818 194.823 97.7448C194.349 97.3438 193.875 96.9688 193.406 96.5781L192.688 96L192.307 95.7083C191.385 95 190.458 94.3125 189.505 93.6563C187.583 92.2969 185.589 91.0625 183.516 89.9479C182.542 89.4167 181.536 88.9323 180.526 88.4844L180.37 88.4219L180.188 88.3438L179.536 88.0938C179.047 87.9115 178.562 87.7396 178.062 87.5886C177.109 87.2656 176.146 87.0104 175.161 86.8125L174.385 86.6667C173.948 86.6667 173.516 86.5886 173.083 86.5729C172.646 86.5521 172.109 86.5729 171.63 86.5729L170.979 86.6146C170.13 86.7761 169.292 86.9948 168.474 87.2656L167.927 87.5313C167.531 87.7396 167.141 87.9688 166.771 88.2188L166.531 88.3594L166.464 88.4219L166.193 88.6511C165.818 88.9636 165.479 89.3073 165.135 89.6511C164.88 89.9115 164.589 90.1146 164.266 90.2761C163.938 90.4323 163.599 90.5365 163.234 90.5833C162.88 90.6302 162.521 90.6198 162.167 90.5417C161.807 90.474 161.474 90.349 161.161 90.1667C161.161 90.1667 161.161 90.1667 161.104 90.1667C161.339 90.2396 161.521 90.2761 161.156 90.1667L160.839 90.0573C160.781 90.0365 160.734 90.0052 160.693 89.9636C160.719 90 160.75 90.0261 160.792 90.0417C160.438 89.9271 160.083 89.8333 159.724 89.7604L159.016 89.6302H158.885C158.276 89.5677 157.667 89.5052 157.057 89.474C155.182 89.3906 153.312 89.4115 151.432 89.5469C150.188 89.6302 148.948 89.7448 147.693 89.8854L146.599 90.0156L146.224 90.0625L143.964 90.4011C135.286 91.8542 126.74 93.8594 118.312 96.3906C112.51 98.0781 106.677 99.7656 101.005 101.906C100.37 102.135 99.7604 102.385 99.1406 102.63L98.9115 102.734L98.0208 103.12C96.9531 103.599 95.8906 104.12 94.8438 104.667C92.8177 105.714 90.849 106.854 88.9531 108.104C88.0677 108.693 87.1875 109.297 86.3333 109.922L85.6302 110.464L85.4792 110.573L84.2917 111.536C82.7552 112.818 81.2865 114.172 79.8854 115.599C78.5677 116.943 77.3125 118.354 76.125 119.828C75.974 120.016 75.8229 120.198 75.6719 120.391L74.8958 121.406C74.3854 122.099 73.8958 122.807 73.4219 123.516C71.5833 126.182 69.9688 128.984 68.5781 131.911C68.4167 132.26 68.2552 132.609 68.0938 132.969L67.901 133.422C67.6198 134.01 67.3802 134.599 67.1615 135.198H67.1823ZM166.365 88.4219C166.229 88.5052 166.099 88.5938 166.089 88.6511L166.365 88.4219ZM174.182 86.6615C174.104 86.6511 174.031 86.6511 173.948 86.6615C174.031 86.6667 174.104 86.6667 174.182 86.6615ZM242.37 206.708L242.432 206.62C242.312 206.776 242.109 207.078 242.417 206.708H242.37ZM274.339 127.99C271.766 116.078 268.552 104.214 263.802 92.9636C259.141 82 252.995 71.2188 244.75 62.5469C237.354 54.7969 227.99 49.4271 217.922 46.0521C212.604 44.3073 207.203 42.9271 201.698 41.9115C195.359 40.724 189.01 39.4167 182.656 38.4011C176.599 37.4271 170.297 36.8542 164.188 37.7344C160.906 38.224 157.729 39.099 154.667 40.3698C154.115 40.6302 153.531 40.7552 152.927 40.7344C152.318 40.724 151.745 40.5781 151.208 40.2917C150.818 40.1094 150.427 39.9375 150.01 39.75L149.708 39.6146L149.542 39.5313L149.625 39.5781H149.552L148.823 39.2917C148.182 39.0521 147.542 38.8177 146.896 38.6042C145.297 38.0886 143.667 37.6198 142.016 37.2083C141.005 36.9688 139.995 36.7552 138.984 36.5573L137.333 36.2761H137.177C138.807 43.8594 140.849 51.5729 143.24 59.0261C143.365 59.4271 143.406 59.8333 143.354 60.2448C143.302 60.6615 143.172 61.0417 142.958 61.3958C142.74 61.7552 142.458 62.0469 142.12 62.2813C141.771 62.5208 141.396 62.6719 140.984 62.7448C131.068 64.4323 117.26 68.3177 104.943 72.8906C100.641 74.4948 95.6771 76.4844 90.7031 78.7917C85.8958 83.349 81.4219 88.2083 77.2812 93.3802C72.9792 98.7344 68.2812 104.073 63.75 109.234C53.6667 120.693 43.2552 132.542 36 145.792C26.099 163.844 27.2552 182.161 28.474 201.578C28.8021 206.677 29.125 211.948 29.25 217.255C29.2865 219.005 29.3802 221.005 29.474 223.125C30.0521 236.401 30.8646 254.589 23.2187 263.151C23.0417 263.344 22.8229 263.453 22.5573 263.469C22.2969 263.484 22.0677 263.401 21.8698 263.224C21.6719 263.052 21.5625 262.833 21.5469 262.568C21.5365 262.307 21.6146 262.078 21.7917 261.88C28.9167 253.901 28.099 235.432 27.5573 223.214C27.4635 221.083 27.3698 219.068 27.3281 217.302C27.2083 212.031 26.875 206.776 26.5521 201.698C25.3177 182.01 24.1406 163.422 34.3125 144.885C41.6823 131.458 52.1667 119.526 62.3073 107.99C66.8333 102.844 71.5104 97.5156 75.7812 92.1979C78.8333 88.3958 82 84.8125 85.2812 81.4479C80.0938 84.0208 75.25 87.1198 70.7448 90.75C70.2031 91.1927 69.5885 91.4219 68.8854 91.4219C68.5781 91.4167 68.276 91.3698 67.9792 91.2761C67.5104 91.1146 67.099 90.849 66.7604 90.4792C66.4271 90.1094 66.2031 89.6823 66.0885 89.1979C64.8385 84.2656 63.1875 79.4792 61.1302 74.8177C59.9896 76.3021 58.8698 77.7865 57.7917 79.3125C50.0938 90.2865 43.0208 101.656 36.5677 113.406C25.7031 132.776 17.2656 153.49 15.7187 175.693C14.7292 190.068 16.901 204.229 17.8021 218.536C18.4688 227.339 18.6719 236.146 18.4167 244.964C18.2292 249.557 17.9115 254.214 16.0833 258.49C14.3854 262.479 11.6406 265.776 8.93229 269.109C9.98437 269.417 11.0573 269.708 12.1354 269.948C23.5365 272.51 35.875 272.188 47.6719 271.771C54.5469 271.557 61.375 270.833 68.1458 269.599C71.9219 268.885 75.6771 268.047 79.4167 267.156C81.3333 266.693 83.3021 266.078 85.2344 265.776C82.6719 263.391 80.2812 260.844 78.0625 258.146C70.7708 249.135 65.151 239.188 61.2083 228.297C59.0469 222.75 57.4167 217.052 56.3281 211.203C55.2865 205.005 54.7448 198.771 54.6875 192.49C54.6302 187.359 54.8229 182.245 55.125 177.135C54.6302 174.526 54.3646 171.901 54.349 169.25C54.2552 164.526 54.9427 159.906 56.3958 155.411C56.5313 154.984 56.6927 154.563 56.8438 154.141C56.9792 150.38 57.3698 146.656 58.0156 142.953C59.0781 138.031 60.6771 133.297 62.8125 128.74C65.8594 122.12 69.9271 116.203 75.0104 110.984C81.6823 104.276 89.4479 99.2292 98.2969 95.849C103.938 93.6406 109.823 91.974 115.641 90.2604C120.594 88.8073 125.589 87.4688 130.625 86.2969C137.359 84.6406 144.177 83.5313 151.089 82.9636C154.49 82.6511 157.88 82.7969 161.24 83.4115L162.016 83.5677C163.693 82.25 165.552 81.2865 167.604 80.6823C169.651 80.0833 171.74 79.875 173.865 80.0781C183.906 80.9583 192.896 87.4688 200.25 93.8386C203.958 97.0313 207.427 100.469 210.656 104.146C213.302 107.047 215.667 110.161 217.75 113.495C219.484 116.401 221.073 119.375 222.542 122.422C220.089 109.531 214.266 93.2083 204.469 82.4375C192.479 69.2656 178.708 68.375 161.271 67.2708L158.104 67.0729C157.849 67.0417 157.646 66.9271 157.484 66.7344C157.318 66.5313 157.25 66.3125 157.266 66.0521C157.286 65.8021 157.385 65.5833 157.568 65.4167C157.755 65.2448 157.979 65.1563 158.24 65.1563L161.422 65.3698C178.589 66.4688 193.417 67.4115 205.922 81.1667C216.922 93.2656 222.995 112.104 225.094 125.693C225.12 125.906 225.089 126.099 224.984 126.281C224.88 126.469 224.734 126.599 224.542 126.688C225.349 128.516 226.115 130.349 226.833 132.198C230.146 140.698 232.469 149.448 233.818 158.464C234.083 160.349 234.359 162.255 234.594 164.167C238.849 161.906 243.818 160.74 247.984 163.646C252.599 166.865 253.995 172.745 254.542 178.01C255.182 184.057 254.5 190.234 253.385 196.177C252.448 201.13 250.943 206.292 247.839 210.344C246.141 212.693 243.99 214.521 241.401 215.823C239.219 216.839 236.922 217.443 234.521 217.625C234.12 219.25 233.635 220.865 233.115 222.453C231.797 226.37 230.24 230.188 228.448 233.906C226.245 238.516 223.672 242.901 220.734 247.078C220.25 247.776 219.745 248.469 219.229 249.146C219.807 249.719 220.167 250.396 220.307 251.188C220.453 251.99 220.354 252.745 220.005 253.479C216.083 261.198 211.578 268.563 206.49 275.573L208.724 275.526C213.427 275.464 218.13 275.724 222.823 276C232.203 276.542 241.599 277.26 250.99 276.927C253.224 276.844 255.464 276.693 257.693 276.438L258.198 276.38L258.745 276.307L260.078 276.089C261.01 275.932 261.953 275.74 262.875 275.526C263.802 275.307 264.703 275.052 265.604 274.75C266.01 274.615 266.417 274.474 266.812 274.313L267.281 274.141C268.052 273.75 268.828 273.365 269.604 272.927C269.901 272.745 270.188 272.552 270.479 272.359L270.63 272.255C270.672 272.208 270.724 272.161 270.771 272.125C271.255 271.682 271.714 271.219 272.151 270.734C272.203 270.661 272.505 270.302 272.604 270.167C272.812 269.833 273.016 269.5 273.193 269.151C273.281 268.964 273.365 268.781 273.453 268.589C273.573 268.245 273.703 267.911 273.818 267.557C274.057 266.797 274.25 266.021 274.401 265.234C274.453 264.99 274.484 264.74 274.526 264.458C274.573 264.021 274.615 263.578 274.656 263.135C274.714 262.359 274.745 261.526 274.76 260.719C274.76 258.719 274.714 256.714 274.635 254.714C274.443 249.703 274.281 244.703 274.547 239.714C274.953 232.781 275.984 225.953 277.656 219.219C277.672 218.995 277.708 218.781 277.771 218.573C279.37 212.927 280.474 207.182 281.073 201.349C283.672 176.854 279.516 151.906 274.349 127.99H274.339Z" fill="black"/>
<path d="M202.422 155.958C212.896 157.151 218.24 167.974 209.406 175.859L202.422 155.958ZM112.401 168.474C121.26 160.589 115.922 149.76 105.417 148.573L112.401 168.474Z" fill="white"/>
</svg>
